<svg width="400" height="400" viewBox="0 0 400 400" fill="none" xmlns="http://www.w3.org/2000/svg">
<path d="M139.194 203.441H120.835C120.801 204.135 120.744 204.754 120.744 205.371C120.744 209.94 120.744 214.523 120.744 219.098C120.772 219.671 120.74 220.245 120.65 220.811C120.49 221.548 120.042 222.045 119.188 222.042C116.77 222.031 114.352 222.031 111.934 222.042C111.078 222.042 110.638 221.577 110.507 220.808C110.389 220.187 110.327 219.556 110.321 218.924C110.31 206.342 110.31 193.758 110.321 181.173C110.303 180.729 110.316 180.284 110.358 179.842C110.55 178.414 110.992 177.989 112.474 177.963C114.445 177.931 116.418 177.937 118.388 177.963C120.264 177.983 120.744 178.443 120.755 180.35C120.781 184.225 120.755 188.103 120.755 191.981V194.166H139.111C139.146 193.429 139.197 192.812 139.2 192.195C139.2 188.197 139.2 184.2 139.2 180.185C139.2 178.228 139.46 177.98 141.39 177.963C143.321 177.946 145.208 177.937 147.116 177.963C148.935 177.989 149.343 178.391 149.354 180.247C149.374 184.377 149.354 188.509 149.354 192.641V219.141C149.376 219.712 149.362 220.284 149.314 220.854C149.229 221.565 148.809 222.034 148.058 222.039C145.515 222.056 142.97 222.056 140.425 222.039C139.674 222.039 139.257 221.588 139.214 220.84C139.186 220.334 139.188 219.823 139.188 219.315L139.194 203.441Z" fill="white"/>
<path d="M165.047 187.286V194.942C165.65 194.982 166.189 195.048 166.761 195.048C170.827 195.048 174.896 195.048 178.965 195.048C180.819 195.048 181.27 195.422 181.353 197.19C181.433 198.775 181.433 200.364 181.353 201.95C181.267 203.589 180.742 204.04 179.068 204.049C175.127 204.072 171.184 204.049 167.243 204.049H164.99C164.99 206.782 164.99 209.303 164.99 211.825C164.99 212.53 165.467 212.841 166.081 212.924C166.587 212.968 167.095 212.98 167.603 212.958C172.817 212.958 178.031 212.958 183.243 212.958C185.419 212.958 185.616 213.164 185.633 215.371C185.633 216.896 185.659 218.421 185.633 219.94C185.596 221.671 185.296 222.002 183.654 222.005C174.627 222.02 165.599 222.02 156.572 222.005C155.055 222.005 154.698 221.625 154.593 220.1C154.564 219.658 154.593 219.212 154.593 218.767V181.273C154.593 180.956 154.593 180.639 154.593 180.319C154.647 178.397 155.053 177.969 156.963 177.963C162.177 177.963 167.389 177.963 172.603 177.963C176.03 177.963 179.457 177.963 182.9 177.963C184.719 177.963 185.159 178.403 185.202 180.19C185.239 181.778 185.233 183.366 185.202 184.953C185.168 186.838 184.714 187.289 182.801 187.295C177.66 187.312 172.5 187.295 167.352 187.295L165.047 187.286Z" fill="white"/>
<path d="M280.103 214.854H262.221C261.513 216.581 260.794 218.332 260.083 220.082C259.292 222.027 259.292 222.033 257.158 222.038C255.251 222.038 253.34 222.038 251.447 222.038C249.117 222.038 248.692 221.427 249.551 219.306C250.693 216.484 251.858 213.671 253.026 210.859C257.205 200.782 261.388 190.706 265.574 180.629C265.72 180.278 265.874 179.93 265.997 179.57C266.393 178.402 267.139 177.856 268.432 177.925C270.144 178.023 271.861 178.023 273.572 177.925C275.086 177.828 275.911 178.447 276.457 179.818C277.91 183.47 279.447 187.091 280.951 190.724C284.883 200.216 288.814 209.708 292.745 219.2C292.868 219.485 293.031 219.771 293.111 220.079C293.493 221.276 293.085 221.993 291.866 222.021C289.321 222.081 286.774 222.021 284.23 222.056C283.176 222.073 282.802 221.402 282.473 220.611C281.697 218.732 280.929 216.855 280.103 214.854ZM277.082 206.424C275.369 202.14 273.704 197.997 272.002 193.859C271.859 193.514 271.431 193.288 271.114 193.003C270.089 194.205 265.931 204.194 265.508 206.424H277.082Z" fill="white"/>
<path d="M205.756 222.792C200.194 222.892 195.476 221.679 191.461 218.395C190.108 217.284 188.983 215.859 187.9 214.462C187.072 213.394 187.186 212.786 188.209 212.027C189.736 210.884 191.313 209.813 192.923 208.8C194.008 208.114 194.534 208.209 195.391 209.208C198.703 213.063 202.992 213.977 207.784 213.346C208.408 213.237 209.007 213.012 209.549 212.683C211.628 211.515 212.753 208.905 210.143 206.775C209.354 206.14 208.473 205.629 207.53 205.259C205.114 204.296 202.655 203.443 200.211 202.554C198.113 201.815 196.142 200.756 194.368 199.413C188.429 194.844 187.963 184.204 196.059 179.601C202.652 175.846 211.927 176.488 217.741 181.811C218.329 182.391 218.883 183.004 219.401 183.647C220.017 184.353 219.952 185.101 219.278 185.664C217.764 186.923 216.199 188.119 214.632 189.313C214.001 189.793 213.33 189.73 212.704 189.236C212.307 188.922 211.922 188.588 211.508 188.294C208.781 186.34 205.771 186.058 202.624 186.926C201.345 187.277 200.319 188.025 200.151 189.496C199.971 191.106 200.751 192.249 202.15 192.84C204.434 193.805 206.799 194.536 209.072 195.501C211.459 196.515 213.886 197.5 216.108 198.828C220.546 201.464 222.316 205.599 221.819 210.627C221.288 215.97 218.458 219.7 213.355 221.567C210.76 222.521 208.075 222.964 205.756 222.792Z" fill="white"/>
<path d="M319.828 242.848H310.162C309.777 241.309 309.674 159.618 310.048 157.202C310.576 157.118 311.108 157.062 311.641 157.034C313.735 157.011 315.835 157.011 317.941 157.034C319.76 157.051 319.908 157.194 319.94 158.981C319.974 162.408 319.993 165.839 319.997 169.276C319.997 188.597 319.997 207.92 319.997 227.245C319.997 231.759 319.968 236.271 319.94 240.783C319.934 241.389 319.871 242.008 319.828 242.848Z" fill="white"/>
<path d="M89.7086 242.853H80.3764C79.9481 241.425 79.8424 159.466 80.2851 157.148C83.4232 156.949 86.5707 156.951 89.7086 157.153C89.7657 157.813 89.8399 158.296 89.8457 158.798C89.9427 171.24 90.0655 183.682 90.1312 196.124C90.1769 207.175 90.1769 218.228 90.1312 229.283C90.0941 233.715 89.8599 238.147 89.7086 242.853Z" fill="white"/>
<path d="M233.5 187.287C230.545 187.287 227.82 187.241 225.096 187.287C221.815 187.358 221.569 186.967 221.669 183.883C221.709 182.486 221.641 181.087 221.692 179.691C221.738 178.397 222.146 178.023 223.426 177.94C223.808 177.914 224.191 177.94 224.568 177.94H252.433C252.941 177.94 253.452 177.923 253.958 177.966C254.832 178.043 255.423 178.537 255.446 179.411C255.5 181.504 255.523 183.606 255.446 185.693C255.408 186.79 254.789 187.244 253.475 187.264C250.994 187.301 248.512 187.264 246.033 187.264H243.7V189.414C243.7 199.266 243.7 209.117 243.7 218.967C243.7 219.409 243.718 219.855 243.7 220.3C243.629 221.685 243.378 221.979 241.987 222.014C239.76 222.054 237.532 222.051 235.308 222.014C233.934 221.991 233.617 221.668 233.512 220.352C233.472 219.846 233.497 219.335 233.497 218.827C233.497 209.102 233.497 199.379 233.497 189.657L233.5 187.287Z" fill="white"/>
</svg>
