<svg width="400" height="400" viewBox="0 0 400 400" fill="none" xmlns="http://www.w3.org/2000/svg">
<g clip-path="url(#clip0)">
<path d="M142.234 131.489C146.281 131.255 150.336 131.092 154.376 130.774C160.869 130.261 167.344 129.539 173.841 129.105C181.734 128.581 189.489 129.192 196.467 133.4C201.661 136.531 205.346 140.929 206.792 147.06C206.328 146.482 205.795 145.946 205.417 145.326C203.268 141.758 200.089 139.617 196.114 138.538C189.671 136.791 183.224 137.19 176.731 138.315C168.668 139.71 160.592 140.097 152.563 137.991C149.111 137.086 145.892 135.693 143.244 133.248C142.769 132.81 142.595 132.051 142.275 131.44L142.234 131.489Z" fill="white"/>
<path d="M208.734 159.551C206.868 156.925 205.052 154.597 202.226 153.278C197.423 151.031 192.534 151.076 187.545 152.495C183.031 153.777 178.544 155.224 173.956 156.156C168.917 157.179 163.932 156.663 159.355 154.012C158.706 153.647 158.09 153.224 157.518 152.748C156.657 152.012 156.743 151.48 157.784 151.22C166.168 149.124 174.505 146.777 182.981 145.087C187.551 144.176 192.327 144.255 196.915 145.991C202.923 148.263 206.819 152.472 209.079 158.331C209.134 158.535 209.144 158.748 209.108 158.956C209.101 159.046 209.004 159.131 208.734 159.551Z" fill="white"/>
<path d="M213.027 194.14C213.938 192.241 214.676 190.235 215.795 188.464C218.632 183.964 221.78 179.656 224.546 175.114C229.05 167.718 231.878 159.74 231.512 150.969C231.384 147.925 230.554 144.91 230.054 141.881C229.936 141.176 229.849 140.467 229.748 139.762L229.704 139.802C232.694 141.372 234.245 144.133 235.584 147.006C237.84 151.846 237.829 156.875 236.532 161.951C234.83 168.794 231.442 175.108 226.672 180.324C222.579 184.804 218.258 189.081 214.023 193.426C213.74 193.715 213.32 193.871 212.965 194.09L213.027 194.14Z" fill="white"/>
<path d="M208.561 176.459C208.174 186.25 205.377 195.271 199.463 203.176C196.901 206.6 193.879 209.646 189.867 211.461C183.816 214.189 178.803 213.339 174.177 209.164C173.901 208.918 173.744 208.538 173.533 208.22C173.896 208.054 174.246 207.781 174.624 207.737C177.144 207.446 179.736 207.484 182.174 206.887C188.944 205.234 193.85 200.789 197.971 195.494C202.938 189.109 206.346 181.956 207.796 173.95C207.89 173.544 208.023 173.148 208.193 172.767C208.224 172.728 208.265 172.698 208.312 172.68C208.358 172.662 208.409 172.656 208.458 172.663C208.625 172.744 208.906 172.889 208.898 172.989C208.811 174.145 208.679 175.301 208.561 176.459Z" fill="white"/>
<path d="M270.393 111.25C268.969 116.837 265.6 120.346 260.344 121.932C257.395 122.822 254.308 123.249 251.286 123.901C249.309 124.328 247.286 124.629 245.374 125.249C241.839 126.405 238.846 128.374 236.941 131.708C236.534 132.42 235.972 133.045 235.121 134.191C235.396 130.232 236.018 126.985 237.525 123.947C239.546 119.872 243.004 117.396 247.225 116.178C250.685 115.18 254.31 114.733 257.876 114.113C259.975 113.747 262.14 113.656 264.204 113.194C266.162 112.766 268.044 112.007 270.393 111.25Z" fill="white"/>
<path d="M166.062 169.813C171.963 166.623 177.382 163.667 182.824 160.758C187.04 158.506 191.502 157.136 196.35 157.556C203.201 158.151 206.983 162.598 208.508 168.476C208.634 168.958 208.526 169.501 208.526 170.417C208.047 169.856 207.812 169.669 207.692 169.426C205.081 164.163 200.753 162.122 195.094 163.839C192.56 164.61 190.151 165.837 187.769 167.022C184.042 168.879 180.357 170.779 176.174 171.49C172.662 172.081 169.478 171.224 166.062 169.813Z" fill="white"/>
<path d="M104.753 290.083C104.218 290.083 103.681 290.11 103.148 290.083C102.097 290.017 101.049 289.917 100 289.831C100.141 288.95 100.403 288.07 100.407 287.189C100.438 281.764 100.432 276.337 100.388 270.911C100.388 270.122 100.173 269.336 100.056 268.566C100.894 268.5 101.737 268.346 102.576 268.387C105.45 268.521 108.391 268.387 111.18 268.965C119.466 270.699 121.398 279.205 117.785 284.879C115.613 288.293 112.18 289.653 108.288 290.021C107.125 290.131 105.935 290.039 104.758 290.039L104.753 290.083ZM104.336 279.249C104.336 280.74 104.336 282.23 104.336 283.721C104.324 287.665 104.574 287.865 108.528 287.014C109.156 286.879 109.808 286.798 110.399 286.571C112.725 285.677 114.624 284.145 115.037 281.681C116.074 275.5 113.795 270.964 106.613 271.423C106.4 271.445 106.186 271.451 105.972 271.442C104.675 271.329 104.307 272.02 104.326 273.176C104.361 275.203 104.336 277.236 104.336 279.249Z" fill="white"/>
<path d="M282.696 274.234C283.684 279.449 281.946 284.759 284.006 289.948H278.943C280.372 286.407 280.329 271.8 278.922 268.6C281.548 267.922 283.426 268.432 285.155 270.876C288.344 275.378 291.992 279.559 295.841 284.362C295.841 279.671 295.841 275.523 295.841 271.375C295.822 271.057 295.75 270.745 295.628 270.452C294.878 268.365 294.874 268.35 296.891 268.348C297.822 268.348 298.752 268.427 300.01 268.484C299.463 269.511 298.886 270.186 298.754 270.937C298.56 272.078 298.657 273.27 298.653 274.44C298.64 279.336 298.665 284.231 298.613 289.127C298.593 290.907 297.971 291.219 296.504 290.146C295.469 289.394 294.538 288.509 293.734 287.516C290.28 283.189 286.9 278.804 283.479 274.451C283.378 274.345 283.122 274.345 282.696 274.234Z" fill="white"/>
<path d="M238.828 277.456C238.966 277.565 239.114 277.662 239.268 277.747C241.929 278.677 243.199 280.748 243.222 283.348C243.245 285.897 241.561 287.665 239.39 288.829C238.377 289.372 237.192 289.837 236.064 289.889C233 290.033 229.924 289.939 227.1 289.939C227.313 288.397 227.652 286.974 227.681 285.546C227.759 281.398 227.724 277.248 227.71 273.098C227.71 271.847 227.904 270.593 226.935 269.468C226.315 268.749 226.935 268.285 227.699 268.312C230.788 268.445 233.88 268.587 236.964 268.824C238.991 268.98 240.34 270.208 240.925 272.069C241.522 273.968 240.894 275.591 239.255 276.795C239.101 276.916 239.028 277.142 238.828 277.456ZM231.595 283.143H231.606C231.606 283.781 231.606 284.419 231.606 285.057C231.629 287.107 231.63 287.12 233.659 287.27C234.297 287.339 234.941 287.334 235.578 287.255C237.493 286.945 238.96 285.635 239.2 284.114C239.476 282.38 238.44 280.76 236.487 279.905C236.004 279.678 235.498 279.504 234.977 279.386C232.234 278.847 231.585 279.398 231.6 282.188C231.595 282.506 231.595 282.823 231.595 283.143ZM231.558 274.053C231.558 277.261 232.256 277.714 235.256 276.398C235.351 276.356 235.45 276.323 235.547 276.275C236.878 275.589 237.53 274.348 237.173 273.192C236.7 271.651 234.721 270.674 232.727 270.961C231.04 271.206 231.721 272.502 231.564 273.431C231.546 273.638 231.544 273.846 231.558 274.053Z" fill="white"/>
<path d="M222.275 124.346C220.748 122.612 219.635 120.853 218.087 119.666C214.404 116.839 211.642 116.968 207.603 119.057C204.335 120.748 202.228 123.623 203.071 127.742C203.129 128.026 202.827 128.38 202.683 128.706C202.472 128.501 202.176 128.336 202.063 128.087C200.047 123.635 201.666 117.49 205.971 114.369C211.32 110.487 218.602 109.772 224.558 113.968C225.766 114.816 226.793 115.972 227.687 117.146C229.377 119.361 229.295 119.527 226.524 119.976C225.111 120.203 224.229 121.066 223.471 122.095C222.981 122.764 222.68 123.563 222.275 124.346Z" fill="white"/>
<path d="M212.964 194.088C213.003 194.4 213.136 194.733 213.069 195.02C212.016 199.44 210.913 203.848 209.872 208.27C208.903 212.411 207.795 216.532 205.354 220.075C203.804 222.329 201.895 224.35 200.057 226.396C199.54 226.975 198.925 226.801 198.745 225.89C198.177 223.033 198.388 220.196 199.043 217.397C201.133 208.476 205.827 201.02 212.185 194.51C212.379 194.308 212.741 194.259 213.026 194.14L212.964 194.088Z" fill="white"/>
<path d="M171.221 290.087C170.046 290.087 169.015 290.087 167.984 290.087C165.763 290.072 165.809 290.087 166.362 287.862C166.555 287.053 166.524 286.174 166.528 285.328C166.546 281.708 166.538 278.088 166.538 274.465C166.538 273.402 166.66 272.317 166.488 271.279C166.342 270.392 165.858 269.562 165.371 268.319C168.815 268.541 171.986 267.971 175.15 268.739C177.836 269.391 179.414 270.859 179.708 273.026C180.04 275.519 179.057 277.377 176.894 278.635C176.345 278.955 175.768 279.228 174.981 279.639C177.526 282.874 179.633 286.305 183.091 288.588C183.412 288.8 183.62 289.181 183.881 289.486C183.459 289.679 183.048 290.031 182.61 290.064C180.338 290.257 178.447 289.659 177.035 287.671C175.19 285.066 173.18 282.579 171.23 280.047C170.649 279.276 170.612 278.723 171.678 278.409C172.408 278.231 173.122 277.99 173.81 277.689C175.59 276.808 176.588 274.743 176.049 273.205C175.491 271.608 173.097 270.47 171.203 271.044C170.752 271.18 170.174 271.888 170.168 272.34C170.098 277.128 170.077 281.918 170.182 286.706C170.19 287.711 170.771 288.702 171.221 290.087Z" fill="white"/>
<path d="M142.284 131.432C129.519 131.207 122.072 122.635 120.907 113.445C120.793 112.547 120.81 111.634 120.732 110C123.178 112.747 125.752 114.112 128.292 115.576C132.24 117.855 135.196 121.219 137.772 124.913C139.287 127.086 140.753 129.294 142.241 131.488L142.284 131.432Z" fill="white"/>
<path d="M135.472 289.966H130.084C133.356 284.748 134.949 279.074 137.166 273.662C137.738 272.267 138.963 270.917 138.015 269.181C137.94 269.044 138.263 268.47 138.422 268.46C139.694 268.393 141.025 268.198 142.225 268.495C142.834 268.643 143.353 269.664 143.669 270.394C145.187 273.895 146.613 277.435 148.084 280.957C149.337 283.953 150.153 287.162 153.079 290.076C150.614 290.076 148.84 290.101 147.071 290.037C146.904 290.037 146.565 289.426 146.631 289.185C147.34 286.54 145.317 284.669 144.693 282.409C144.634 282.197 143.993 282.037 143.621 282.024C141.611 281.993 139.599 281.985 137.589 282.055C137.263 282.066 136.794 282.44 136.662 282.77C135.98 284.438 135.284 286.114 134.819 287.848C134.674 288.411 135.205 289.158 135.472 289.966ZM143.495 279.109C142.526 276.635 141.682 274.475 140.682 271.922L137.913 279.109H143.495Z" fill="white"/>
<path d="M262.327 126.14C261.777 127.167 261.281 128.229 260.664 129.223C258.3 133.005 255.127 135.644 250.518 136.265C249.254 136.436 248.023 136.843 246.759 137.036C243.143 137.571 240.007 138.949 237.626 142.654C237.099 139.417 238.227 137.244 239.241 135.14C240.598 132.329 242.949 130.454 245.934 129.537C247.981 128.938 250.062 128.462 252.167 128.111C255.491 127.518 258.875 127.208 261.965 125.606L262.327 126.14Z" fill="white"/>
<path d="M156.633 151.825C149.541 152.484 143.604 151.393 138.735 146.538C135.828 143.648 134.527 139.972 133.308 136.232C133.238 136.012 133.457 135.654 133.63 135.427C133.694 135.344 134.047 135.402 134.211 135.49C137.797 137.348 141.447 139.095 144.936 141.118C149.415 143.717 152.869 147.461 156.633 151.825Z" fill="white"/>
<path d="M229.747 139.758C225.948 136.868 221.724 134.98 216.954 134.38C216.423 134.315 215.888 134.188 215.363 134.217C211.427 134.438 209.073 134.554 207.459 139.804C205.344 138.008 204.193 135.887 204.424 133.199C204.664 130.423 206.529 128.928 208.961 127.949C212.221 126.635 215.474 126.876 218.625 128.173C224.029 130.396 227.708 134.325 229.702 139.798L229.747 139.758Z" fill="white"/>
<path d="M208.976 271.842C206.844 271.692 204.974 271.516 203.098 271.457C202.642 271.441 201.795 271.778 201.774 272.011C201.653 273.489 201.635 274.974 201.722 276.454C201.733 276.67 202.332 276.994 202.691 277.032C203.54 277.113 204.404 277.017 205.259 277.055C207.003 277.131 207.282 277.472 207.215 279.152C207.174 280.134 206.848 280.308 205.804 280.125C201.621 279.354 201.609 279.418 201.627 283.689C201.638 286.889 201.638 286.889 204.922 287.252C207.089 287.49 208.19 287.225 211.469 285.637C211.675 286.903 210.965 287.878 210.674 288.932C210.442 289.772 209.87 290.099 209.007 290.088C205.366 290.074 201.724 290.105 198.082 290.076C197.339 290.076 196.954 289.752 197.266 288.851C197.634 287.781 197.994 286.648 198.016 285.537C198.101 281.281 198.091 277.019 198.016 272.763C198.002 271.721 197.772 270.694 197.339 269.746C196.849 268.709 197.122 268.335 198.115 268.324C200.886 268.293 203.658 268.299 206.43 268.324C208.794 268.347 208.788 268.37 208.839 270.805C208.863 271.153 208.909 271.499 208.976 271.842Z" fill="white"/>
<path d="M199.822 208.041C198.407 211.777 197.236 215.629 195.515 219.216C193.302 223.84 189.506 226.871 184.531 228.383C182.777 228.917 182.376 228.624 182.573 226.867C182.932 223.698 184.318 220.95 186.322 218.534C187.538 217.047 188.888 215.673 190.355 214.43C193.21 212.043 196.191 209.806 199.12 207.494L199.822 208.041Z" fill="white"/>
<path d="M165.918 169.596C159.436 171.387 154.439 169.48 150.131 165.536C147.767 163.349 146.01 160.593 145.029 157.535C144.946 157.284 144.977 156.854 145.138 156.71C145.299 156.565 145.719 156.604 145.973 156.698C147.766 157.363 149.507 158.193 151.336 158.727C155.463 159.927 158.878 162.176 161.791 165.262C163.022 166.569 164.266 167.862 165.918 169.596Z" fill="white"/>
<path d="M263.162 289.953H258.092C258.285 288.184 258.601 286.562 258.634 284.943C258.716 281.019 258.725 277.09 258.634 273.166C258.607 271.956 258.26 270.73 257.904 269.557C257.626 268.644 258.055 268.401 258.768 268.349C259.408 268.315 260.049 268.327 260.687 268.385C261.515 268.441 262.565 268.256 263.116 268.686C264.073 269.439 262.456 269.983 262.581 270.842C262.683 271.564 262.532 272.32 262.532 273.062C262.532 277.198 262.488 281.346 262.569 285.475C262.602 286.901 262.939 288.329 263.162 289.953Z" fill="white"/>
<path d="M254.184 140.029C254.048 140.449 253.99 140.653 253.918 140.848C252.347 144.58 249.761 147.139 245.756 148.289C243.537 148.919 241.066 148.726 239.128 150.358C238.558 150.836 238.108 150.202 238.24 149.62C239.118 145.767 241 142.732 245.138 141.678C247.811 140.998 250.495 140.366 253.188 139.752C253.482 139.692 253.847 139.931 254.184 140.029Z" fill="white"/>
<path d="M208.459 251.209C207.213 251.383 206.271 251.963 205.164 250.824C204.149 249.786 204.276 248.705 204.674 247.589C205.147 246.241 205.769 244.961 206.443 243.376C204.809 243.555 204.62 244.639 204.032 245.302C203.854 245.505 203.53 245.582 203.274 245.716C203.224 245.345 203.017 244.892 203.158 244.616C203.455 244.054 203.849 243.547 204.321 243.119C204.903 242.582 205.523 241.563 206.44 242.366C207.091 242.944 207.54 243.828 207.851 244.663C208 245.065 207.647 245.674 207.463 246.171C207.217 246.873 206.845 247.541 206.676 248.256C206.531 248.87 205.463 249.633 206.583 250.092C206.982 250.256 208.037 249.606 208.343 249.075C209.118 247.713 209.678 246.217 210.281 244.755C210.52 244.177 210.494 243.443 210.841 242.957C211.078 242.626 211.752 242.603 212.231 242.443C212.351 242.878 212.663 243.364 212.562 243.74C211.88 246.302 211.206 248.876 210.341 251.379C209.566 253.597 207.597 254.859 205.358 254.641C204.583 254.566 203.761 254.063 203.183 253.508C202.951 253.29 203.228 252.398 203.474 251.915C203.538 251.786 204.521 251.861 204.784 252.13C206.186 253.56 206.432 253.658 207.626 252.516C207.996 252.19 208.188 251.656 208.459 251.209Z" fill="white"/>
<path d="M156.89 245.684C156.959 240.891 162.299 237.194 166.746 238.889C167.257 239.082 167.672 239.442 168.036 238.748C168.333 238.904 168.901 239.101 168.883 239.207C168.746 240.04 168.546 240.863 168.287 241.667C168.137 242.139 167.845 242.968 167.651 242.958C166.637 242.91 167.155 242.085 167.048 241.529C166.796 240.209 165.928 239.394 164.571 239.637C163.468 239.829 162.144 240.122 161.421 240.858C159.448 242.87 158.838 245.523 159.305 248.231C159.692 250.528 162.567 251.062 164.344 249.243C165.073 248.497 165.554 247.509 166.182 246.665C166.257 246.598 166.347 246.549 166.444 246.522C166.542 246.495 166.644 246.492 166.744 246.511C166.908 246.549 167.158 246.763 167.158 246.896C167.135 249.715 162.968 252.372 160.287 251.295C158.12 250.422 156.849 248.336 156.89 245.684Z" fill="white"/>
<path d="M252.459 243.413C250.152 243.068 249.551 244.024 249.319 245.43C249.063 246.997 248.828 248.575 248.419 250.105C247.942 251.893 247.004 253.42 245.248 254.297C244.306 254.767 243.401 254.821 242.587 254.06C241.955 253.467 241.757 252.817 242.529 252.178C243.182 251.636 243.787 251.779 243.998 252.563C244.386 254.008 245.083 253.264 245.49 252.735C245.921 252.142 246.211 251.46 246.337 250.74C246.745 248.666 247.084 246.578 247.355 244.477C247.404 244.103 246.94 243.681 246.787 243.255C246.7 243.014 246.704 242.498 246.768 242.485C248.696 241.978 249.039 239.722 250.724 238.965C251.594 238.579 252.488 238.001 253.34 238.886C253.641 239.2 253.941 239.824 253.823 240.157C253.587 240.816 252.811 241.205 252.346 240.517C251.183 238.795 250.865 240.408 250.408 240.97C249.609 241.934 250.571 242.147 251.183 242.477C251.363 242.571 251.52 242.718 252.459 243.413Z" fill="white"/>
<path d="M229.184 247.548C229.226 245.273 231.354 242.658 233.516 242.142C235.578 241.651 237.78 243.951 237.423 246.34C237.183 247.926 236.547 249.436 235.194 250.396C234.122 251.157 233.062 252.072 231.449 251.332C229.693 250.523 229.486 249.009 229.184 247.548ZM235.793 245.254C235.312 244.483 235.055 243.626 234.692 243.579C234.068 243.5 233.008 243.737 232.787 244.171C232.095 245.571 231.569 247.047 231.219 248.567C231.114 248.999 231.663 249.982 232.025 250.043C232.607 250.142 233.62 249.881 233.886 249.436C234.669 248.121 235.182 246.639 235.793 245.254Z" fill="white"/>
<path d="M192.922 250.118C193.533 249.415 194.13 248.7 194.768 248.022C194.851 247.933 195.184 247.964 195.306 248.058C195.429 248.153 195.549 248.492 195.483 248.569C194.677 249.532 193.955 250.621 192.963 251.353C191.971 252.085 190.308 250.896 190.443 249.511C190.567 248.162 191.044 246.848 191.347 245.515C191.519 244.758 192.137 244.03 191.124 243.269C190.682 242.937 193.312 239.562 193.924 239.756C194.258 239.86 194.754 240.334 194.717 240.56C194.591 241.33 194.39 241.997 195.275 242.463C195.376 242.515 195.314 243.166 195.258 243.176C192.932 243.61 193.432 245.727 192.886 247.174C192.562 248.029 192.542 248.997 192.387 249.914L192.922 250.118Z" fill="white"/>
<path d="M175.268 245.435C175.812 244.62 176.279 243.739 176.925 243.011C177.471 242.396 178.282 241.662 179.115 242.304C179.706 242.761 180.278 243.653 180.278 244.362C180.278 245.483 179.828 246.612 179.503 247.722C179.278 248.492 178.95 249.248 178.578 250.255C180.104 250.063 180.369 248.907 181.044 248.217C181.191 248.065 181.567 248.13 181.836 248.096C181.836 248.375 181.951 248.726 181.821 248.92C181.419 249.542 180.957 250.123 180.441 250.654C179.846 251.252 179.208 251.837 178.208 251.367C177.06 250.828 176.7 249.926 176.907 248.766C177.028 248.253 177.203 247.754 177.429 247.277C177.667 246.699 178.026 246.138 178.175 245.543C178.332 244.901 178.303 244.215 178.353 243.549C177.902 243.934 177.442 244.296 176.996 244.682C176.551 245.067 176.163 245.441 175.748 245.82L175.268 245.435Z" fill="white"/>
</g>
<defs>
<clipPath id="clip0">
<rect width="200" height="180.769" fill="white" transform="translate(100 110)"/>
</clipPath>
</defs>
</svg>
