<svg width="400" height="400" viewBox="0 0 400 400" fill="none" xmlns="http://www.w3.org/2000/svg">
<path d="M324.464 173.735C322.473 172.934 320.708 172.095 318.88 171.513C314.902 170.261 310.87 169.165 306.886 167.929C306.113 167.688 305.449 167.093 304.551 166.552C305.643 165.131 306.798 164.711 308.147 164.674C315.85 164.495 323.588 164.107 331.078 166.395C333.44 167.1 335.676 168.172 337.704 169.572C340.387 171.472 340.671 173.169 338.803 175.926C337.412 177.964 335.698 179.761 333.729 181.247C327.96 185.582 321.522 188.806 314.836 191.442C311.312 192.825 307.722 194.036 304.153 195.304C303.293 195.612 302.415 195.867 301.524 196.068C300.272 196.337 298.904 196.199 298.563 194.913C298.366 194.171 299.017 192.894 299.684 192.302C300.936 191.185 302.469 190.381 303.897 189.463C309.612 185.795 315.362 182.18 321.03 178.44C322.511 177.472 324.095 176.408 324.464 173.735Z" fill="white"/>
<path d="M251.539 200.027H246.349C246.09 199.455 245.824 198.744 245.464 198.084C243.767 194.954 238.891 194.716 236.903 197.655C235.826 199.251 236.183 201.411 237.876 202.413C239.1 203.136 240.49 203.577 241.814 204.122C243.867 204.964 245.939 205.759 247.98 206.626C253.717 209.064 253.198 216.842 250.055 219.934C246.493 223.434 238.03 224.476 233.911 221.647C231.216 219.8 229.344 217.421 229.695 213.646H234.909C235.892 215.324 236.074 217.715 238.75 218.41C240.844 218.955 242.615 218.776 244.362 217.712C247.038 216.081 247.207 213.124 244.647 211.336C243.604 210.607 242.302 210.238 241.094 209.771C239.153 209.004 237.135 208.407 235.253 207.521C232.045 206.009 230.076 203.452 230.133 199.824C230.192 196.068 232.637 193.01 236.74 192.08C239.527 191.448 242.407 191.342 245.232 191.767C249.551 192.459 251.22 194.957 251.539 200.027Z" fill="white"/>
<path d="M283.569 231.468H278.429C277.697 228.209 277.622 203.445 278.332 199.429C280.348 199.307 282.621 198.114 283.747 200.994C285.341 200.196 286.877 199.053 288.561 198.659C291.873 197.895 296.318 199.053 298.333 204.067C300.502 209.464 300.108 214.819 296.875 219.771C294.759 223.004 289.05 224.209 285.582 222.25C285.028 221.937 284.567 221.455 283.569 220.657V231.468ZM283.074 210.709C283.585 212.932 283.898 214.979 284.533 216.922C285.494 219.849 291.504 219.777 292.643 216.904C294.145 213.119 294.427 209.251 292.812 205.507C291.197 201.764 286.956 201.401 284.849 204.9C283.832 206.584 283.635 208.769 283.074 210.709Z" fill="white"/>
<path d="M323.157 212.097H307.46C306.834 213.975 306.918 215.49 307.848 216.87C309.814 219.793 314.327 220.801 316.866 216.642C318.553 213.878 319.204 213.762 322.456 215.318C321.42 220.373 318.678 222.83 313.739 223.096C312.825 223.146 311.904 223.143 310.991 223.096C306.608 222.942 303.516 220.905 302.036 216.729C300.536 212.5 300.633 208.278 302.64 204.209C304.831 199.786 308.587 198.187 313.313 198.481C317.751 198.757 320.593 201.195 321.88 205.345C322.478 207.295 322.656 209.358 323.157 212.097ZM316.859 208.406C316.991 204.153 315.388 202.306 311.958 202.55C308.674 202.782 307.169 204.785 307.641 208.406H316.859Z" fill="white"/>
<path d="M269.29 199.373H274.392C275.153 202.597 275.212 218.936 274.476 222.654C272.329 223.114 270.204 223.537 268.842 220.776C266.598 222.588 264.226 223.368 261.456 223.086C258.391 222.773 256.325 221.308 255.267 218.451C254.904 217.477 254.507 216.444 254.476 215.43C254.363 211.64 254.388 207.846 254.369 204.056C254.369 202.641 254.369 201.239 254.369 199.508H260.034C260.034 203.492 259.972 207.377 260.066 211.258C260.132 212.943 260.351 214.62 260.72 216.266C261.033 217.831 262.103 218.745 263.747 218.864C265.39 218.983 267.046 218.692 267.816 217.111C268.568 215.614 269.041 213.992 269.212 212.325C269.437 209.464 269.284 206.575 269.29 203.699V199.373Z" fill="white"/>
<path d="M88.8662 222.754H84.8786L81.157 214.657H67.2221L63.9168 222.629H59.7852C60.4456 221.011 60.9214 219.849 61.394 218.685C64.524 210.964 67.654 203.233 70.7841 195.492C71.0313 194.888 71.36 194.315 71.5791 193.701C72.0736 192.327 72.9438 191.51 74.4838 191.576C75.8923 191.626 76.512 192.515 76.9878 193.686C80.796 202.688 84.6073 211.689 88.4218 220.691C88.6722 221.261 88.7035 221.922 88.8662 222.754ZM79.6483 210.832C77.8047 206.24 76.0331 201.833 74.033 196.856C72.1394 201.833 70.4898 206.171 68.712 210.832H79.6483Z" fill="white"/>
<path d="M191.482 205.724L188.724 205.539C188.549 205.051 188.364 204.801 188.392 204.578C189.018 199.84 193.914 198.215 197.939 198.537C202.171 198.879 205.345 201.445 205.564 205.536C205.877 211.117 205.639 216.729 205.639 222.294C203.808 223.318 202.703 223.064 202.092 220.883C199.767 222.97 197.028 223.324 194.123 223.118C190.214 222.842 187.51 220.689 186.849 217.217C186.195 213.799 187.942 210.826 191.838 209.392C193.889 208.644 196.133 208.403 198.302 208.012C199.3 207.83 200.333 207.83 201.288 207.752C201.736 204.043 201.063 202.594 198.737 201.934C195.469 201.007 193.594 201.946 191.482 205.724ZM201.642 211.48C198.427 210.898 195.754 211.192 193.191 212.297C191.425 213.061 190.715 214.504 190.79 216.391C190.862 218.2 191.879 219.174 193.504 219.8C197.698 221.409 201.157 219.355 201.642 214.861C201.732 213.84 201.642 212.807 201.642 211.48Z" fill="white"/>
<path d="M166.759 207.771C166.527 204.954 166.336 202.491 163.125 201.858C160.032 201.251 158.502 202.037 156.499 205.489H153.184C153.087 202.894 154.154 201.26 156.045 200.087C159.444 197.983 163.028 197.996 166.552 199.542C168.702 200.481 169.923 202.409 170.268 204.75C170.4 205.92 170.449 207.098 170.415 208.275C170.43 212.97 170.415 217.643 170.415 222.241C168.537 223.315 167.422 223.061 166.743 220.876C164.342 223.208 161.422 223.318 158.423 223.067C154.818 222.779 152.257 220.469 151.675 217.067C151.165 214.109 152.927 210.785 156.057 209.599C158.217 208.779 160.574 208.441 162.868 208.034C164.117 207.805 165.413 207.852 166.759 207.771ZM166.605 211.283C164.665 211.283 162.928 211.023 161.309 211.355C159.659 211.66 158.101 212.338 156.752 213.336C154.752 214.929 155.149 217.978 157.247 219.386C160.978 221.89 165.867 219.649 166.324 215.217C166.436 214.05 166.493 212.873 166.605 211.283Z" fill="white"/>
<path d="M103.804 220.725C101.215 222.428 98.8207 223.304 96.0757 223.017C92.5826 222.647 89.9408 220.425 89.2522 216.988C88.1192 211.307 88.5981 205.582 88.6262 199.491L92.0348 199.288C92.2727 199.973 92.4981 200.33 92.5012 200.69C92.5419 204.089 92.5012 207.488 92.5826 210.885C92.6319 212.444 92.8278 213.995 93.1679 215.517C93.7939 218.403 95.0991 219.586 97.503 219.708C100.21 219.861 102.489 218.456 103.19 215.889C103.691 214.002 103.979 212.066 104.051 210.115C104.186 206.728 104.089 203.332 104.089 199.557L107.41 199.216C107.701 199.886 107.979 200.236 107.982 200.59C108.032 207.125 108.061 213.661 108.067 220.196C108.067 221.426 107.873 222.575 106.358 222.866C104.899 223.145 104.204 222.362 103.804 220.725Z" fill="white"/>
<path d="M109.838 215.326L112.968 215.151C114.758 219.633 117.6 221.076 121.419 219.63C122.906 219.067 123.763 218.065 123.838 216.415C123.907 214.894 123.231 213.911 121.848 213.395C120.464 212.879 119.112 212.525 117.779 212.024C116.198 211.429 114.508 210.969 113.106 210.077C109.694 207.905 109.465 204.002 112.167 201C115.159 197.679 121.666 197.651 124.79 200.29C126.383 201.635 127.638 203.404 126.85 205.836C125.028 206.931 124.089 206.127 123.175 204.471C121.61 201.626 119.106 200.956 116.289 202.365C113.991 203.513 113.716 205.848 115.826 207.332C116.765 207.986 117.942 208.299 119.04 208.691C120.636 209.26 122.352 209.573 123.845 210.337C125.986 211.429 127.795 212.963 127.839 215.702C127.882 218.441 126.646 220.619 124.324 221.865C120.78 223.768 117.006 223.743 113.384 222.028C111.221 221.004 110.605 219.592 109.838 215.326Z" fill="white"/>
<path d="M226.917 222.648H223.621C223.621 219.784 223.621 217.077 223.621 214.372C223.621 212.15 223.69 209.924 223.584 207.708C223.408 204.137 222 202.632 218.717 202.281C215.69 201.968 213.633 203.414 212.857 206.732C212.432 208.634 212.192 210.574 212.14 212.522C212.028 215.771 212.109 219.03 212.109 222.488L209.37 222.83C208.503 219.969 208.306 204.675 209.007 199.761C211.364 199.264 211.364 199.264 212.347 201.236C215.289 199.552 218.175 197.902 221.853 199.06C224.67 199.949 226.664 201.783 226.811 204.503C227.143 210.46 226.917 216.447 226.917 222.648Z" fill="white"/>
<path d="M325.184 222.604V199.945C328.824 198.65 329.425 198.784 330.918 201.044C332.452 200.33 333.901 199.463 335.472 198.972C337.563 198.321 338.367 198.956 338.549 201.107C338.615 201.874 338.474 202.672 338.414 203.692C337.541 203.845 336.693 204.036 335.835 204.143C332.32 204.572 330.93 205.899 330.777 209.401C330.642 212.531 330.727 215.677 330.717 218.816C330.717 219.975 330.717 221.133 330.717 222.613L325.184 222.604Z" fill="white"/>
<path d="M134.275 219.273L138.686 219.987V222.785C137.177 222.854 135.653 223.098 134.166 222.951C131.737 222.722 130.097 221.023 130.081 218.491C129.997 209.992 130.05 201.494 130.05 193.072C133.317 192.133 133.834 192.421 134.031 195.191C134.078 195.842 134.031 196.502 134.059 197.153C134.091 197.663 134.2 198.167 134.303 198.856L138.128 199.4C138.93 202.258 138.679 202.455 134.275 202.218V219.273Z" fill="white"/>
<path d="M176.981 222.871L173.666 222.668C173.569 221.547 173.428 220.661 173.425 219.772C173.41 211.657 173.41 203.542 173.425 195.427C173.409 194.772 173.429 194.117 173.484 193.464C173.619 192.231 174.383 191.424 175.569 191.721C176.27 191.899 176.846 192.757 177.359 193.402C177.557 193.652 177.438 194.162 177.438 194.554C177.438 203.455 177.426 212.357 177.403 221.259C177.394 221.628 177.212 221.998 176.981 222.871Z" fill="white"/>
<path d="M152.478 202.302C152.139 202.401 151.796 202.48 151.448 202.54C146.293 202.981 145.188 204.152 145.129 209.392C145.088 212.788 145.129 216.184 145.11 219.58C145.11 220.481 145.003 221.38 144.944 222.278C144.515 222.506 144.187 222.823 143.845 222.838C143.021 222.829 142.197 222.772 141.379 222.669V199.92C143.589 199.169 143.589 199.169 145.495 200.496C146.747 200.042 148.058 199.495 149.407 199.106C152.312 198.271 152.875 198.847 152.478 202.302Z" fill="white"/>
<path d="M180.534 199.441H184.261V222.209C181.444 223.148 180.609 222.835 180.571 220.525C180.465 213.63 180.534 206.741 180.534 199.441Z" fill="white"/>
<path d="M184.793 194.005C184.818 195.022 183.541 196.214 182.477 196.196C181.413 196.177 180.361 195.003 180.427 193.792C180.492 192.58 181.078 191.817 182.255 191.601C183.432 191.385 184.762 192.687 184.793 194.005Z" fill="white"/>
</svg>
