<svg width="400" height="400" viewBox="0 0 400 400" fill="none" xmlns="http://www.w3.org/2000/svg">
<path d="M283.407 217.762C282.808 217.548 282.79 217.056 282.791 216.534C282.796 209.443 282.796 202.351 282.791 195.258C282.791 191.285 282.791 187.312 282.791 183.339C282.791 182.348 282.962 182.168 283.966 182.166C287.748 182.16 291.534 182.15 295.311 182.175C296.133 182.19 296.952 182.272 297.76 182.423C298.856 182.614 299.619 183.34 300.208 184.225C301.71 186.487 303.194 188.761 304.66 191.046C308.258 196.645 311.848 202.248 315.432 207.856C315.835 208.485 316.237 209.114 316.636 209.743L316.779 209.713V183.644C316.779 182.304 316.922 182.163 318.292 182.163C320.393 182.163 322.493 182.163 324.594 182.163C324.864 182.166 325.133 182.184 325.401 182.219C325.751 182.26 325.936 182.476 325.962 182.824C325.982 183.108 326 183.393 326 183.678C326 194.507 326 205.337 326 216.166C326 216.368 325.982 216.569 325.991 216.771C326.01 217.207 325.854 217.544 325.464 217.76H312.448C312.208 217.713 311.966 217.679 311.723 217.659C310.31 217.612 309.148 217.099 308.339 215.901C307.851 215.179 307.338 214.474 306.871 213.74C302.312 206.573 297.758 199.404 293.207 192.233C292.851 191.673 292.494 191.114 292.137 190.556L292.007 190.585V215.99C292.007 216.293 291.987 216.596 291.995 216.898C292.006 217.302 291.873 217.614 291.47 217.767L283.407 217.762Z" fill="white"/>
<path d="M74.6387 217.761C74 217.497 74 216.937 74 216.375C74 211.832 74 207.289 74 202.745V183.632C74 182.253 74.1009 182.163 75.4943 182.163C78.9065 182.163 82.3188 182.13 85.729 182.181C86.9176 182.211 88.1015 182.34 89.2684 182.568C90.0816 182.718 90.7112 183.294 91.1804 183.967C92.2145 185.451 93.2396 186.944 94.2183 188.465C98.3812 194.937 102.534 201.415 106.677 207.899C107.059 208.527 107.485 209.128 107.952 209.697C107.964 209.48 107.987 209.264 107.987 209.047C107.987 200.614 107.987 192.181 107.987 183.747C107.989 182.287 108.113 182.163 109.557 182.163C111.674 182.163 113.793 182.163 115.914 182.163C116.992 182.166 117.204 182.374 117.204 183.464C117.204 194.48 117.204 205.495 117.204 216.51C117.204 217.005 117.204 217.484 116.692 217.763H103.685C103.497 217.712 103.304 217.678 103.109 217.662C101.506 217.662 100.262 217.038 99.3902 215.669C98.0937 213.632 96.7588 211.621 95.4623 209.586C91.5126 203.38 87.566 197.171 83.6223 190.958C83.5315 190.815 83.4205 190.682 83.3257 190.545L83.2167 190.593V199.127C83.2167 204.943 83.2167 210.761 83.2167 216.582C83.2167 217.048 83.2692 217.539 82.7123 217.766L74.6387 217.761Z" fill="white"/>
<path d="M145.034 217.762C144.916 217.407 144.701 217.056 144.694 216.698C144.661 214.821 144.669 212.943 144.683 211.065C144.691 210.131 144.917 209.933 145.871 209.933C154.577 209.933 163.283 209.933 171.988 209.933C172.224 209.943 172.461 209.929 172.694 209.892C173.199 209.791 173.501 209.488 173.511 208.956C173.521 208.102 173.542 207.241 173.5 206.393C173.456 205.484 172.895 204.89 171.987 204.79C170.535 204.629 169.079 204.504 167.624 204.375C165.534 204.189 163.442 204.015 161.352 203.834C159.595 203.68 157.839 203.52 156.083 203.369C153.806 203.167 151.535 202.941 149.398 202.047C147.183 201.12 145.485 199.668 144.909 197.245C144.682 196.295 144.656 195.291 144.591 194.308C144.471 192.479 144.509 190.66 144.985 188.869C145.844 185.641 147.964 183.677 151.133 182.775C152.759 182.313 154.433 182.17 156.116 182.17C164.536 182.159 172.956 182.157 181.375 182.165C182.262 182.165 182.46 182.339 182.465 183.208C182.476 185.102 182.476 186.997 182.465 188.891C182.459 189.754 182.256 189.944 181.383 189.971C180.846 189.988 180.309 189.971 179.769 189.971H156.677C155.044 189.971 154.622 190.395 154.621 192.023V192.326C154.621 193.816 155.111 194.307 156.616 194.445C159.591 194.714 162.563 195.02 165.539 195.3C168.213 195.552 170.891 195.768 173.564 196.043C175.588 196.251 177.583 196.612 179.435 197.524C181.307 198.445 182.622 199.877 183.247 201.862C184.335 205.317 184.415 208.824 183.449 212.309C182.696 215.015 180.75 216.547 178.094 217.236C177.272 217.45 176.429 217.59 175.595 217.763L145.034 217.762Z" fill="white"/>
<path d="M190.824 217.762C190.723 217.383 190.552 217.005 190.546 216.625C190.517 214.764 190.532 212.903 190.533 211.041C190.533 210.1 190.7 209.932 191.652 209.932H217.775C217.977 209.939 218.179 209.935 218.381 209.919C219.014 209.85 219.359 209.499 219.375 208.867C219.394 208.079 219.403 207.29 219.375 206.503C219.337 205.507 218.741 204.872 217.751 204.778C215.461 204.561 213.168 204.374 210.877 204.163C207.683 203.874 204.493 203.553 201.292 203.294C199.241 203.126 197.22 202.844 195.303 202.065C192.813 201.056 190.98 199.38 190.628 196.616C190.289 193.961 190.138 191.269 190.897 188.634C191.763 185.623 193.77 183.755 196.728 182.846C198.429 182.324 200.185 182.167 201.952 182.165C210.373 182.157 218.793 182.157 227.214 182.165C228.113 182.165 228.324 182.367 228.324 183.25C228.329 185.11 228.329 186.972 228.324 188.833C228.324 189.72 228.113 189.931 227.235 189.972C227.051 189.981 226.866 189.972 226.681 189.972H202.528C200.87 189.972 200.532 190.36 200.473 192.019C200.411 193.774 200.921 194.348 202.655 194.47C205.1 194.643 207.538 194.912 209.978 195.141C212.386 195.367 214.797 195.559 217.198 195.833C219.063 196.047 220.931 196.285 222.768 196.662C224.513 197.02 226.104 197.79 227.366 199.106C228.772 200.571 229.448 202.392 229.711 204.342C229.997 206.371 230.003 208.429 229.73 210.46C229.36 213.112 228.262 215.329 225.718 216.575C224.515 217.164 223.224 217.459 221.912 217.65C221.768 217.678 221.626 217.716 221.487 217.762H190.824Z" fill="white"/>
<path d="M269.084 217.762C268.653 217.56 268.411 217.21 268.23 216.77C267.437 214.853 266.608 212.948 265.808 211.032C265.682 210.729 265.537 210.602 265.189 210.603C258.668 210.614 252.147 210.614 245.626 210.603C245.281 210.603 245.122 210.721 244.998 211.027C244.191 212.958 243.358 214.877 242.557 216.809C242.334 217.347 241.991 217.584 241.407 217.581C238.533 217.568 235.656 217.581 232.785 217.574C231.764 217.574 231.553 217.249 231.972 216.303C235.014 209.43 238.06 202.558 241.107 195.688C242.811 191.844 244.513 188.002 246.214 184.163C246.255 184.071 246.306 183.983 246.341 183.889C246.767 182.728 247.632 182.248 248.837 182.254C253.069 182.266 257.302 182.266 261.535 182.278C261.872 182.285 262.207 182.317 262.538 182.372C263.345 182.493 264.005 182.865 264.354 183.639C265.248 185.641 266.118 187.654 267.014 189.655C270.837 198.197 274.663 206.739 278.491 215.282C278.763 215.892 279.042 216.503 279.265 217.132C279.328 217.31 279.209 217.553 279.173 217.767L269.084 217.762ZM262.47 203.081C262.39 202.868 262.337 202.713 262.274 202.562C261.521 200.736 260.761 198.913 260.016 197.084C259.169 195.008 258.328 192.929 257.494 190.846C257.254 190.249 256.872 189.927 256.194 189.968C255.641 190.003 255.084 189.976 254.53 189.976C254.054 189.976 253.742 190.215 253.561 190.642C251.903 194.556 250.246 198.471 248.588 202.385C248.498 202.596 248.43 202.817 248.335 203.081H262.47Z" fill="white"/>
<path d="M125.84 199.803C125.84 194.305 125.84 188.806 125.84 183.308C125.84 182.268 125.946 182.164 126.997 182.164C129.651 182.164 132.306 182.164 134.961 182.164C135.912 182.164 136.187 182.431 136.218 183.382C136.228 183.685 136.218 183.987 136.218 184.29C136.218 194.85 136.218 205.411 136.218 215.971C136.218 217.535 136.175 217.577 134.615 217.577H127.157C125.952 217.577 125.845 217.476 125.845 216.249C125.841 210.767 125.839 205.285 125.84 199.803Z" fill="white"/>
</svg>
