<svg width="400" height="400" viewBox="0 0 400 400" fill="none" xmlns="http://www.w3.org/2000/svg">
<g clip-path="url(#clip0)">
<path d="M88.0273 209.296C88.4255 197.946 88.8953 184.5 89.3889 171.057C89.4133 170.097 89.5272 169.142 89.7293 168.203C90.3454 165.512 91.7717 164.565 94.2055 166.32C96.3636 167.879 98.532 169.43 100.598 171.119C106.95 176.302 113.346 181.411 119.545 186.77C124.379 190.943 124.882 191.064 130.053 186.804C137.256 180.867 144.479 174.951 151.723 169.057C152.904 168.096 154.126 167.184 155.372 166.293C157.823 164.565 159.232 165.401 159.705 168.228C159.995 169.737 160.19 171.264 160.287 172.798C160.818 186.618 161.278 200.455 161.819 214.281C161.976 218.31 162.405 222.328 162.551 226.373C162.769 232.295 161.928 233.204 156.322 233.335C153.101 233.411 149.878 233.425 146.658 233.335C141.269 233.176 140.639 232.478 140.381 226.819C140.18 222.404 140.173 217.968 139.751 213.573C139.288 208.767 138.512 208.505 134.696 211.417C132.276 213.269 129.845 215.124 127.588 217.169C124.773 219.723 122.288 219.505 119.637 216.935C117.702 215.094 115.667 213.364 113.544 211.752C110.936 209.735 109.843 210.132 109.605 213.393C109.265 218.182 109.326 223.005 109.027 227.797C108.686 232.955 108.267 233.342 103.308 233.521C100.282 233.632 97.2419 233.625 94.2157 233.521C88.8102 233.376 88.1396 232.689 88.0443 226.985C87.9558 221.792 88.0273 216.599 88.0273 209.296Z" fill="white"/>
<path d="M311.91 200.025C311.91 209.063 311.978 218.101 311.886 227.139C311.829 232.712 311.1 233.379 305.548 233.513C301.95 233.6 298.345 233.624 294.751 233.486C290.04 233.306 289.277 232.501 289.093 227.571C288.954 223.729 289.127 219.877 288.964 216.035C288.763 211.236 287.943 210.459 283.15 210.259C280.502 210.148 277.843 210.259 275.195 210.162C272.305 210.058 271.025 211.482 271.015 214.308C271.015 218.73 271.032 223.156 270.902 227.574C270.756 232.536 270.028 233.33 265.296 233.482C261.133 233.617 256.956 233.617 252.793 233.482C248.273 233.33 247.302 232.512 247.279 228.075C247.186 209.228 247.191 190.383 247.296 171.54C247.323 166.744 248.354 165.815 253.035 165.639C257.198 165.483 261.375 165.476 265.538 165.639C269.942 165.808 270.708 166.654 270.885 171.232C271.032 175.074 270.844 178.93 271.018 182.768C271.219 187.225 272.073 188.168 276.488 188.348C290.673 188.928 288.991 187.253 289.025 176.988C289.059 165.587 289.025 165.587 300.19 165.587C302.277 165.587 304.364 165.518 306.443 165.632C310.869 165.884 311.771 166.668 311.835 171.198C311.972 180.809 311.88 190.428 311.88 200.042L311.91 200.025Z" fill="white"/>
<path d="M170.895 201.083C171.235 185.764 176.657 174.073 189.616 167.626C203.362 160.802 217.24 161.193 229.739 171.032C233.068 173.651 235.638 177.503 237.909 181.204C240.05 184.7 239.059 186.821 235.247 188.359C231.019 190.062 226.666 191.416 222.424 193.057C219.521 194.184 217.999 192.511 216.117 190.677C209.649 184.399 199.287 186.186 195.431 194.021C192.772 199.432 194.113 206.362 198.47 209.703C203.672 213.69 211.045 214.056 215.177 209.568C218.54 205.916 221.784 205.82 225.835 207.267C228.868 208.352 231.983 209.199 235.026 210.228C239.863 211.862 240.496 213.168 237.807 217.756C232.102 227.499 223.919 233.953 212.634 235.549C204.42 236.71 196.469 235.829 188.922 231.804C176.286 225.06 171.415 213.946 170.895 201.083Z" fill="white"/>
</g>
<defs>
<clipPath id="clip0">
<rect width="223.935" height="73.0225" fill="white" transform="translate(88 163)"/>
</clipPath>
</defs>
</svg>
