<svg width="400" height="400" viewBox="0 0 400 400" fill="none" xmlns="http://www.w3.org/2000/svg">
<g clip-path="url(#clip0)">
<path d="M329.001 213.699C323.258 221.975 317.47 230.206 311.833 238.563C311.134 239.598 310.965 241.136 310.942 242.447C310.836 247.913 310.897 253.415 310.897 259.092H298.912C298.912 253.435 299.015 247.945 298.844 242.466C298.789 240.816 298.294 239.212 297.409 237.818C292.048 229.804 286.518 221.904 280.613 213.333C285.586 213.333 289.988 213.23 294.374 213.437C295.07 213.469 295.848 214.796 296.346 215.661C299.139 220.515 301.853 225.396 304.856 230.72C307.839 225.425 310.664 220.622 313.258 215.699C314.23 213.832 315.406 213.162 317.505 213.227C321.327 213.337 325.16 213.133 328.988 213.062L329.001 213.699Z" fill="white"/>
<path d="M257.947 159.732C251.54 158.553 245.554 156.896 239.483 156.459C230.17 155.793 225.205 160.101 224.217 169.309C223.798 173.63 223.936 177.988 224.628 182.274C225.726 189.366 230.711 193.651 238.055 193.182C244.653 192.758 251.171 191.101 257.947 189.945C257.947 193.246 258.018 197.334 257.879 201.412C257.856 202.111 257.072 203.157 256.402 203.409C247.173 206.889 237.734 208.721 227.913 206.222C220.342 204.299 214.256 200.396 210.79 193.101C210.466 192.398 209.475 191.483 208.846 191.525C205.688 191.732 202.546 192.224 199.161 192.644C206.799 209.248 213.637 225.839 225.749 240.054V213.281C229.406 213.281 232.691 213.194 235.959 213.359C236.558 213.388 237.601 214.436 237.605 215.019C237.695 229.639 237.676 244.258 237.676 259.273C233.863 259.273 230.362 259.396 226.883 259.182C226.086 259.134 225.192 258.046 224.615 257.24C219.549 250.026 214.551 242.76 209.523 235.516C208.944 234.684 208.312 233.898 207.155 232.335V259.004H195.109V255.638C195.109 245.346 195.161 235.057 195.06 224.768C195.019 222.988 194.644 221.231 193.956 219.589C190.998 212.443 187.882 205.348 184.63 197.804L167.462 212.986C167.335 210.627 167.241 208.892 167.138 206.805H130.576V143.151H146.772V192.444H167.102V141.843L167.876 141.429L206.867 175.691C207.444 171.341 207.709 167.276 208.561 163.302C211.23 150.883 219.941 143.513 232.71 142.426C240.737 141.752 248.44 143.047 255.88 145.96C256.736 146.284 257.824 147.413 257.856 148.226C258.057 152.223 257.947 156.249 257.947 159.732Z" fill="white"/>
<path d="M283.245 206.53H266.916V143.222H283.209V164.176L283.98 164.393C288.548 158.583 293.293 152.929 297.576 146.931C299.807 143.801 302.269 142.662 306.056 142.886C311.436 143.209 316.852 142.966 323.065 142.966L298 170.665L324.931 206.685C317.892 206.685 311.53 206.763 305.172 206.588C304.326 206.565 303.309 205.387 302.723 204.51C297.767 197.098 292.888 189.654 287.88 182.048C284.849 184.637 282.792 187.227 283.148 191.486C283.563 196.415 283.245 201.406 283.245 206.53Z" fill="white"/>
<path d="M121.954 159.709C115.382 158.531 109.292 156.877 103.118 156.473C93.8829 155.835 88.9754 160.379 88.1624 169.587C87.8135 173.485 87.8601 177.409 88.3017 181.297C89.186 188.871 94.2749 193.625 101.907 193.172C108.502 192.784 115.022 191.114 121.915 189.936C121.915 193.425 121.964 197.704 121.851 201.973C121.851 202.471 121.021 203.177 120.429 203.4C111.524 206.766 102.383 208.575 92.8949 206.517C81.5219 204.054 74.5737 197.066 72.2932 185.693C70.8502 178.496 70.8502 171.084 72.2932 163.888C74.7357 151.404 83.7894 143.542 96.6395 142.429C104.663 141.733 112.36 143.047 119.8 145.938C120.678 146.277 121.815 147.378 121.857 148.177C122.068 152.171 121.954 156.185 121.954 159.709Z" fill="white"/>
<path d="M143.375 242.342L154.389 259.263C149.883 259.263 145.892 259.351 141.911 259.173C141.263 259.143 140.489 258.043 140.039 257.279C138.095 253.991 136.055 250.744 134.461 247.291C133.029 244.187 131.011 243.307 127.555 244.508V259.098H115.926V213.32C124.672 213.643 133.534 212.071 142.164 214.534C147.897 216.152 151.745 219.977 152.338 226.256C152.97 232.943 151.043 238.4 144.626 241.611C144.266 241.786 143.939 242.009 143.375 242.342ZM127.827 223.052V234.859C130.535 234.859 132.984 235.008 135.407 234.82C138.445 234.584 140.612 232.021 140.628 228.995C140.667 227.488 140.115 226.026 139.09 224.92C138.065 223.815 136.648 223.154 135.141 223.078C132.806 222.939 130.47 223.052 127.814 223.052H127.827Z" fill="white"/>
<path d="M157.518 213.355H189.204V223.01H169.263V231.286H186.561V241.051H169.257V249.563H189.262V259.043H157.518V213.355Z" fill="white"/>
<path d="M278.044 213.481C279.1 219.113 278.083 223.615 274.38 227.881C269.372 233.645 265.025 239.979 260.406 246.08C259.794 246.89 259.24 247.747 258.339 249.045H278.131V259.036H242.898C242.25 253.735 242.464 249.155 246.38 244.821C252.337 238.228 257.559 230.972 263.548 223.434H243.141V213.481H278.044Z" fill="white"/>
<path d="M91.6397 223.03V232.092H108.196V241.763H91.575V259.056H79.8262V213.56H110.994C110.994 216.168 111.121 218.881 110.891 221.564C110.842 222.111 109.465 222.936 108.681 222.962C104.205 223.098 99.7185 223.03 95.2386 223.03H91.6397Z" fill="white"/>
</g>
<defs>
<clipPath id="clip0">
<rect width="257.809" height="117.893" fill="white" transform="translate(71.1914 141.429)"/>
</clipPath>
</defs>
</svg>
