<svg width="400" height="400" viewBox="0 0 400 400" fill="none" xmlns="http://www.w3.org/2000/svg">
<path d="M91.0033 200.03C90.7391 181.327 106.466 165.964 124.912 166C142.641 166.032 158.785 180.206 158.82 199.909C158.847 204.379 157.987 208.81 156.291 212.946C154.595 217.082 152.096 220.841 148.939 224.005C145.782 227.17 142.029 229.677 137.897 231.383C133.765 233.088 129.336 233.958 124.865 233.942C105.448 233.896 90.7998 217.923 91.0033 200.03ZM136.748 199.98C136.958 194.426 132.611 188.009 124.762 188.044C117.98 188.073 112.912 193.355 112.965 200.041C113.026 207.515 119.13 211.88 124.901 211.884C131.472 211.887 136.99 206.219 136.751 199.98H136.748Z" fill="white"/>
<path d="M309.566 175.823L294.035 191.342C291.105 188.694 287.489 187.512 283.363 188.305C280.579 188.837 278.32 190.318 276.506 192.499C272.937 196.782 273.151 203.599 276.753 207.779C280.172 211.745 287.486 214.136 294.035 208.711L309.383 224.03C300.549 234.285 279.94 239.021 264.282 226.307C248.88 213.79 247.738 190.65 261.165 176.533C274.465 162.584 296.573 162.634 309.566 175.823Z" fill="white"/>
<path d="M220.377 166.19L186.536 233.946C175.185 211.242 163.967 188.801 152.652 166.161H172.691L186.532 193.877L200.378 166.19H220.377Z" fill="white"/>
<path d="M225.922 166.168H244.083V233.628C242.83 234.017 228.835 234.146 225.99 233.796C225.586 232.55 225.497 168.427 225.922 166.168Z" fill="white"/>
</svg>
