<svg width="400" height="400" viewBox="0 0 400 400" fill="none" xmlns="http://www.w3.org/2000/svg">
<g clip-path="url(#clip0)">
<path d="M66 220.237C66.35 219.904 66.6782 219.548 66.9825 219.172C69.6326 215.44 72.2726 211.698 74.8874 207.984C76.8045 209.272 78.5855 210.672 80.5453 211.747C85.5307 214.482 90.8737 215.658 96.5442 214.718C97.3259 214.576 98.0691 214.27 98.7258 213.82C100.305 212.748 100.207 210.991 98.4336 210.327C96.5805 209.674 94.676 209.181 92.7404 208.851C87.8054 207.913 82.8251 207.178 78.1875 205.089C73.119 202.807 69.4839 199.258 68.3629 193.614C66.7457 185.501 70.4437 177.926 77.7844 174.105C81.8074 172.016 86.1126 171.147 90.6168 171.022C97.6199 170.827 104.303 172.08 110.518 175.376C112.311 176.326 113.976 177.523 115.808 178.671L106.663 190.673C104.817 189.68 103.101 188.645 101.288 187.801C97.393 185.983 93.1228 185.128 88.8332 185.309C88.6241 185.309 88.4151 185.326 88.206 185.349C86.566 185.534 85.4349 186.363 85.377 187.563C85.2863 189.099 86.5056 189.611 87.6115 189.887C90.7755 190.686 93.9798 191.315 97.1664 192.017C101.429 192.953 105.651 194.01 109.457 196.274C115.755 200.026 117.74 205.723 116.934 212.342C115.909 220.759 110.84 225.84 103.003 227.876C92.0703 230.718 81.3741 229.727 71.3405 224.182C69.4613 223.138 67.7785 221.73 66 220.491V220.237Z" fill="white"/>
<path d="M153.894 196.705C153.13 200.01 152.368 203.315 151.609 206.621C150.042 213.451 148.458 220.278 146.936 227.118C146.732 228.034 146.394 228.348 145.455 228.34C140.248 228.297 135.043 228.307 129.836 228.34C129.058 228.34 128.665 228.155 128.428 227.326C124.597 213.846 120.72 200.366 116.886 186.884C116.837 186.614 116.842 186.338 116.9 186.07C116.958 185.803 117.068 185.549 117.223 185.324C118.986 182.878 120.841 180.487 122.783 177.919L115.135 172.052C115.54 172.014 115.873 171.953 116.208 171.951C120.909 171.951 125.612 171.979 130.315 171.923C131.323 171.923 131.693 172.242 131.889 173.191C134.073 183.67 136.277 194.142 138.502 204.608C138.605 205.097 138.724 205.584 138.923 206.466C139.154 205.82 139.293 205.518 139.371 205.198C142.034 194.53 144.707 183.864 147.321 173.186C147.561 172.202 147.961 171.918 148.929 171.918C152.37 171.966 155.813 171.961 159.257 171.918C160.171 171.918 160.547 172.194 160.768 173.127C163.383 183.759 166.032 194.381 168.714 204.996C168.794 205.43 168.991 205.835 169.283 206.164C169.88 203.343 170.485 200.518 171.074 197.694C172.78 189.519 174.482 181.342 176.18 173.163C176.316 172.501 176.41 171.921 177.385 171.928C183.093 171.974 188.804 171.948 194.514 171.956C194.844 171.983 195.172 172.033 195.494 172.106C194.771 174.641 194.071 177.08 193.366 179.529C188.831 195.298 184.31 211.069 179.8 226.842C179.488 227.94 179.072 228.376 177.851 228.363C172.854 228.28 167.859 228.28 162.864 228.363C161.678 228.384 161.297 227.955 161.058 226.885C158.892 217.221 156.677 207.569 154.476 197.912C154.385 197.512 154.267 197.116 154.163 196.715L153.894 196.705Z" fill="white"/>
<path d="M300.277 228.244C299.773 228.275 299.357 228.318 298.954 228.318C293.412 228.318 287.87 228.293 282.328 228.346C281.321 228.346 280.93 227.976 280.698 227.078C280.318 225.618 279.822 224.188 279.419 222.73C279.23 222.038 278.937 221.693 278.131 221.698C271.918 221.73 265.704 221.73 259.49 221.698C258.757 221.698 258.452 221.992 258.268 222.652C257.815 224.267 257.346 225.882 256.805 227.469C256.689 227.808 256.243 228.272 255.946 228.277C251.585 228.328 247.224 228.313 242.67 228.313V226.87C242.67 222.832 242.655 218.793 242.685 214.754C242.685 214.086 242.8 213.423 243.022 212.794C247.864 199.636 252.71 186.482 257.56 173.33C257.931 172.316 258.371 171.906 259.508 171.918C265.805 171.982 272.103 171.964 278.401 171.918C279.288 171.918 279.741 172.172 280.056 173.046C286.666 191.052 293.291 209.052 299.932 227.048C300.053 227.403 300.133 227.765 300.277 228.244ZM269.02 188.887L268.712 188.872C266.873 194.85 265.034 200.83 263.17 206.905H274.582C272.688 200.787 270.854 194.832 269.02 188.887Z" fill="white"/>
<path d="M237.701 213.634V228.209H194.811V226.667C194.811 216.737 194.773 206.806 194.846 196.878C194.867 194.998 195.127 193.129 195.619 191.316C197.269 185.244 199.085 179.217 200.796 173.158C201.035 172.314 201.338 171.923 202.307 171.926C213.727 171.961 225.143 171.949 236.567 171.951C236.897 171.951 237.23 171.999 237.658 172.03V186.575C237.192 186.597 236.668 186.643 236.147 186.643C228.549 186.643 220.951 186.673 213.354 186.62C212.117 186.62 211.719 187.001 211.827 188.2C211.91 189.206 211.91 190.218 211.827 191.224C211.749 192.238 212.137 192.515 213.119 192.51C220.551 192.477 227.982 192.492 235.411 192.492H237.048C237.115 192.903 237.16 193.318 237.182 193.734C237.182 197.816 237.164 201.898 237.205 205.98C237.205 206.958 236.925 207.278 235.917 207.273C228.36 207.232 220.803 207.273 213.245 207.227C212.162 207.227 211.734 207.48 211.817 208.624C211.904 209.842 211.904 211.064 211.817 212.282C211.749 213.339 212.134 213.659 213.175 213.651C218.127 213.608 223.08 213.631 228.038 213.634H237.711H237.701Z" fill="white"/>
<path d="M287.092 172.032C287.873 171.994 288.364 171.951 288.855 171.951C303.676 171.951 318.496 171.941 333.315 171.923C334.549 171.923 334.99 172.194 334.96 173.518C334.869 177.389 334.93 181.26 334.925 185.132C334.925 185.585 334.887 186.037 334.859 186.653H332.786C328.881 186.653 324.977 186.698 321.072 186.627C319.886 186.607 319.603 187.003 319.609 188.149C319.644 200.982 319.651 213.817 319.631 226.654V228.259C319.072 228.29 318.624 228.335 318.18 228.335C314.611 228.335 311.041 228.302 307.474 228.363C306.486 228.378 305.937 228.13 305.653 227.133C305.331 226.005 304.923 224.903 304.431 223.838C302.894 220.542 302.451 217.086 302.519 213.443C302.67 205.028 302.542 196.609 302.592 188.194C302.592 186.96 302.224 186.617 301.025 186.645C297.921 186.724 294.813 186.645 291.704 186.688C290.911 186.688 290.508 186.46 290.241 185.692C289.369 183.169 288.21 180.756 287.568 178.208C287.087 176.299 287.235 174.23 287.092 172.032Z" fill="white"/>
</g>
<defs>
<clipPath id="clip0">
<rect width="268.966" height="58.4177" fill="white" transform="translate(66 171)"/>
</clipPath>
</defs>
</svg>
