<svg width="400" height="400" viewBox="0 0 400 400" fill="none" xmlns="http://www.w3.org/2000/svg">
<path d="M60 202.08C60.2533 200.912 60.432 199.72 60.7691 198.577C62.6965 192.059 68.801 187.321 75.6038 187.01C84.5426 186.602 91.9618 192.474 93.189 201.31C94.6788 212.057 86.6823 220.061 77.7323 220.501C68.436 220.953 61.1956 214.823 60.1602 205.564C60.1221 205.391 60.0685 205.222 60 205.059V202.08ZM68.3205 203.521C68.3205 208.385 72.2089 212.46 76.8105 212.445C81.5127 212.426 85.1534 208.506 85.1534 203.461C85.1534 198.711 81.4419 194.912 76.818 194.932C72.0283 194.953 68.3131 198.707 68.3205 203.519V203.521Z" fill="white"/>
<path d="M317.363 219.78C316.618 222.849 315.885 225.818 315.158 228.786C315.071 229.147 314.991 229.509 314.901 229.868C314.514 231.41 314.408 231.499 312.791 231.65C312.638 231.671 312.484 231.684 312.33 231.689C310.329 231.659 310.063 231.317 310.536 229.44C311.363 226.143 312.189 222.847 313.013 219.551C313.078 219.287 313.108 219.017 313.138 218.843C311.22 217.937 309.344 217.132 307.551 216.179C305.649 215.189 303.965 213.826 302.601 212.171C300.761 209.916 300.461 207.538 301.867 204.94C303.73 201.482 306.784 199.69 310.646 198.64C310.045 200.338 309.221 201.992 311.115 202.957C311.313 201.966 311.413 200.865 311.756 199.843C313.976 193.227 316.233 186.622 318.527 180.029C318.765 179.341 318.628 178.999 318.101 178.559C315.25 176.187 313.886 173.224 314.562 169.459C314.711 168.624 315.121 168.099 315.922 168.079C317.803 168.03 319.708 167.905 321.564 168.129C327.006 168.779 332.272 170.138 337.207 172.57C337.976 172.943 338.677 173.479 339.382 173.976C340.019 174.427 340.127 175.023 339.874 175.772C338.682 179.207 336.224 181.207 332.751 182.018C331.941 182.204 331.533 182.47 331.393 183.384C330.462 189.494 329.449 195.591 328.505 201.7C328.455 202.016 328.715 202.5 328.986 202.728C331.593 204.918 333.632 207.504 334.2 210.931C334.999 215.698 333.57 218.076 329.241 219.497C328.385 219.769 327.508 219.967 326.619 220.087C323.559 220.533 320.509 220.33 317.363 219.78Z" fill="white"/>
<path d="M116.132 219.771H109.08V200.962H103.763V219.751H96.6457V200.888H94.0684V195.398H96.5228C96.5936 194.344 96.5638 193.376 96.737 192.443C97.3236 189.258 99.4167 187.465 102.949 187.055C103.81 186.955 104.679 186.925 105.545 186.893C105.862 186.906 106.177 186.943 106.488 187.005V191.592C105.666 191.986 104.676 192.163 104.238 192.75C103.763 193.391 103.8 194.411 103.592 195.357H108.894C108.955 194.515 108.981 193.69 109.08 192.873C109.452 189.893 111.119 187.997 114.058 187.383C115.615 187.059 117.224 187.01 118.9 186.824V191.837C116.224 192.5 115.797 193.057 116.237 195.4H118.914V200.869H116.132V219.771Z" fill="white"/>
<path d="M208.493 219.874C206.368 219.874 204.322 219.851 202.279 219.887C201.625 219.896 201.621 219.438 201.51 219.047C200.357 215.006 199.21 210.965 198.066 206.924C197.99 206.585 197.826 206.273 197.591 206.019L193.582 219.874C191.533 219.874 189.554 219.848 187.571 219.889C186.937 219.902 186.887 219.494 186.766 219.09C185.328 214.33 183.892 209.569 182.457 204.806C181.575 201.879 180.695 198.951 179.816 196.022C179.764 195.851 179.742 195.67 179.691 195.426C182.008 195.426 184.269 195.406 186.53 195.458C186.747 195.458 187.088 195.877 187.153 196.154C188.271 200.396 189.349 204.648 190.44 208.896C190.483 209.063 190.552 209.225 190.697 209.65C191.343 207.276 191.923 205.155 192.496 203.032C193.118 200.735 193.753 198.443 194.344 196.141C194.483 195.594 194.716 195.396 195.288 195.413C197.115 195.45 198.943 195.426 200.839 195.426C202.152 200.145 203.457 204.83 204.761 209.516L204.919 209.501C206.13 204.824 207.342 200.144 208.556 195.462H215.869C213.394 203.64 210.947 211.747 208.493 219.874Z" fill="white"/>
<path d="M181.154 210.17H162.983C163.128 211.939 164.472 213.366 166.471 213.848C168.381 214.31 170.223 214.221 171.86 212.952C172.053 212.803 172.288 212.717 172.532 212.705C175.009 212.688 177.486 212.693 179.97 212.693C179.367 217.247 172.42 221.197 166.506 220.403C159.29 219.433 154.416 212.921 155.506 205.576C156.47 199.067 162.826 193.676 170.357 194.851C178.877 196.181 181.605 203.963 181.154 210.17ZM162.718 204.976H173.875C173.011 202.369 170.782 201.12 167.454 201.315C165.078 201.453 163.117 202.946 162.726 204.976H162.718Z" fill="white"/>
<path d="M278.762 195.427L269.096 206.316L278.034 219.802C277.63 219.834 277.371 219.871 277.103 219.871C274.809 219.871 272.515 219.853 270.213 219.888C269.583 219.897 269.222 219.717 268.896 219.143C267.127 216.059 265.306 212.998 263.496 209.942C263.328 209.659 263.144 209.383 262.818 208.875V219.8H255.805V187.554H262.792V204.314L262.978 204.372L267.218 199.025C268.025 198.007 268.82 196.977 269.639 195.971C269.826 195.749 270.103 195.459 270.343 195.455C273.086 195.414 275.802 195.427 278.762 195.427Z" fill="white"/>
<path d="M227.108 220.554C219.834 220.607 214.195 214.901 214.195 207.48C214.195 200.572 219.899 194.855 226.924 194.736C234.043 194.617 239.969 200.358 240.062 207.467C240.149 214.729 234.436 220.5 227.108 220.554ZM227.097 213.625C230.296 213.606 232.903 210.873 232.857 207.582C232.812 204.258 230.19 201.587 227.002 201.623C223.814 201.658 221.298 204.314 221.32 207.701C221.343 210.969 223.946 213.638 227.097 213.625Z" fill="white"/>
<path d="M154.558 211.084C153.254 216.099 148.491 221.315 140.284 220.453C134.315 219.823 129.386 214.208 129.166 208.057C128.919 201.149 134.464 195.51 140.075 194.817C147.524 193.91 152.819 198.134 154.491 204.27C152.433 204.27 150.403 204.234 148.375 204.285C147.459 204.307 146.811 204.098 146.159 203.353C144.64 201.607 141.6 201.195 139.366 202.26C137.219 203.298 135.978 205.823 136.351 208.432C136.675 210.685 137.733 212.436 139.997 213.13C142.351 213.853 144.52 213.503 146.329 211.661C146.669 211.334 147.113 211.136 147.584 211.102C149.886 211.056 152.18 211.084 154.558 211.084Z" fill="white"/>
<path d="M276.393 212.666H283.179C283.229 212.908 283.27 213.143 283.328 213.372C283.605 214.471 284.532 215.104 285.866 215.106C287.199 215.107 287.942 214.629 288.21 213.588C288.488 212.519 288.106 211.705 287.004 211.314C285.957 210.942 284.856 210.731 283.797 210.383C282.883 210.096 281.988 209.754 281.115 209.359C278.424 208.107 276.961 206.035 276.961 203.01C276.961 199.869 278.193 197.401 281.039 195.945C283.884 194.489 286.935 194.334 289.966 195.371C292.924 196.383 294.741 199.014 294.825 202.282C292.756 202.282 290.687 202.308 288.622 202.241C288.419 202.241 288.184 201.683 288.05 201.351C287.592 200.234 286.613 199.764 285.41 200.148C284.32 200.493 283.689 201.481 284.093 202.526C284.347 203.108 284.791 203.585 285.354 203.878C286.227 204.316 287.216 204.519 288.156 204.832C289.153 205.163 290.177 205.437 291.136 205.856C295.406 207.718 296.816 212.001 294.548 216.098C293.813 217.478 292.668 218.594 291.27 219.294C287.789 221.003 284.214 221.156 280.702 219.48C277.938 218.154 276.75 215.702 276.393 212.666Z" fill="white"/>
<path d="M254.25 201.661C253.337 201.788 252.473 201.87 251.624 202.034C250.079 202.33 249.149 203.323 248.915 204.837C248.727 206.119 248.631 207.412 248.628 208.708C248.591 212.079 248.615 215.451 248.615 218.822V219.863H241.324V195.468H248.149V198.261C249.669 196.138 251.611 195.06 254.25 195.132V201.661Z" fill="white"/>
<path d="M120.828 195.453H127.845V219.823H120.828V195.453Z" fill="white"/>
<path d="M76.2723 231.749H62.5215V226.887H76.2723V231.749Z" fill="white"/>
<path d="M98.2465 231.762H84.4473V226.848H98.2465V231.762Z" fill="white"/>
<path d="M120.253 226.879V231.741H106.434V226.879H120.253Z" fill="white"/>
<path d="M128.4 226.848H142.153V231.71H128.4V226.848Z" fill="white"/>
<path d="M186.125 231.764H172.32V226.887H186.125V231.764Z" fill="white"/>
<path d="M208.029 231.745H194.285V226.89H208.029V231.745Z" fill="white"/>
<path d="M229.987 231.745H216.191V226.869H229.987V231.745Z" fill="white"/>
<path d="M251.981 231.744H238.191V226.878H251.981V231.744Z" fill="white"/>
<path d="M296.133 226.866V231.721H282.287V226.866H296.133Z" fill="white"/>
<path d="M150.406 231.726V226.875H164.159V231.726H150.406Z" fill="white"/>
<path d="M260.273 226.848H274.054V231.727H260.273V226.848Z" fill="white"/>
<path d="M120.803 193.15V187.563H127.879V193.15H120.803Z" fill="white"/>
</svg>
