<svg width="400" height="400" viewBox="0 0 400 400" fill="none" xmlns="http://www.w3.org/2000/svg">
<g clip-path="url(#clip0)">
<path d="M76.4801 232.879C68.1057 232.879 59.7312 232.879 51.3568 232.879C46.508 232.879 44.0482 230.363 44.0276 225.463C44.0002 216.757 44.0367 208.056 44.0002 199.356C43.9796 194.615 45.599 190.7 49.2167 187.538C57.1009 180.632 64.8983 173.623 72.7413 166.679C75.2902 164.428 78.1908 164.438 80.7717 166.724C88.681 173.728 96.5309 180.813 104.479 187.762C107.93 190.774 109.41 194.517 109.419 198.967C109.434 207.903 109.434 216.839 109.419 225.774C109.408 230.466 107.023 232.863 102.318 232.863C93.7056 232.897 85.0929 232.876 76.4801 232.879ZM76.889 217.713C83.7728 218.15 89.9988 215.724 95.6424 211.587C99.717 208.601 99.685 208.557 96.1403 204.857C96.0307 204.745 95.9416 204.615 95.8366 204.501C93.3471 201.843 93.3471 201.843 90.5698 203.993C82.8044 210.007 72.8738 210.46 64.5169 205.216C62.9843 204.256 61.2371 202.516 59.853 202.744C58.3365 202.991 57.1785 205.164 55.7671 206.387C54.2597 207.693 54.3624 208.733 55.8607 209.993C61.8766 215.054 68.628 218.07 76.889 217.713Z" fill="white"/>
<path d="M234.666 194.007C235.431 193.2 235.911 192.733 236.347 192.228C239.912 188.091 245.609 186.655 250.891 188.569C255.441 190.22 258.479 194.515 258.581 199.866C258.723 207.151 258.659 214.443 258.743 221.731C258.762 223.263 258.188 223.814 256.688 223.764C254.201 223.682 251.707 223.741 248.856 223.741V219.092C248.856 214.702 248.902 210.311 248.829 205.923C248.79 204.364 248.607 202.811 248.283 201.286C247.696 198.418 246.141 197.259 243.144 197.25C240.111 197.25 237.855 198.745 237.464 201.423C237.103 203.888 237.053 206.41 237.007 208.91C236.936 213.142 236.925 217.37 237.007 221.608C237.037 223.252 236.443 223.853 234.821 223.769C232.945 223.665 231.064 223.665 229.187 223.769C227.561 223.862 227.004 223.284 227.029 221.633C227.111 216.145 227.09 210.657 227.029 205.169C227.006 203.841 226.841 202.52 226.535 201.229C226.017 198.96 224.679 197.474 222.214 197.27C219.215 197.023 217.135 197.911 216.232 200.305C215.619 201.986 215.288 203.758 215.255 205.548C215.132 210.808 215.154 216.051 215.239 221.301C215.269 223.067 214.842 223.924 212.893 223.771C211.018 223.66 209.137 223.654 207.261 223.753C205.921 223.794 205.251 223.389 205.256 221.903C205.292 211.556 205.292 201.209 205.256 190.863C205.256 189.491 205.713 188.873 207.163 188.926C209.49 189.008 211.822 188.947 214.172 188.947C214.401 190.12 214.572 191.005 214.858 192.434C217.756 188.899 221.225 187.513 225.332 187.787C229.438 188.062 232.512 190.154 234.666 194.007Z" fill="white"/>
<path d="M124.547 177.258H134.564V191.618C136.665 190.377 138.25 189.011 140.084 188.417C146.786 186.281 155.647 189.316 156.193 198.531C156.682 206.781 156.296 215.087 156.296 223.708C153.487 223.708 150.616 223.801 147.763 223.616C147.306 223.587 146.557 222.343 146.543 221.647C146.438 216.477 146.495 211.302 146.479 206.13C146.494 204.876 146.445 203.622 146.333 202.373C146 199.171 144.061 197.342 140.989 197.248C137.401 197.138 135.11 198.604 134.863 201.959C134.473 207.259 134.523 212.597 134.475 217.918C134.423 223.737 134.475 223.76 128.706 223.728C123.957 223.703 124.565 224.273 124.556 219.637C124.53 206.467 124.53 193.298 124.556 180.13L124.547 177.258Z" fill="white"/>
<path d="M180.539 224.684C169.462 224.878 161.978 216.374 161.957 206.248C161.937 195.693 170.081 187.726 180.674 187.822C191.408 187.925 199.313 195.826 199.242 206.379C199.174 216.452 191.641 224.967 180.539 224.684ZM180.633 197.243C175.679 197.232 171.906 201.179 171.929 206.344C171.954 211.323 175.768 215.407 180.473 215.491C185.178 215.576 189.289 211.375 189.38 206.381C189.472 201.387 185.518 197.259 180.633 197.243Z" fill="white"/>
<path d="M274.534 209.25C274.196 212.031 275.697 213.479 277.275 214.7C280.397 217.105 285.059 216.813 288.133 214.336C288.893 213.716 289.818 213.334 290.794 213.236C293.427 213.092 296.074 213.186 299.244 213.186C298.584 214.496 298.228 215.402 297.709 216.204C291.883 225.239 280.783 227.542 272.141 221.53C263.724 215.676 261.724 203.895 267.721 195.526C272.289 189.143 279.732 186.463 287.379 188.437C294.334 190.236 299.516 196.383 300.466 203.961C301.128 209.248 301.128 209.248 295.841 209.246H274.536L274.534 209.25ZM290.481 202.788C289.766 198.688 286.826 196.283 282.944 196.09C279.303 195.912 275.573 198.183 274.69 201.082C274.278 202.427 274.975 202.77 276.106 202.772C278.985 202.781 281.866 202.787 284.748 202.788H290.481Z" fill="white"/>
<path d="M320.262 188.967C323.651 188.967 326.689 188.864 329.71 189.056C330.309 189.095 331.081 190.172 331.357 190.927C333.401 196.589 335.338 202.29 337.314 207.977C337.412 208.256 337.569 208.514 337.887 209.168C338.344 208.42 338.721 207.972 338.894 207.453C340.694 202.038 342.512 196.628 344.209 191.181C344.732 189.5 345.552 188.798 347.37 188.912C349.923 189.072 352.495 188.954 355.562 188.954C354.153 192.763 352.906 196.173 351.636 199.573C347.525 210.561 343.377 221.525 339.355 232.543C338.583 234.658 337.624 235.797 335.178 235.559C332.801 235.33 330.382 235.509 327.577 235.509C329.027 231.985 330.16 228.836 331.611 225.838C332.785 223.407 332.782 221.265 331.75 218.733C328.096 209.836 324.67 200.851 321.157 191.894C320.849 191.105 320.657 190.273 320.262 188.967Z" fill="white"/>
<path d="M306.667 177.12H310.191C316.475 177.12 316.475 177.12 316.475 183.294V215.715C316.475 217.673 316.401 219.632 316.488 221.587C316.559 223.209 315.942 223.833 314.307 223.771C311.822 223.675 309.33 223.746 306.658 223.746L306.667 177.12Z" fill="white"/>
</g>
<defs>
<clipPath id="clip0">
<rect width="311.562" height="70.5884" fill="white" transform="translate(44 165)"/>
</clipPath>
</defs>
</svg>
