<svg viewBox="0 0 400 400" xmlns="http://www.w3.org/2000/svg">
<path d="M267.034 205.391C267.379 242.533 299.643 254.893 300 255.051C299.727 255.922 294.845 272.665 283.002 289.958C272.764 304.909 262.139 319.806 245.401 320.114C228.955 320.417 223.666 310.369 204.863 310.369C186.066 310.369 180.19 319.806 164.621 320.417C148.465 321.028 136.162 304.249 125.839 289.353C104.746 258.882 88.6269 203.249 110.271 165.695C121.024 147.046 140.239 135.237 161.096 134.934C176.961 134.631 191.936 145.599 201.634 145.599C211.327 145.599 229.524 132.409 248.654 134.346C256.663 134.68 279.143 137.579 293.579 158.692C292.415 159.412 266.755 174.339 267.034 205.391V205.391ZM236.124 114.187C244.702 103.813 250.475 89.3701 248.9 75C236.536 75.4965 221.586 83.2325 212.717 93.6014C204.77 102.784 197.809 117.48 199.687 131.566C213.468 132.631 227.546 124.568 236.124 114.187" fill="currentColor"/>
</svg>
