<svg width="400" height="400" viewBox="0 0 400 400" fill="white" xmlns="http://www.w3.org/2000/svg">
<g>
<path d="M364.82 204.857C362.007 206.672 360.03 206.147 357.845 202.837C350.781 208.055 343.917 208.139 337.723 201.404C333.353 196.655 332.43 188.656 335.624 182.723C339.871 174.822 346.737 173.383 355.093 175.589C355.179 174.658 355.302 173.911 355.307 173.161C355.332 169.91 355.344 166.658 355.307 163.404C355.292 161.514 356.177 160.496 358.066 160.628C360.324 160.799 362.582 161.132 364.82 161.408V204.857ZM355.317 189.658C355.317 188.36 355.46 187.037 355.262 185.773C355.146 185.048 354.632 184.109 354.025 183.786C350.821 182.08 346.306 183.115 344.274 185.871C342.089 188.835 342.319 193.321 344.798 196.085C346.459 197.933 349.364 198.627 351.712 197.733C354.253 196.769 355.304 195.173 355.324 192.253C355.322 191.389 355.317 190.516 355.317 189.658Z"/>
<path d="M192.081 182.779C193.2 183.47 194.154 183.978 195.022 184.606C201.441 189.264 201.409 198.205 194.959 202.863C192.507 204.689 189.548 205.696 186.497 205.743C181.314 205.808 176.129 205.725 170.944 205.791C168.984 205.816 168.272 204.996 168.279 203.062C168.319 189.831 168.319 176.599 168.279 163.366C168.279 161.556 168.997 160.605 170.788 160.632C176.327 160.711 181.886 160.579 187.4 161.001C193.273 161.45 197.58 165.701 198.398 171.252C198.98 175.201 197.224 178.26 194.482 180.865C193.815 181.504 193.032 182.029 192.081 182.779ZM177.514 192.624C177.514 193.997 177.403 195.385 177.571 196.738C177.637 197.266 178.324 198.127 178.745 198.129C181.397 198.147 184.084 198.19 186.693 197.789C188.973 197.438 190.182 195.613 190.636 193.391C191.08 191.215 190.213 189.352 188.379 188.411C186.729 187.591 184.924 187.139 183.085 187.085C177.494 186.919 177.494 187.02 177.514 192.634V192.624ZM182.105 168.39C176.934 168.435 177.521 167.804 177.501 172.785C177.476 179.505 177.501 179.505 184.177 179.237C187.481 179.106 189.51 177.011 189.535 173.709C189.56 170.536 187.566 168.519 184.267 168.407C183.545 168.365 182.825 168.387 182.105 168.387V168.39Z"/>
<path d="M192.293 238.683C192.873 239.022 193.49 239.368 194.094 239.736C201.37 244.128 201.894 253.671 194.892 258.517C192.571 260.079 189.897 261.028 187.115 261.277C181.672 261.703 176.17 261.398 170.696 261.446C168.94 261.461 168.27 260.658 168.275 258.936C168.302 245.623 168.302 232.309 168.275 218.996C168.275 217.269 168.95 216.472 170.709 216.499C175.897 216.55 181.09 216.429 186.262 216.567C191.99 216.719 196.982 220.702 198.194 225.887C199.297 230.616 197.338 234.185 193.859 237.151C193.357 237.568 192.855 237.954 192.353 238.365C192.333 238.398 192.341 238.497 192.293 238.683ZM177.492 248.104C177.492 249.48 177.342 250.881 177.56 252.219C177.658 252.835 178.443 253.769 178.975 253.812C181.203 253.981 183.441 253.986 185.67 253.827C188.222 253.645 190.141 251.694 190.63 249.104C190.834 248.022 190.665 246.903 190.152 245.931C189.639 244.959 188.812 244.191 187.808 243.755C186.303 243.076 184.504 242.788 182.826 242.745C177.492 242.616 177.492 242.692 177.505 248.104H177.492ZM177.492 229.424C177.492 230.722 177.53 232.019 177.492 233.317C177.45 234.579 177.934 235.215 179.248 235.154C181.255 235.061 183.297 235.228 185.251 234.872C188.982 234.193 190.791 229.808 188.809 226.592C187.474 224.426 185.382 223.999 183.024 224.014C177.492 224.052 177.492 224.012 177.492 229.429V229.424Z"/>
<path d="M249.971 193.157C252.379 187.707 254.597 182.925 256.591 178.051C257.434 175.988 258.634 175.044 260.834 175.274C261.837 175.38 262.841 175.274 263.859 175.294C266.94 175.332 267.401 176.026 266.137 178.78C263.484 184.566 260.824 190.346 258.154 196.12C254.768 203.476 251.343 210.815 248.014 218.198C247.297 219.796 246.339 220.614 244.56 220.496C243.268 220.41 241.966 220.516 240.669 220.468C238.228 220.379 237.699 219.534 238.712 217.325C240.496 213.45 242.255 209.56 244.141 205.736C244.879 204.239 244.921 202.981 244.184 201.444C240.584 193.949 237.089 186.404 233.562 178.874C232.28 176.132 232.759 175.352 235.745 175.289C241.871 175.163 241.888 175.155 244.44 180.757C246.228 184.695 247.964 188.651 249.971 193.157Z"/>
<path d="M239.207 258.553C238.623 258.949 238.096 259.295 237.584 259.656C233.187 262.763 228.443 263.162 223.654 260.981C218.92 258.83 217.154 254.488 216.88 249.664C216.579 244.255 216.782 238.809 216.775 233.39C216.775 233.031 216.72 232.574 216.908 232.327C218.83 229.772 221.536 231.264 223.897 231.082C225.402 230.966 225.964 232.092 225.959 233.544C225.944 238.1 225.816 242.667 226.042 247.213C226.122 248.834 226.795 250.601 227.723 251.959C228.944 253.771 230.946 254.304 233.114 253.607C235.392 252.873 237.088 250.611 237.128 247.973C237.208 243.487 237.158 239.001 237.17 234.516C237.17 231.363 237.522 231.019 240.607 230.981C246.284 230.888 246.284 230.888 246.284 236.659C246.284 243.676 246.307 250.694 246.262 257.712C246.262 259.065 246.763 260.764 244.817 261.355C242.612 262.016 240.963 261.322 239.799 259.335C239.618 259.062 239.421 258.801 239.207 258.553Z"/>
<path d="M307.636 177.894C310.305 176.786 312.583 175.37 315.036 174.911C323.493 173.358 329.745 178.341 330.189 186.972C330.472 192.455 330.264 197.963 330.309 203.459C330.309 205.13 329.524 205.781 327.921 205.773C320.422 205.738 321.115 206.5 321.102 199.349C321.102 195.875 321.165 192.402 321.057 188.933C320.957 185.672 318.839 183.322 316.04 183.127C312.56 182.875 309.994 185.303 309.914 189.148C309.821 193.692 309.896 198.261 309.873 202.817C309.873 205.511 309.597 205.773 306.863 205.776C300.363 205.776 300.749 206.349 300.76 199.717C300.76 192.849 300.744 185.977 300.777 179.106C300.777 177.66 300.313 175.799 302.445 175.415C304.397 175.062 306.404 174.991 307.272 177.455C307.355 177.63 307.48 177.781 307.636 177.894Z"/>
<path d="M221.778 192.253C219.114 192.253 216.45 192.225 213.786 192.253C211.671 192.281 211.38 192.824 212.366 194.732C213.966 197.827 217.564 199.152 221.55 198.112C221.896 198.017 222.238 197.904 222.573 197.774C226.768 196.189 226.969 196.272 229.723 199.814C230.626 200.972 230.546 201.886 229.427 202.777C221.633 208.982 209.157 207.594 204.353 198.014C199.002 187.348 206.014 175.231 217.885 174.522C226.003 174.037 233.102 180.942 232.851 189.075C232.776 191.529 232.169 192.19 229.771 192.228C227.106 192.268 224.442 192.228 221.778 192.228V192.253ZM211.904 186.298H224.041C223.216 183.494 221.364 182.007 218.815 181.85C215.644 181.661 213.324 183.044 211.904 186.298Z"/>
<path d="M259.254 248.038C258.983 251.731 263.23 254.811 266.96 254.205C268.579 253.896 270.149 253.374 271.631 252.65C272.953 252.039 273.859 252.183 274.893 253.226C278.703 257.103 278.545 258.113 273.563 260.526C266.037 264.176 257.164 262.041 252.741 255.523C250.526 252.266 249.56 248.312 250.024 244.393C250.487 240.474 252.347 236.858 255.26 234.215C259.612 230.239 266.579 229.209 272.053 231.731C277.203 234.104 280.256 239.168 280.058 245.001C279.978 247.379 279.486 247.892 277.047 247.904C271.865 247.93 266.679 247.904 261.494 247.919C260.751 247.922 259.986 247.998 259.254 248.038ZM259.101 242.232C263.15 242.232 266.714 242.333 270.267 242.182C271.679 242.124 271.237 241.005 270.731 240.261C269.351 238.241 267.372 237.287 264.961 237.562C262.414 237.847 260.365 239.008 259.101 242.225V242.232Z"/>
<path d="M266.477 190.466C266.477 181.828 273.473 174.548 281.779 174.527C290.351 174.507 297.418 181.808 297.381 190.643C297.34 199.355 290.201 206.668 281.827 206.579C273.343 206.488 266.467 199.264 266.477 190.466ZM274.84 190.444C274.818 194.642 277.901 198.11 281.722 198.178C285.645 198.249 288.997 194.753 289.022 190.557C289.047 186.362 285.991 183.115 281.957 183.093C277.816 183.072 274.863 186.122 274.84 190.444Z"/>
<path d="M203.314 238.926C203.314 232.42 203.314 225.915 203.314 219.41C203.314 216.835 203.63 216.514 206.179 216.517C212.977 216.517 212.516 215.815 212.513 222.757C212.513 234.394 212.513 246.032 212.513 257.669C212.513 261.188 212.262 261.438 208.896 261.435C202.79 261.435 203.319 261.973 203.311 255.841C203.306 250.202 203.307 244.563 203.314 238.926Z"/>
<g opacity="0.88">
<path d="M49.6348 137C52.7731 137.926 55.9666 138.709 59.0448 139.805C77.5661 146.401 88.3684 159.424 92.8162 178.652C96.1226 192.945 93.466 205.933 84.4775 216.563C72.589 230.624 57.098 238.379 37.8166 235.96C34.5403 235.549 34.2192 234.665 36.3114 232.285C36.8332 231.686 37.2295 230.629 37.1116 229.871C35.7193 220.895 42.1666 215.626 46.499 209.293C47.4297 207.932 47.5627 205.708 47.367 203.961C46.8653 199.592 47.9038 197.065 52.886 196.517C60.1987 195.712 61.4154 193.533 58.4653 186.806C53.7891 176.075 50.6057 165.465 52.6703 153.287C53.5282 148.233 50.0763 142.45 48.5837 137H49.6348Z"/>
</g>
<g opacity="0.78">
<path opacity="0.8" d="M154.949 172.52C151.909 171.303 148.916 169.943 145.82 168.897C127.191 162.614 110.699 166.179 95.4416 178.561C84.0874 187.772 78.2297 199.649 78.8042 213.594C79.5568 232.042 87.0225 247.751 103.685 257.79C106.52 259.497 107.313 259 107.124 255.832C107.077 255.036 107.413 253.959 107.97 253.433C114.563 247.226 112.706 239.08 113.17 231.403C113.271 229.757 114.527 227.92 115.752 226.665C118.81 223.525 119.55 220.899 115.957 217.378C110.689 212.211 111.07 209.744 117.505 206.271C127.758 200.732 136.762 194.343 142.592 183.471C145.007 178.96 151.269 176.544 155.782 173.174L154.949 172.52Z"/>
</g>
</g>
<defs>
<clipPath id="clip0">
<rect width="329.817" height="125.355" transform="translate(35 137)"/>
</clipPath>
</defs>
</svg>
