<svg width="400" height="400" viewBox="0 0 400 400" fill="white" xmlns="http://www.w3.org/2000/svg">
<path d="M268.832 250.763L270.186 249.499V149L268.832 149.865V250.763Z"/>
<path d="M268.831 188.239L273.692 246.225L274.919 245.081L267.025 151.009L265.768 151.807L268.665 186.372C268.823 187.17 268.831 187.847 268.831 188.239Z"/>
<path d="M268.811 187.561L278.572 241.672L279.693 240.625L263.889 153.003L262.715 153.748L268.42 185.349C268.691 186.192 268.781 186.974 268.811 187.561Z"/>
<path d="M268.734 186.742L283.484 237.097L284.508 236.141L260.742 155.006L259.643 155.706L268.079 184.499C268.448 185.29 268.636 186.072 268.734 186.742Z"/>
<path d="M268.553 185.838L288.406 232.506L289.354 231.618L257.611 156.992L256.564 157.654L267.658 183.739C268.109 184.446 268.38 185.169 268.553 185.838Z"/>
<path d="M268.259 184.927L293.343 227.899L294.23 227.071L254.488 158.985L253.486 159.625L267.168 183.06C267.664 183.662 268.018 184.302 268.259 184.927Z"/>
<path d="M251.371 160.966L250.393 161.583L266.573 182.414C267.123 182.934 267.536 183.498 267.852 184.062L298.31 223.272L299.153 222.481L251.371 160.966Z"/>
<path d="M248.264 162.938L247.293 163.555L265.859 181.82C266.461 182.264 266.943 182.753 267.327 183.265L303.277 218.628L304.097 217.868L248.264 162.938Z"/>
<path d="M245.168 164.908L244.189 165.525L265.029 181.277C265.706 181.661 266.263 182.097 266.722 182.556L308.271 213.969L309.076 213.216L245.168 164.908Z"/>
<path d="M242.074 166.873L241.074 167.505L264.058 180.803C264.833 181.134 265.488 181.518 266.029 181.947L313.284 209.296L314.089 208.551L242.074 166.873Z"/>
<path d="M239 168.83L237.969 169.485L262.961 180.405C263.864 180.676 264.633 181.022 265.28 181.421L318.328 204.6L319.142 203.847L239 168.83Z"/>
<path d="M235.92 170.794L234.844 171.479L261.726 180.103C262.78 180.314 263.675 180.615 264.435 180.976L323.378 199.889L324.198 199.121L235.92 170.794Z"/>
<path d="M232.844 172.743L231.715 173.458L260.373 179.885C261.584 180.028 262.623 180.269 263.512 180.585L328.451 195.147L329.294 194.365L232.844 172.743Z"/>
<path d="M229.771 174.7L228.582 175.453L258.935 179.773C260.304 179.833 261.478 180.013 262.494 180.277L333.537 190.399L334.394 189.601L229.771 174.7Z"/>
<path d="M226.71 176.648L225.461 177.439L257.446 179.749C258.951 179.726 260.26 179.832 261.396 180.035L338.663 185.619L339.545 184.799L226.71 176.648Z"/>
<path d="M223.637 178.599L222.328 179.434L255.9 179.825C257.518 179.72 258.933 179.743 260.168 179.878L343.794 180.841L344.689 180.006L223.637 178.599Z"/>
<path d="M220.572 180.547L219.203 181.42L254.356 179.96C256.026 179.78 257.509 179.719 258.811 179.772L348.962 176.024L349.873 175.174L220.572 180.547Z"/>
<path d="M217.512 182.497L216.082 183.408L252.838 180.157C254.494 179.916 255.969 179.788 257.301 179.766L354.15 171.194L355.075 170.328L217.512 182.497Z"/>
<path d="M214.438 184.447L212.955 185.395L251.412 180.39C252.932 180.119 254.317 179.946 255.581 179.848L359.354 166.332L360.288 165.459L214.438 184.447Z"/>
<path d="M211.381 186.395L209.846 187.373L250.199 180.615C251.388 180.374 252.502 180.194 253.54 180.058L364.583 161.455L365.524 160.574L211.381 186.395Z"/>
<path d="M208.307 188.345L206.719 189.361L369.833 156.556L370.774 155.676L208.307 188.345Z"/>
<path d="M218.002 200.4V202.508C218.002 203.125 217.498 203.636 216.872 203.636H213.84C213.223 203.636 212.711 203.132 212.711 202.508V200.4C212.711 199.783 213.215 199.271 213.84 199.271H216.872C217.498 199.271 218.002 199.783 218.002 200.4ZM65.9582 199.271H40.2501C39.6856 199.271 39.2266 199.731 39.2266 200.295V202.613C39.2266 203.177 39.6856 203.636 40.2501 203.636H50.9217V230.225C50.9217 230.789 51.3807 231.249 51.9451 231.249H54.263C54.8275 231.249 55.2866 230.789 55.2866 230.225V203.636H65.9582C66.5225 203.636 66.9816 203.177 66.9816 202.613V200.295C66.9816 199.731 66.5225 199.271 65.9582 199.271ZM122.597 207.414C118.526 207.414 114.921 208.619 112.904 209.747C111.963 210.252 111.798 210.786 111.798 212.035V230.225C111.798 230.789 112.257 231.249 112.821 231.249H115.132C115.696 231.249 116.155 230.789 116.155 230.225V212.758C117.698 211.892 120.189 211.335 122.544 211.335C126.751 211.335 128.889 213.269 128.889 217.077V230.217C128.889 230.782 129.348 231.241 129.912 231.241H132.223C132.787 231.241 133.246 230.782 133.246 230.217V216.814C133.246 210.846 129.363 207.414 122.597 207.414ZM104.445 215.828V227.531C104.445 228.374 104.234 228.78 103.564 229.194C102.27 230.037 98.5146 231.64 93.5702 231.64C88.2946 231.64 83.7866 228.675 83.7866 224.084C83.7866 220.441 86.8271 216.362 93.6229 216.362C95.8881 216.362 97.7094 216.611 100.08 217.221V215.858C100.08 212.66 98.3942 211.343 94.3228 211.343C92.193 211.343 90.5523 211.967 87.8957 213.352C87.4517 213.578 86.9023 213.405 86.6766 212.961L85.7358 211.14C85.5101 210.696 85.6831 210.146 86.1272 209.92C88.5128 208.528 91.8468 207.422 94.684 207.422C101.088 207.414 104.445 210.327 104.445 215.828ZM100.08 220.803C97.6492 220.163 95.9257 219.915 93.9991 219.915C90.146 219.915 87.941 221.337 87.941 223.821C87.941 226.304 90.1159 227.726 93.9013 227.726C95.9333 227.726 98.2361 227.215 100.08 226.349V220.803ZM80.4678 208.212C80.4678 208.212 78.4961 207.414 75.1546 207.414C70.0823 207.414 67.0569 209.747 67.0569 214.775V230.225C67.0569 230.789 67.516 231.249 68.0804 231.249H70.3983C70.9628 231.249 71.4219 230.789 71.4219 230.225V214.842C71.4219 212.479 72.7087 211.335 75.3503 211.335C76.419 211.335 78.1649 211.591 79.2863 211.892C79.7604 212.043 80.2721 211.779 80.4227 211.305L81.0472 209.356C81.2054 208.874 80.9419 208.363 80.4678 208.212ZM151.699 217.807L148.147 217.062C145.039 216.4 144.618 215.316 144.618 214.346C144.618 212.411 146.318 211.335 149.404 211.335C152.482 211.335 154.837 213.202 154.837 213.202C155.251 213.54 155.86 213.48 156.193 213.066L157.577 211.38C157.916 210.966 157.856 210.357 157.442 210.026C157.442 210.026 154.619 207.414 149.314 207.414C143.88 207.414 140.23 210.237 140.23 214.436C140.23 217.68 142.548 219.885 146.943 220.818L150.691 221.646C153.182 222.165 154.243 223.023 154.243 224.513C154.243 226.552 152.535 227.719 149.434 227.719C145.822 227.719 143.842 226.515 142.345 225.378C141.931 225.04 141.321 225.1 140.99 225.514L139.605 227.2C139.267 227.613 139.327 228.223 139.741 228.554C140.305 228.991 143.173 231.632 149.411 231.632C155.04 231.632 158.683 228.78 158.683 224.377C158.683 220.998 156.336 218.786 151.699 217.807ZM246.509 227.486C246.509 228.344 246.246 228.833 245.576 229.239C244.108 230.074 240.21 231.64 235.875 231.64C229.674 231.64 225.452 228.223 224.858 222.722C224.775 221.826 224.73 220.675 224.73 219.531C224.73 218.387 224.775 217.236 224.858 216.34C225.452 210.839 229.674 207.422 235.875 207.422C238.192 207.422 240.383 207.866 242.144 208.415V200.295C242.144 199.731 242.603 199.271 243.167 199.271H245.486C246.05 199.271 246.509 199.731 246.509 200.295V227.486ZM242.144 212.773C240.82 211.96 238.132 211.335 235.95 211.335C232.075 211.335 229.561 213.367 229.222 216.776C229.132 217.642 229.094 218.598 229.087 219.531C229.087 220.464 229.132 221.42 229.222 222.285C229.561 225.694 232.075 227.726 235.95 227.726C238.141 227.726 240.82 227.102 242.144 226.289V212.773ZM185.972 211.569L185.964 230.21C185.964 236.359 181.87 240.181 175.285 240.181C168.987 240.181 165.487 237.63 165.487 237.63C165.073 237.292 165.012 236.682 165.351 236.276L166.736 234.589C167.074 234.177 167.624 234.13 168.09 234.455C170.657 236.11 172.824 236.351 175.089 236.351C179.206 236.351 181.509 234.326 181.599 230.654C179.838 231.196 177.648 231.64 175.337 231.64C169.136 231.64 164.915 228.223 164.32 222.722C164.237 221.826 164.192 220.675 164.192 219.531C164.192 218.387 164.237 217.236 164.32 216.34C164.915 210.839 169.136 207.422 175.337 207.422C179.673 207.422 183.579 208.995 185.039 209.823C185.716 210.229 185.972 210.718 185.972 211.569ZM181.614 212.773C180.29 211.96 177.603 211.335 175.42 211.335C171.545 211.335 169.032 213.367 168.692 216.776C168.602 217.642 168.564 218.598 168.557 219.531C168.557 220.464 168.602 221.42 168.692 222.285C169.032 225.694 171.545 227.726 175.42 227.726C177.603 227.726 180.282 227.102 181.614 226.297V212.773ZM216.518 207.813H214.201C213.636 207.813 213.177 208.272 213.177 208.837V230.225C213.177 230.789 213.636 231.249 214.201 231.249H216.518C217.083 231.249 217.543 230.789 217.543 230.225V208.837C217.543 208.272 217.083 207.813 216.518 207.813ZM207.277 208.212C207.277 208.212 205.306 207.414 201.964 207.414C196.892 207.414 193.866 209.747 193.866 214.775V230.225C193.866 230.789 194.325 231.249 194.889 231.249H197.208C197.772 231.249 198.231 230.789 198.231 230.225V214.842C198.231 212.479 199.518 211.335 202.159 211.335C203.228 211.335 204.975 211.591 206.096 211.892C206.57 212.043 207.081 211.779 207.232 211.305L207.857 209.356C208.022 208.874 207.759 208.363 207.277 208.212Z"/>
</svg>
