<svg width="400" height="400" viewBox="0 0 400 400" fill="white" xmlns="http://www.w3.org/2000/svg">
<path d="M146.837 263.05L119.687 204.523C121.262 204.523 122.716 204.475 124.167 204.54C124.959 204.576 125.335 204.295 125.664 203.583C129.703 194.802 133.764 186.03 137.846 177.267C137.987 176.963 138.106 176.645 138.275 176.233C137.859 176.208 137.582 176.176 137.304 176.176C134.977 176.176 132.65 176.199 130.324 176.159C129.679 176.147 129.367 176.369 129.107 176.949C127.032 181.489 124.919 186.012 122.818 190.538C122.688 190.815 122.542 191.085 122.355 191.46C121.742 190.153 121.174 188.947 120.613 187.74C118.994 184.249 117.359 180.767 115.78 177.257C115.421 176.461 115.015 176.119 114.083 176.145C111.595 176.222 109.107 176.172 106.534 176.172C100.357 162.858 94.1794 149.541 88 136.221C88.7062 135.992 204.082 135.907 205.786 136.131L187.278 176.029H206.337V182.959H198.505V204.586H190.771V183.037C190.354 182.999 190.048 182.949 189.74 182.947C188.147 182.947 186.553 182.966 184.955 182.932C184.291 182.917 183.933 183.154 183.653 183.768C181.82 187.788 179.948 191.793 178.09 195.801C178.009 195.973 177.921 196.142 177.787 196.416L173.485 193.868C172.011 196.05 170.021 197.313 167.412 197.313C166.482 197.323 165.561 197.141 164.705 196.779C163.848 196.416 163.076 195.882 162.436 195.208C161.783 194.552 161.268 193.772 160.921 192.914C160.573 192.056 160.4 191.138 160.412 190.212C160.424 189.287 160.621 188.373 160.99 187.525C161.36 186.676 161.895 185.91 162.564 185.271C164.175 183.726 166.124 183.066 168.34 183.357C170.556 183.648 172.2 184.888 173.481 186.756L180.059 182.817C177.175 177.213 169.341 173.481 161.475 176.624C153.511 179.803 150.346 188.454 153.295 195.895C156.399 203.725 166.153 207.57 174.357 203.426C174.296 204.134 148.154 260.753 146.837 263.05ZM148.654 204.469C148.855 202.841 148.774 176.93 148.573 176.233H140.648V204.469H148.654Z"/>
<path d="M208.311 192.18C208.248 182.574 214.053 176.7 221.04 175.647C226.028 174.897 230.543 175.98 234.375 179.357C237.079 181.739 238.627 184.761 239.127 188.352C240.252 196.429 234.704 203.751 226.556 205.045C222.753 205.65 219.106 205.164 215.768 203.204C210.868 200.323 208.397 195.983 208.311 192.18ZM231.127 190.423C231.157 186.476 227.852 183.092 223.871 183.077C219.89 183.062 216.495 186.122 216.428 190.329C216.365 194.249 219.756 197.611 223.728 197.632C227.699 197.653 231.094 194.348 231.127 190.423Z"/>
<path d="M243.404 176.085C243.667 176.067 243.825 176.05 243.978 176.05C248.214 176.05 252.449 176.022 256.685 176.066C259.258 176.054 261.752 176.955 263.722 178.609C268.151 182.311 269.1 189.71 263.34 194.284C263.043 194.519 262.742 194.751 262.35 195.059L267.2 204.61H258.541C258.404 204.345 258.247 204.076 258.117 203.794C257.16 201.718 256.182 199.647 255.246 197.555C255.006 197.015 254.708 196.774 254.097 196.805C253.14 196.851 252.201 196.816 251.142 196.816V204.564H243.404V176.085ZM251.156 189.825C253.112 189.825 254.955 189.859 256.796 189.8C257.232 189.784 257.713 189.524 258.078 189.252C258.641 188.806 259.057 188.2 259.27 187.513C259.483 186.827 259.484 186.092 259.273 185.405C258.744 183.784 257.741 182.992 256.05 182.954C254.65 182.921 253.249 182.942 251.839 182.954C251.606 182.971 251.375 183.003 251.146 183.049L251.156 189.825Z"/>
<path d="M302.976 201.386C299.78 201.386 296.691 201.396 293.598 201.386C293.129 201.386 292.928 201.597 292.768 201.997C292.414 202.877 292.016 203.738 291.633 204.615H283.334L296.555 176.098H299.48C303.866 185.561 308.268 195.061 312.686 204.598H304.383C303.924 203.535 303.463 202.49 302.976 201.386ZM298.151 189.02H297.907C297.061 190.852 296.234 192.691 295.474 194.592C296.622 194.814 299.801 194.772 300.567 194.519L298.151 189.02Z"/>
<path d="M272.311 176.092C272.544 176.075 272.73 176.052 272.913 176.052C275.237 176.052 277.56 176.052 279.957 176.052V204.586H272.311V176.092Z"/>
<path d="M202.114 236.801L200.344 238.595C199.517 238.212 198.763 237.703 197.932 237.479C195.008 236.688 191.945 238.639 192.156 242.415C192.292 244.88 193.668 246.434 195.876 246.87C197.829 247.265 199.76 246.415 200.491 244.815C200.633 244.427 200.747 244.029 200.832 243.624H197.306V241.464H203.574C204.083 243.291 203.075 246.861 200.489 248.447C197.111 250.522 190.789 249.521 189.532 243.959C188.221 238.162 192.724 233.944 198.219 234.845C199.741 235.096 201.071 235.687 202.114 236.801Z"/>
<path d="M275.022 249.125H272.469C272.469 248.667 272.469 248.262 272.469 247.854C272.469 246.421 272.486 244.983 272.446 243.555C272.409 242.269 271.68 241.538 270.532 241.519C269.303 241.5 268.404 242.315 268.36 243.571C268.318 244.78 268.346 245.992 268.344 247.207C268.344 247.812 268.344 248.415 268.344 249.106H265.795C265.782 248.819 265.755 248.512 265.753 248.204C265.753 246.644 265.791 245.083 265.73 243.523C265.667 241.86 264.084 240.991 262.668 241.8C262.342 241.977 262.073 242.241 261.891 242.563C261.708 242.884 261.619 243.251 261.634 243.621C261.619 245.085 261.619 246.549 261.613 248.022C261.613 248.367 261.613 248.713 261.613 249.131H259.125V239.483H261.38C261.439 239.745 261.5 240.013 261.592 240.424C262.493 239.532 263.519 239.027 264.754 239.13C265.95 239.232 266.961 239.705 267.717 240.748C267.875 240.643 268.023 240.523 268.157 240.388C269.141 239.136 271.504 238.665 273.246 239.651C273.772 239.93 274.213 240.346 274.524 240.854C274.834 241.363 275.001 241.945 275.009 242.541C275.079 244.7 275.022 246.865 275.022 249.125Z"/>
<path d="M189.355 229.174L190.743 227.032C191.032 227.193 191.277 227.323 191.509 227.459C192.888 228.286 194.508 228.618 196.102 228.401C196.634 228.328 197.142 228.135 197.587 227.836C198.544 227.176 198.447 226.012 197.396 225.562C196.619 225.231 195.752 225.105 194.921 224.904C194.121 224.713 193.298 224.592 192.515 224.341C190.984 223.851 190.046 222.793 189.901 221.162C189.765 219.631 190.284 218.305 191.574 217.438C192.251 216.966 193.017 216.635 193.824 216.464C196.171 216.037 198.447 216.334 200.558 217.532C200.682 217.617 200.799 217.713 200.908 217.817L199.74 219.834C198.732 219.507 197.8 219.086 196.824 218.919C196.002 218.78 195.128 218.906 194.282 218.981C193.969 219.037 193.676 219.174 193.432 219.379C192.525 220.06 192.59 221.218 193.623 221.675C194.309 221.982 195.078 222.104 195.817 222.284C196.678 222.495 197.572 222.607 198.408 222.891C199.803 223.363 200.896 224.186 201.088 225.798C201.293 227.563 200.724 228.988 199.206 229.982C198.229 230.596 197.106 230.937 195.953 230.971C193.953 231.078 192.025 230.726 190.253 229.733C189.964 229.584 189.708 229.4 189.355 229.174Z"/>
<path d="M219.22 221.846C219.262 221.543 219.298 221.298 219.34 221.002H221.672V230.696H219.352C219.31 230.435 219.262 230.143 219.216 229.871C218.598 230.202 218.05 230.611 217.434 230.801C214.906 231.58 212.249 229.915 211.65 227.237C211.337 225.957 211.465 224.608 212.014 223.409C213.287 220.636 216.527 219.848 218.94 221.712C219.029 221.765 219.123 221.809 219.22 221.846ZM216.732 228.608C218.288 228.608 219.342 227.486 219.346 225.832C219.35 224.179 218.249 223.015 216.743 223.015C215.237 223.015 214.1 224.24 214.089 225.821C214.077 227.402 215.222 228.61 216.726 228.608H216.732Z"/>
<path d="M215.801 244.26C215.813 247.292 213.642 249.428 210.53 249.437C207.418 249.447 205.223 247.295 205.232 244.283C205.232 241.335 207.456 239.146 210.459 239.115C213.52 239.096 215.79 241.28 215.801 244.26ZM213.194 244.304C213.194 242.66 212.079 241.506 210.488 241.517C208.97 241.517 207.83 242.687 207.795 244.256C207.781 244.622 207.84 244.986 207.968 245.329C208.096 245.671 208.291 245.985 208.542 246.251C208.792 246.517 209.094 246.731 209.428 246.879C209.762 247.028 210.122 247.108 210.488 247.116C212.036 247.133 213.191 245.927 213.194 244.304Z"/>
<path d="M286.402 245.135H279.573C279.646 246.009 280.019 246.574 280.687 246.959C281.761 247.577 282.944 247.426 284.63 246.434L286.119 248.002C285.846 248.224 285.562 248.431 285.267 248.624C283.726 249.523 282.057 249.659 280.377 249.227C278.249 248.677 277.164 247.137 276.899 245.031C276.58 242.495 277.856 239.743 280.882 239.221C284.833 238.535 287.156 241.986 286.402 245.135ZM283.914 243.389C283.801 242.049 282.984 241.299 281.728 241.328C280.505 241.353 279.699 242.141 279.686 243.389H283.914Z"/>
<path d="M237.244 245.17H230.163C230.492 247.408 232.494 247.898 235.229 246.439L236.668 248.028C236.382 248.253 236.085 248.463 235.776 248.655C234.985 249.105 234.104 249.378 233.197 249.453C232.289 249.529 231.376 249.406 230.521 249.094C228.668 248.447 227.696 247 227.495 245.075C227.363 244.061 227.485 243.031 227.851 242.077C228.693 239.993 230.687 239.015 232.737 239.145C233.75 239.183 234.719 239.563 235.488 240.224C236.256 240.884 236.778 241.786 236.967 242.782C237.129 243.499 237.152 244.259 237.244 245.17ZM230.163 243.339C231.298 243.557 233.866 243.507 234.513 243.264C234.259 241.961 233.545 241.319 232.35 241.325C231.156 241.331 230.435 241.968 230.159 243.339H230.163Z"/>
<path d="M240.532 227.977C241.016 228.493 241.489 228.995 241.95 229.496C240.019 231.343 236.492 231.512 234.517 229.891C233.541 229.089 232.913 228.046 232.861 226.782C232.821 225.814 232.831 224.788 233.102 223.869C233.765 221.636 235.772 220.507 238.356 220.732C240.406 220.912 241.993 222.44 242.347 224.604C242.446 225.219 242.471 225.846 242.538 226.597H235.537C235.479 226.941 235.528 227.294 235.678 227.609C235.828 227.924 236.07 228.185 236.373 228.357C237.805 229.265 239.17 228.796 240.532 227.977ZM239.855 224.914C239.537 223.446 238.645 222.708 237.468 222.838C236.291 222.968 235.568 223.728 235.539 224.914H239.855Z"/>
<path d="M288.564 239.469H290.849C290.916 239.76 290.98 240.026 291.054 240.349C291.172 240.308 291.282 240.25 291.383 240.177C292.256 239.289 293.34 238.996 294.532 239.159C296.526 239.433 297.764 240.859 297.786 242.883C297.808 244.761 297.786 246.639 297.786 248.516C297.786 248.707 297.763 248.885 297.745 249.127H295.219C295.219 248.778 295.219 248.44 295.219 248.103C295.219 246.543 295.234 244.983 295.188 243.425C295.156 242.38 294.536 241.691 293.621 241.54C292.597 241.37 291.646 241.846 291.284 242.772C291.155 243.129 291.09 243.505 291.093 243.884C291.072 245.285 291.083 246.684 291.081 248.085V249.107H288.557L288.564 239.469Z"/>
<path d="M256.47 249.148H254.128C254.103 248.84 254.063 248.574 254.063 248.292C254.063 246.924 254.063 245.557 254.053 244.191C254.055 243.843 254.021 243.495 253.952 243.154C253.722 242.091 253.119 241.565 252.137 241.523C251.069 241.477 250.26 242.02 249.99 243.029C249.884 243.459 249.831 243.901 249.833 244.344C249.816 245.9 249.833 247.458 249.833 249.1H247.4V239.509H249.707C249.754 239.752 249.806 240.022 249.871 240.353C249.979 240.306 250.082 240.247 250.176 240.175C251.144 239.234 252.294 238.943 253.598 239.219C255.427 239.615 256.478 240.815 256.528 242.688C256.581 244.658 256.549 246.631 256.547 248.6C256.533 248.784 256.508 248.967 256.47 249.148Z"/>
<path d="M225.174 223.182H223.369V220.992L225.153 220.906V218.175C226.064 217.89 226.875 218.013 227.786 218.055V220.925H231.352V223.151H227.8V224.349C227.8 225.209 227.783 226.072 227.8 226.926C227.836 228.229 228.619 228.839 229.888 228.552C230.335 228.421 230.774 228.261 231.201 228.074L232.085 229.938C231.533 230.373 230.896 230.687 230.214 230.858C229.533 231.029 228.823 231.054 228.131 230.931C226.24 230.635 225.321 229.467 225.235 227.289C225.193 226.271 225.235 225.253 225.22 224.227C225.218 223.917 225.193 223.613 225.174 223.182Z"/>
<path d="M203.982 223.197H202.148V221.012L203.976 220.88V218.061H206.55V220.949H210.105V223.161H206.686C206.63 223.388 206.591 223.618 206.57 223.85C206.558 224.868 206.549 225.887 206.57 226.912C206.6 228.308 207.458 228.92 208.805 228.522C209.167 228.415 209.509 228.244 209.927 228.076C210.084 228.388 210.244 228.688 210.39 228.997C210.535 229.305 210.667 229.628 210.828 229.998C209.232 231.035 207.574 231.37 205.827 230.633C204.437 230.049 204.064 228.788 203.995 227.427C203.944 226.378 203.982 225.322 203.982 224.275C203.982 223.955 203.982 223.642 203.982 223.197Z"/>
<path d="M307.127 241.653H303.723C303.665 241.918 303.625 242.187 303.602 242.457C303.589 243.316 303.579 244.179 303.602 245.035C303.652 246.939 304.572 247.523 306.366 246.807L306.974 246.566C307.046 246.644 307.11 246.728 307.166 246.817C307.416 247.33 307.658 247.847 307.897 248.348C306.886 249.611 303.744 249.697 302.622 248.966C301.623 248.317 301.187 247.364 301.131 246.233C301.076 245.102 301.112 243.936 301.101 242.788C301.101 242.445 301.072 242.105 301.053 241.716L299.24 241.601V239.496L301.095 239.328V236.495H303.596C303.596 237.171 303.596 237.835 303.596 238.482C303.608 239.4 303.635 239.427 304.584 239.439C305.405 239.439 306.228 239.439 307.126 239.439L307.127 241.653Z"/>
<path d="M216.289 239.429H218.655C219.066 239.429 219.162 239.727 219.273 240.037C219.82 241.568 220.377 243.082 220.932 244.604C221.139 245.167 221.351 245.727 221.644 246.506C222.71 244.108 223.367 241.771 224.324 239.484H226.921C225.74 242.767 224.421 245.905 223.193 249.13H220.117L216.289 239.429Z"/>
<path d="M241.603 249.134C241.182 249.155 240.872 249.178 240.56 249.184C240.121 249.184 239.681 249.184 239.178 249.184V239.503H241.49C241.534 239.735 241.576 239.974 241.616 240.186C242.23 239.846 242.861 239.537 243.507 239.26C244.209 238.996 244.942 239.057 245.714 239.369C245.601 240.154 245.488 240.927 245.365 241.769L244.426 241.591C242.793 241.296 241.681 242.165 241.618 243.853C241.566 245.252 241.605 246.655 241.603 248.064V249.134Z"/>
</svg>
