<svg width="400" height="400" viewBox="0 0 400 400" fill="white" xmlns="http://www.w3.org/2000/svg">
<path d="M300 300H100V100H300V300ZM228.927 234.639H228.556C228.464 234.403 228.385 234.161 228.321 233.916C227.825 231.412 227.434 228.882 226.819 226.408C226.204 223.933 225.567 221.381 224.554 219.03C223.306 216.135 220.817 215.404 217.954 216.734C217.255 217.058 216.594 217.458 215.981 217.925C214.953 218.71 213.979 219.569 212.992 220.406C210.77 222.296 208.249 223.29 205.288 223.238C201.337 223.172 197.385 223.224 193.435 223.224C185.318 223.224 177.2 223.224 169.08 223.224C167.799 223.224 167.599 223.424 167.384 224.672C167.291 225.228 167.169 225.759 167.067 226.304C166.751 227.989 167.051 228.352 168.755 228.352C181.133 228.352 193.511 228.312 205.888 228.382C208.982 228.421 212.024 227.58 214.659 225.956C215.976 225.157 217.209 224.224 218.524 223.422C219.839 222.62 220.656 222.922 221.095 224.416C221.476 225.713 221.7 227.052 222.035 228.362C223.073 232.409 224.091 236.461 225.21 240.486C225.439 241.31 225.984 242.099 226.545 242.768C227.286 243.651 228.304 243.768 229.306 243.181C229.835 242.867 230.31 242.469 230.71 242.003C232.092 240.388 232.747 238.432 233.135 236.385C234.289 230.185 235.424 223.982 236.539 217.774C237.944 210.023 239.317 202.266 240.752 194.522C241.506 190.472 242.385 186.443 243.234 182.411C243.293 182.137 243.576 181.907 243.754 181.657C243.871 181.935 244.074 182.213 244.091 182.492C244.224 184.772 244.276 187.058 244.441 189.334C244.858 194.867 245.236 200.407 245.806 205.926C246.345 211.164 247.091 216.382 247.784 221.603C247.973 223.068 248.238 224.522 248.579 225.959C249.343 229.134 251.758 229.908 254.218 227.758C254.916 227.107 255.531 226.373 256.05 225.572C258.152 222.525 260.191 219.438 262.297 216.395C263.154 215.156 264.197 214.944 265.512 215.67C266.176 216.06 266.814 216.493 267.423 216.965C272.146 220.431 277.487 221.577 283.239 221.225C284.013 221.177 284.432 220.808 284.571 220.075C284.71 219.341 284.85 218.625 284.965 217.897C285.112 216.971 284.7 216.482 283.767 216.459C282.966 216.441 282.163 216.441 281.359 216.459C277.581 216.526 274.214 215.494 271.292 212.992C269.826 211.766 268.272 210.648 266.643 209.649C264.884 208.538 263.11 208.758 261.511 210.084C260.874 210.616 260.215 211.159 259.717 211.814C257.694 214.496 255.733 217.224 253.746 219.934C253.486 220.284 253.21 220.623 252.82 221.129C252.724 220.86 252.648 220.585 252.594 220.305C252.344 217.108 252.138 213.907 251.853 210.712C251.297 204.511 250.703 198.312 250.132 192.111C249.577 186.126 249.079 180.135 248.475 174.154C248.295 172.502 247.977 170.869 247.523 169.271C247.236 168.229 246.608 167.234 245.395 167.049C244.134 166.864 243.211 167.673 242.689 168.655C241.798 170.322 240.822 172.042 240.419 173.859C238.815 181.061 237.309 188.288 235.974 195.545C233.768 207.495 231.723 219.477 229.603 231.444C229.408 232.516 229.151 233.575 228.927 234.639ZM128.362 207.191V207.037C130.273 207.037 132.188 207.084 134.103 207.026C136.688 206.985 139.17 206.004 141.085 204.267C144.515 201.201 145.832 194.952 141.437 191.942C140.687 191.427 140.835 190.699 141.558 190.112C142.387 189.436 143.263 188.771 143.937 187.953C146.289 185.098 146.178 178.492 140.88 176.89C139.793 176.548 138.666 176.354 137.528 176.312C134.04 176.236 130.553 176.286 127.065 176.269C126.288 176.269 125.856 176.608 125.725 177.369C125.234 180.188 124.734 183.005 124.243 185.823C123.101 192.339 121.959 198.853 120.817 205.367C120.582 206.7 120.959 207.186 122.35 207.189C124.358 207.195 126.364 207.191 128.369 207.191H128.362ZM179.293 188.203C178.987 187.462 178.817 186.702 178.394 186.119C177.744 185.221 176.698 185.137 175.644 185.098C174.848 185.069 174.494 185.284 174.411 186.126C174.29 187.349 174.04 188.558 173.82 189.77C172.512 197.219 171.208 204.674 169.906 212.135C169.592 213.95 170.553 215.357 172.34 215.796C173.777 216.148 174.02 216 174.309 214.6C174.353 214.391 174.398 214.179 174.437 213.968C174.909 211.396 175.353 208.819 175.861 206.254C176.087 205.117 176.816 204.891 177.746 205.57C178.229 205.953 178.737 206.303 179.267 206.617C182.574 208.393 187.451 207.795 190.564 205.257C194.492 202.061 196.281 196.039 194.885 190.996C193.694 186.695 189.969 184.033 185.551 184.756C183.006 185.178 180.893 186.269 179.291 188.203H179.293ZM218.652 207.084C219.535 201.983 220.413 196.925 221.291 191.866C221.576 190.229 221.846 188.592 222.15 186.958C222.406 185.571 222.061 185.119 220.682 185.106C220.065 185.106 219.446 185.106 218.83 185.106C218.166 185.093 217.757 185.343 217.533 186.032C217.181 187.11 216.481 187.338 215.638 186.606C212.442 183.828 206.982 184.069 203.68 186.606C199.398 189.892 197.829 194.407 198.32 199.655C198.861 205.433 203.836 208.782 209.432 207.287C211.453 206.748 213.014 205.585 214.29 203.857C214.351 206.398 215.879 207.519 218.652 207.084ZM150.032 185.043C149.225 189.838 148.423 194.411 147.693 198.995C147.165 202.329 148.729 205.187 151.72 206.686C153.585 207.612 155.564 207.723 157.576 207.586C162.361 207.26 166.062 204.972 167.206 199.836C168.06 195.998 168.673 192.105 169.338 188.227C169.584 186.786 168.584 185.469 167.095 185.221C166.382 185.102 165.632 185.2 164.873 185.2C164.8 185.478 164.713 185.739 164.667 186.006C163.965 190.129 163.247 194.248 162.578 198.375C162.009 201.874 160.441 203.394 157 203.602C154.168 203.772 152.223 201.944 152.74 199.127C153.383 195.587 153.938 192.033 154.546 188.486C154.8 186.991 154.194 185.806 152.749 185.387C151.912 185.137 151.005 185.15 150.032 185.035V185.043Z"/>
<path d="M132.062 193.35C133.018 193.35 133.988 193.241 134.925 193.37C137.9 193.782 139.476 196.484 138.407 199.347C137.464 201.87 135.529 203.22 132.899 203.489C131.371 203.644 129.821 203.598 128.28 203.596C127.063 203.596 126.682 203.081 126.893 201.9C127.319 199.51 127.736 197.12 128.145 194.728C128.354 193.513 128.599 193.293 129.843 193.285C130.584 193.285 131.325 193.285 132.066 193.285L132.062 193.35Z"/>
<path d="M133.919 179.761C134.66 179.761 135.401 179.706 136.142 179.772C138.525 179.983 140.059 181.971 139.72 184.356C139.264 187.557 137.325 189.357 134.021 189.557C132.886 189.63 131.741 189.609 130.6 189.587C129.572 189.567 129.152 189.013 129.328 188.026C129.74 185.694 130.147 183.363 130.548 181.032C130.734 179.987 131.011 179.735 132.075 179.715C132.691 179.715 133.308 179.715 133.927 179.715L133.919 179.761Z"/>
<path d="M185.214 188.639C187.377 188.654 188.95 189.804 189.548 192.09C190.531 195.831 189.733 199.247 187.203 202.175C185.962 203.607 184.303 204.277 182.388 203.986C180.036 203.631 178.528 202.016 178.156 199.493C177.697 196.387 178.41 193.547 180.353 191.073C181.575 189.521 183.177 188.617 185.214 188.639Z"/>
<path d="M203.471 197.697C203.552 194.721 204.269 192.282 206.064 190.246C207.315 188.82 208.882 188.109 210.82 188.277C212.757 188.446 214.029 189.442 214.783 191.159C216.307 194.647 214.9 200.018 211.879 202.333C210.901 203.097 209.71 203.538 208.471 203.595C206.064 203.723 204.258 202.219 203.711 199.589C203.563 198.87 203.528 198.127 203.471 197.697Z"/>
</svg>
