<svg viewBox="0 0 400 400" xmlns="http://www.w3.org/2000/svg">
<path d="M272.421 153C271.705 154.563 271.007 156.136 270.267 157.688C266.123 166.401 261.972 175.111 257.816 183.818C257.714 184.03 257.624 184.249 257.49 184.548H270.653V189.745H264.931V205.703C263.062 205.703 261.278 205.717 259.495 205.676C259.358 205.676 259.121 205.294 259.115 205.085C259.08 203.747 259.096 202.408 259.096 201.07C259.096 197.589 259.096 194.108 259.096 190.628V189.789C257.755 189.789 256.505 189.768 255.257 189.81C255.076 189.81 254.838 190.091 254.74 190.295C253.311 193.249 251.902 196.211 250.488 199.171C250.373 199.411 250.248 199.646 250.098 199.944L247.377 198.311C246.051 199.989 244.318 200.864 242.159 200.709C240.651 200.601 239.392 199.904 238.411 198.765C236.407 196.438 236.608 193.189 238.819 191.074C240.797 189.175 244.65 188.632 247.413 191.95L252.128 189.089C250.86 187.261 249.074 185.847 246.997 185.026C241.556 182.844 235.341 184.774 232.438 189.59C228.436 196.233 232.428 204.242 239.834 205.879C242.511 206.471 245.08 206.064 247.743 204.949C240.889 219.324 234.1 233.557 227.244 247.932L207.099 205.71C208.3 205.71 209.379 205.736 210.452 205.691C210.698 205.681 211.061 205.481 211.158 205.272C214.301 198.507 217.425 191.733 220.531 184.951C220.558 184.856 220.576 184.758 220.584 184.659C220.333 184.646 220.1 184.624 219.868 184.623C218.272 184.623 216.675 184.65 215.081 184.608C214.482 184.592 214.178 184.777 213.925 185.328C212.332 188.794 210.699 192.241 209.077 195.698C209.025 195.807 208.962 195.91 208.851 196.11C208.428 195.226 208.033 194.416 207.65 193.599C206.344 190.805 205.033 188.011 203.745 185.208C203.546 184.77 203.303 184.602 202.808 184.612C201.09 184.649 199.371 184.612 197.652 184.636C197.191 184.636 196.954 184.481 196.761 184.073C191.836 173.709 186.905 163.351 181.967 153H272.421ZM222.375 205.617H228.045V184.694H222.375V205.617Z"/>
<path d="M349.175 205.726C347.31 205.719 345.443 205.697 343.577 205.717C343.095 205.717 342.761 205.63 342.656 205.126C342.317 203.502 341.309 203.055 339.71 203.227C338.205 203.386 336.669 203.287 335.143 203.248C334.637 203.234 334.344 203.394 334.238 203.86C333.888 205.421 332.956 205.942 331.348 205.744C329.995 205.576 328.605 205.709 327.104 205.709C327.214 205.436 327.289 205.225 327.383 205.022C330.456 198.439 333.527 191.855 336.594 185.27C336.832 184.754 337.098 184.611 337.665 184.539C338.991 184.376 339.598 184.891 340.14 186.089C342.962 192.33 345.898 198.523 348.798 204.73C348.91 204.973 349.05 205.2 349.176 205.436L349.175 205.726ZM338.273 194.062L338.045 194.08C337.494 195.558 336.941 197.036 336.383 198.531H339.953C339.366 196.989 338.815 195.526 338.273 194.062Z"/>
<path d="M51 178.56L53.9935 174.434C55.8498 175.602 57.815 176.24 59.9953 176.078C60.3113 176.053 60.6199 175.97 60.9058 175.834C61.9532 175.336 62.099 174.02 61.1061 173.435C60.3415 172.985 59.4502 172.738 58.6017 172.424C57.1874 171.897 55.6744 171.548 54.3633 170.841C50.533 168.753 50.2619 163.665 53.774 161.055C55.3209 159.913 57.0931 159.371 58.9847 159.318C61.5142 159.25 63.9641 159.698 66.2181 160.887C66.4347 161.001 66.6394 161.134 66.8471 161.262C66.9267 161.312 66.9945 161.378 67.1418 161.49L64.4547 165.347C62.9653 164.937 61.5731 164.509 60.1559 164.179C59.6535 164.065 59.0834 164.156 58.5604 164.245C57.8695 164.362 57.4202 164.788 57.3362 165.511C57.2522 166.234 57.6765 166.64 58.2584 166.839C59.4119 167.232 60.592 167.553 61.7661 167.883C63.2584 168.305 64.7257 168.796 65.8748 169.881C67.7428 171.645 68.0154 173.871 67.4703 176.207C66.9311 178.519 65.2266 179.844 63.0213 180.412C58.8079 181.506 54.7714 180.908 51 178.706V178.56Z"/>
<path d="M271.645 195.136C271.82 190.462 274.13 187.144 278.357 185.195C283.219 182.955 288.84 184.135 292.5 188.016C296.772 192.543 296.027 199.826 290.892 203.711C285.182 208.03 276.75 206.506 273.118 200.497C272.134 198.881 271.624 197.024 271.645 195.136ZM277.868 195.136C277.868 198.18 280.445 200.73 283.482 200.686C286.52 200.642 289.049 198.155 289.069 195.161C289.089 192.139 286.545 189.596 283.47 189.573C280.396 189.549 277.871 192.089 277.871 195.139L277.868 195.136Z"/>
<path d="M92.6515 159.504V180.405H87.0121V170.683L81.5701 174.577L76.1811 170.716V180.415H70.4961V159.475C71.9958 160.544 73.4219 161.558 74.845 162.577C76.8706 164.028 78.908 165.465 80.9072 166.949C81.4051 167.317 81.7277 167.312 82.233 166.949C85.4903 164.572 88.7755 162.233 92.0519 159.884C92.2213 159.761 92.4069 159.658 92.6515 159.504Z"/>
<path d="M303.774 199.951V205.648H297.979V184.616C298.217 184.598 298.431 184.57 298.644 184.57C301.687 184.57 304.729 184.557 307.778 184.57C311.617 184.589 314.752 187.063 315.504 190.776C316.105 193.744 315.04 196.163 312.721 198.079C312.515 198.248 312.301 198.409 312.03 198.621C312.619 199.789 313.208 200.953 313.798 202.112C314.387 203.28 314.976 204.448 315.61 205.706C313.452 205.706 311.399 205.719 309.349 205.683C309.173 205.683 308.941 205.382 308.84 205.171C308.104 203.615 307.378 202.049 306.681 200.471C306.507 200.076 306.289 199.922 305.854 199.946C305.199 199.978 304.537 199.951 303.774 199.951ZM303.804 194.756C305.003 194.756 306.125 194.765 307.248 194.756C308.446 194.746 309.402 193.805 309.542 192.523C309.665 191.395 308.843 189.967 307.818 189.866C306.492 189.738 305.149 189.836 303.804 189.836V194.756Z"/>
<path d="M51.6094 205.422V184.84C51.7078 184.81 51.8089 184.79 51.9114 184.779C55.2246 184.795 58.5408 184.747 61.851 184.852C65.3499 184.961 67.8248 188.074 67.0617 191.258C66.8054 192.327 66.1203 193.108 65.2791 193.774C65.0876 193.92 64.8917 194.066 64.6309 194.268C64.8298 194.388 64.9757 194.49 65.1333 194.57C67.4904 195.758 68.6086 197.592 68.3331 199.799C67.9589 202.805 66.3958 204.666 63.7411 205.263C63.4581 205.343 63.1672 205.392 62.8734 205.409C59.1448 205.425 55.4176 205.422 51.6094 205.422ZM57.234 200.76C58.4715 200.76 59.6427 200.792 60.8109 200.75C61.6462 200.719 62.4108 199.78 62.4845 198.809C62.5537 197.879 61.8775 196.764 61.0467 196.703C59.7915 196.612 58.526 196.679 57.234 196.679V200.76ZM57.234 192.727C58.2653 192.727 59.2111 192.753 60.1613 192.72C60.9229 192.692 61.5593 191.947 61.5888 191.131C61.6138 190.449 61.0525 189.564 60.4559 189.524C59.3952 189.47 58.3257 189.514 57.2326 189.514L57.234 192.727Z"/>
<path d="M131.753 193.977V184.826H137.414V205.79L125.558 196.311V205.393H119.854V184.468L131.753 193.977Z"/>
<path d="M146.52 200.341H156.334V205.405H140.783V184.84H156.342V189.86H146.489V192.581H153.637V197.591H146.52V200.341Z"/>
<path d="M70.8167 184.818H76.5533V185.684C76.5533 189.649 76.5533 193.616 76.5533 197.584C76.5533 199.31 77.1765 200.331 78.4684 200.773C80.8005 201.575 82.7923 200.17 82.804 197.677C82.8232 193.687 82.804 189.697 82.804 185.701V184.808H88.5804V185.584C88.5804 189.696 88.5804 193.808 88.5804 197.921C88.5804 202.533 85.5412 205.644 80.883 205.877C78.8279 205.979 76.8155 205.877 74.9239 204.978C72.1249 203.642 70.8638 201.274 70.7887 198.343C70.6752 193.918 70.7519 189.488 70.7519 185.052C70.7645 184.972 70.7862 184.894 70.8167 184.818Z"/>
<path d="M193.546 186.482L190.853 190.327C189.262 189.912 187.796 189.483 186.304 189.169C185.807 189.065 185.234 189.203 184.72 189.325C184.114 189.471 183.792 189.91 183.724 190.539C183.656 191.169 184.001 191.597 184.531 191.789C185.515 192.149 186.538 192.4 187.532 192.731C188.665 193.11 189.841 193.418 190.899 193.951C193.382 195.203 194.229 197.373 194.059 200.022C193.911 202.387 192.672 204.011 190.545 204.999C188.359 206.021 186.036 206.053 183.699 205.815C181.841 205.645 180.034 205.119 178.378 204.265C178.057 204.096 177.749 203.899 177.355 203.669L180.376 199.405C181.82 200.404 183.516 200.986 185.274 201.084C185.976 201.133 186.68 201.027 187.336 200.773C188.332 200.363 188.463 199.167 187.607 198.527C187.096 198.143 186.455 197.899 185.84 197.686C184.478 197.212 183.07 196.868 181.731 196.345C179.763 195.577 178.291 194.277 177.862 192.109C177.304 189.289 178.506 186.872 181.089 185.458C183.276 184.259 185.624 184.164 188.021 184.465C189.705 184.653 191.333 185.178 192.806 186.008C193.036 186.143 193.253 186.301 193.546 186.482Z"/>
<path d="M174.733 186.345L171.801 190.527C170.375 189.764 168.909 189.241 167.327 189.159C166.769 189.141 166.213 189.216 165.68 189.38C165.113 189.546 164.743 190.047 164.84 190.607C164.912 191.023 165.22 191.578 165.577 191.733C166.552 192.159 167.608 192.4 168.628 192.732C169.647 193.063 170.701 193.332 171.668 193.778C174.173 194.929 175.251 196.979 175.183 199.658C175.119 202.191 173.921 204.08 171.559 205.004C167.031 206.777 162.704 205.957 158.402 203.734C159.47 202.228 160.465 200.831 161.462 199.414C162.916 200.404 164.613 200.985 166.374 201.094C166.981 201.119 167.59 201.059 168.18 200.914C168.818 200.768 169.152 200.287 169.22 199.646C169.288 199.005 168.955 198.541 168.411 198.297C167.636 197.949 166.823 197.679 166.017 197.403C164.932 197.03 163.807 196.746 162.753 196.313C160.413 195.357 158.949 193.715 158.837 191.092C158.718 188.249 160.213 186.405 162.65 185.238C165.429 183.909 168.333 184.134 171.194 184.919C172.39 185.242 173.489 185.834 174.733 186.345Z"/>
<path d="M107.524 186.489L104.834 190.329C103.27 189.918 101.808 189.479 100.319 189.175C99.7783 189.065 99.1522 189.214 98.5983 189.368C98.0444 189.521 97.7423 189.984 97.6967 190.577C97.666 190.836 97.728 191.097 97.8718 191.315C98.0156 191.532 98.2321 191.693 98.4834 191.769C99.4675 192.125 100.484 192.393 101.477 192.726C102.608 193.104 103.781 193.412 104.846 193.932C107.256 195.109 108.193 197.199 108.055 199.758C107.887 202.825 106.157 204.826 102.987 205.541C99.1993 206.393 95.5458 205.895 92.0853 204.119C91.8496 203.998 91.6301 203.845 91.3398 203.668L94.3466 199.432C96.2471 200.608 98.2314 201.273 100.443 201.073C100.735 201.048 101.02 200.97 101.284 200.843C102.352 200.31 102.462 198.945 101.419 198.395C100.481 197.902 99.4247 197.626 98.4185 197.261C97.3181 196.863 96.1631 196.577 95.1201 196.067C90.7933 193.952 90.4883 188.472 94.5131 185.814C95.8234 184.945 97.3478 184.447 98.9224 184.373C101.869 184.218 104.68 184.7 107.224 186.285C107.303 186.328 107.379 186.387 107.524 186.489Z"/>
<path d="M116.33 180.459C114.31 180.459 112.423 180.47 110.536 180.44C110.341 180.44 110.016 180.207 109.982 180.039C109.631 178.269 108.494 177.917 106.853 178.075C105.396 178.221 103.906 178.119 102.44 178.095C102.034 178.088 101.769 178.198 101.691 178.595C101.368 180.241 100.343 180.67 98.7442 180.494C97.4419 180.348 96.1071 180.464 94.6914 180.464C94.7989 180.19 94.8652 179.991 94.9536 179.803C97.9766 173.327 100.994 166.854 104.006 160.386C104.213 159.948 104.448 159.843 104.924 159.773C106.306 159.567 106.94 160.126 107.507 161.39C110.254 167.5 113.134 173.553 115.967 179.626C116.078 179.863 116.176 180.105 116.33 180.459ZM105.617 169.095L105.393 169.087C104.851 170.537 104.308 171.986 103.752 173.477H107.262L105.617 169.095Z"/>
<path d="M123.973 175.374H133.453V180.407H118.369V159.865H123.967L123.973 175.374Z"/>
<path d="M135.865 180.418V159.865H141.463V175.371H150.911V180.418H135.865Z"/>
<path d="M324.237 205.674H318.531V184.606H324.241L324.237 205.674Z"/>
<path d="M110.859 184.818H116.49V205.383H110.859V184.818Z"/>
</svg>
