<svg viewBox="0 0 400 400" xmlns="http://www.w3.org/2000/svg">
<path d="M143.935 183.952C148.224 183.789 152.508 184.396 156.583 185.743C165.626 188.793 171.383 194.938 173.72 204.199C175.353 210.667 175.153 217.116 172.953 223.413C170.3 231.018 165.074 236.265 157.496 238.897C148.113 242.15 138.631 242.15 129.379 238.422C120.363 234.79 115.427 227.771 113.776 218.313C112.871 213.308 113.132 208.161 114.54 203.274C117.328 193.655 123.777 187.754 133.343 185.164C136.791 184.222 140.363 183.814 143.935 183.952ZM148.991 212.401H149.029C149.029 209.219 149.074 206.038 149.014 202.85C148.97 200.221 148.892 197.585 148.653 194.968C148.505 193.489 148.17 192.035 147.656 190.64C147.352 189.86 146.791 189.206 146.066 188.787C143.609 187.477 140.756 188.647 140.007 191.315C139.506 193.079 139.199 194.892 139.091 196.723C138.876 200.692 138.772 204.666 138.778 208.643C138.798 215.101 138.927 221.563 139.076 228.018C139.144 229.358 139.317 230.69 139.592 232.003C139.747 232.88 139.995 233.739 140.332 234.563C140.849 235.808 141.825 236.536 143.213 236.551C143.809 236.551 144.406 236.551 145.003 236.53C145.479 236.521 145.944 236.383 146.35 236.133C146.755 235.883 147.085 235.528 147.307 235.107C147.681 234.521 147.944 233.873 148.086 233.194C148.444 230.806 148.883 228.386 148.955 225.971C149.089 221.447 148.991 216.922 148.991 212.398V212.401Z"/>
<path d="M264.578 233.456C263.942 234.247 263.423 234.979 262.817 235.626C259.743 238.909 255.86 240.452 251.449 240.858C248.268 241.185 245.056 240.753 242.075 239.599C238.102 238.044 235.168 235.42 234.24 231.099C233.1 225.765 234.539 219.88 239.845 216.501C243.2 214.365 246.9 213.081 250.688 212.025C254.475 210.968 258.376 210.052 262.223 209.067C262.644 208.96 263.056 208.822 263.509 208.688C263.536 208.151 263.587 207.709 263.578 207.27C263.485 203.39 263.408 199.511 263.279 195.646C263.225 194.704 263.084 193.768 262.859 192.852C262.208 189.954 259.916 187.817 256.654 187.808C253.669 187.808 251.264 189.39 250.437 192.637C249.891 194.783 249.781 197.042 249.446 199.248C249.274 200.44 248.703 201.539 247.826 202.366C246.949 203.192 245.818 203.696 244.617 203.796C242.328 203.981 239.944 202.492 239.371 200.215C239.09 199.013 239.09 197.763 239.371 196.562C240.155 193.201 242.421 190.811 245.065 188.775C250.491 184.597 256.633 183.105 263.423 183.842C266.822 184.215 270.087 184.943 273.122 186.528C279.435 189.811 283.037 195.111 284.332 202C284.721 204.2 284.921 206.43 284.929 208.664C285.01 214.23 284.965 219.802 284.962 225.377C284.962 229.039 285.386 232.594 287.099 235.928C287.994 237.668 287.224 239.258 285.308 239.957C281.234 241.449 277.131 241.318 273.027 240.067C269.138 238.885 267.097 237.298 264.578 233.456ZM263.721 220.107H263.59C263.59 218.221 263.62 216.334 263.59 214.436C263.557 212.866 262.742 212.413 261.343 213.159C260.325 213.688 259.433 214.429 258.726 215.331C258.019 216.233 257.513 217.277 257.242 218.391C256.529 221.077 256.52 223.799 256.72 226.52C256.825 227.705 257.136 228.863 257.639 229.941C258.573 231.997 260.623 232.254 262.017 230.457C262.678 229.603 263.107 228.594 263.265 227.526C263.563 225.064 263.587 222.581 263.721 220.107Z"/>
<path d="M108.902 197.463V235.507C108.902 235.955 108.902 236.402 108.902 236.85C108.846 238.593 108.076 239.461 106.315 239.721C105.774 239.794 105.228 239.829 104.682 239.825C99.8554 239.825 95.0314 239.825 90.2105 239.825C89.4656 239.833 88.7218 239.767 87.99 239.628C87.447 239.525 86.9558 239.239 86.5984 238.818C86.241 238.396 86.039 237.865 86.0262 237.312C85.9993 236.966 86.0262 236.614 86.0262 236.268V161.673C86.0262 161.574 86.0262 161.473 86.0262 161.375C85.8411 159.632 86.6231 158.444 88.8316 158.035C91.0401 157.626 93.3084 157.22 95.5647 156.808C98.576 156.256 101.599 155.692 104.626 155.155C105.21 155.039 105.806 154.987 106.401 155.003C107.029 155.015 107.631 155.259 108.088 155.69C108.546 156.12 108.828 156.704 108.879 157.331C108.912 157.827 108.92 158.325 108.902 158.823V197.463Z"/>
<path d="M291.059 197.32V158.82C291.059 158.372 291.038 157.924 291.059 157.477C291.175 155.985 292.199 154.934 293.691 155.009C295.124 155.122 296.547 155.326 297.953 155.62C302.361 156.417 306.749 157.229 311.139 158.035C313.362 158.441 313.977 159.632 313.974 161.369C313.938 186.439 313.929 211.501 313.947 236.557C313.947 238.742 313.162 239.634 310.963 239.778C309.327 239.882 307.68 239.828 306.041 239.828C302.659 239.828 299.276 239.828 295.894 239.828C295.497 239.828 295.1 239.828 294.7 239.828C292.181 239.796 291.026 238.844 291.041 236.11C291.092 223.178 291.059 210.249 291.059 197.32Z"/>
<path d="M227.011 213.128C226.849 212.681 226.722 212.222 226.629 211.755C226.39 209.556 225.137 208.234 223.072 207.658C221.543 207.231 219.977 206.95 218.452 206.512C217.158 206.162 215.893 205.718 214.664 205.183C211.524 203.76 209.692 200.181 210.36 196.964C211.139 193.222 214.097 190.604 217.756 190.577C218.931 190.541 220.098 190.784 221.16 191.286C222.223 191.788 223.151 192.535 223.868 193.466C224.603 194.391 225.214 195.418 225.99 196.561C225.886 194.633 225.127 192.798 223.839 191.359C219.553 186.399 211.005 186.453 206.764 191.446C205.741 192.674 205.039 194.138 204.723 195.705C203.442 201.629 203.284 207.643 203.562 213.651C203.666 216.14 204.239 218.587 205.251 220.864C207.322 225.484 210.859 227.94 215.924 228.161C218.013 228.251 220.102 228.215 222.116 227.54C224.313 226.809 226.128 225.615 227.304 223.547C227.9 222.476 228.575 222.204 229.485 222.485C230.315 222.738 230.751 223.467 230.634 224.648C230.365 227.338 229.323 229.893 227.632 232.002C224.203 236.393 219.607 238.885 214.246 240.061C206.275 241.798 198.706 240.741 191.773 236.351C184.771 231.898 180.626 225.469 179.101 217.313C178.139 212.156 178.499 206.839 180.145 201.859C182.67 194.051 188.001 188.891 195.623 186.02C201.108 183.955 206.815 183.456 212.62 183.632C216.557 183.71 220.417 184.741 223.868 186.638C228.363 189.121 231.21 192.869 231.804 198.042C232.401 203.133 230.989 207.783 228.184 212.036C228.02 212.284 227.836 212.518 227.635 212.737C227.441 212.888 227.232 213.019 227.011 213.128Z"/>
</svg>
