<svg viewBox="0 0 400 400" xmlns="http://www.w3.org/2000/svg">
<path d="M66.7925 214.278C69.1235 214.278 71.2214 213.928 73.2028 213.171C75.1841 212.471 76.8158 211.422 78.2144 210.024C79.613 208.625 80.662 206.994 81.4195 205.012C82.1188 203.031 82.5268 200.875 82.5268 198.544C82.5268 196.213 82.1188 194.115 81.4195 192.134C80.662 190.152 79.613 188.52 78.2144 187.122C76.8158 185.723 75.1841 184.674 73.2028 183.917C71.2214 183.217 69.1235 182.81 66.7925 182.81C64.4615 182.81 62.3053 183.217 60.324 183.917C58.3426 184.674 56.7109 185.723 55.3123 187.122C53.9137 188.52 52.8065 190.152 52.1072 192.134C51.3496 194.115 51 196.213 51 198.544C51 200.875 51.3496 203.031 52.1072 205.012C52.8065 206.994 53.9137 208.625 55.3123 210.024C56.7109 211.422 58.3426 212.471 60.324 213.171C62.3053 213.928 64.4615 214.278 66.7925 214.278ZM66.7925 206.994C65.8601 206.994 64.8694 206.819 63.8205 206.353C62.7715 205.945 61.8974 205.071 61.1981 203.73C60.4988 202.39 60.2074 200.642 60.2074 198.544C60.2074 196.446 60.4988 194.756 61.1981 193.416C61.8974 192.075 62.7715 191.201 63.8205 190.735C64.8694 190.327 65.8601 190.094 66.7925 190.094C68.0163 190.094 69.1235 190.385 70.0559 190.91C70.9883 191.493 71.8042 192.367 72.3869 193.59C72.9697 194.814 73.3193 196.446 73.3193 198.544C73.3193 200.642 72.9697 202.39 72.2704 203.73C71.5711 205.071 70.7552 205.945 69.7063 206.353C68.6573 206.819 67.6666 206.994 66.7925 206.994Z"/>
<path d="M104.489 182.81C100.468 182.81 97.4374 184.383 95.3978 187.53V183.509H86.54V225H95.6309V209.907C97.6705 212.821 100.643 214.278 104.489 214.278C108.51 214.278 111.715 212.879 114.046 210.024C116.377 207.168 117.601 203.322 117.601 198.544C117.601 193.765 116.377 189.977 114.046 187.122C111.715 184.266 108.51 182.81 104.489 182.81ZM101.983 206.994C99.8849 206.994 98.3115 206.294 97.2043 204.896C96.0388 203.497 95.5143 201.341 95.5143 198.544C95.5143 195.747 96.0388 193.649 97.2043 192.25C98.3115 190.851 99.8849 190.094 101.983 190.094C104.022 190.094 105.596 190.793 106.703 192.134C107.81 193.532 108.393 195.572 108.393 198.311C108.393 201.108 107.81 203.264 106.703 204.779C105.538 206.294 103.964 206.994 101.983 206.994Z"/>
<path d="M151.375 199.418C151.375 196.97 150.967 194.698 150.267 192.6C149.51 190.56 148.461 188.812 147.12 187.355C145.722 185.898 144.09 184.791 142.167 183.975C140.244 183.217 138.146 182.81 135.873 182.81C133.542 182.81 131.444 183.217 129.521 183.917C127.598 184.674 125.967 185.723 124.626 187.122C123.228 188.52 122.179 190.21 121.479 192.134C120.722 194.115 120.372 196.213 120.372 198.544C120.372 200.875 120.722 203.031 121.479 205.012C122.237 206.994 123.286 208.625 124.685 210.024C126.083 211.422 127.715 212.471 129.638 213.171C131.561 213.928 133.659 214.278 135.99 214.278C139.603 214.278 142.75 213.404 145.43 211.597C148.111 209.791 149.859 207.343 150.675 204.196H142.051C140.943 206.469 138.904 207.576 135.99 207.576C134.125 207.576 132.61 207.052 131.386 205.945C130.162 204.896 129.405 203.322 129.113 201.224H151.375V199.418ZM135.757 189.511C137.505 189.511 139.02 190.036 140.186 191.085C141.351 192.134 142.109 193.59 142.458 195.455H129.172C129.521 193.474 130.279 192.017 131.444 191.026C132.61 190.036 134.009 189.511 135.757 189.511Z"/>
<path d="M173.926 182.81C171.886 182.81 170.08 183.276 168.448 184.208C166.816 185.141 165.534 186.306 164.485 187.763V183.509H155.628V213.579H164.719V196.796C164.719 194.814 165.243 193.241 166.409 192.192C167.574 191.143 168.914 190.56 170.43 190.56C173.635 190.56 175.266 192.308 175.266 195.688V213.579H184.357V193.882C184.357 191.667 183.949 189.744 183.133 188.113C182.318 186.481 181.152 185.199 179.637 184.266C178.064 183.334 176.14 182.81 173.926 182.81Z"/>
<path d="M209.703 214.277C211.335 214.277 212.966 213.986 214.598 213.403C216.23 212.82 217.57 211.888 218.736 210.664C219.901 209.44 220.717 208.217 221.242 206.935C221.766 205.653 222.116 204.429 222.29 203.263H218.911C218.503 205.711 217.454 207.692 215.764 209.149C214.015 210.606 212.034 211.305 209.703 211.305C207.489 211.305 205.624 210.781 204.109 209.615C202.594 208.508 201.428 206.993 200.67 205.128C199.913 203.263 199.563 201.107 199.563 198.543C199.563 196.037 199.913 193.823 200.67 191.958C201.428 190.093 202.594 188.636 204.109 187.471C205.624 186.364 207.489 185.781 209.703 185.781C210.752 185.781 211.976 186.014 213.258 186.48C214.54 186.946 215.705 187.762 216.754 188.986C217.803 190.268 218.503 191.725 218.852 193.415H222.232C221.766 190.268 220.367 187.704 218.153 185.723C215.938 183.8 213.083 182.809 209.703 182.809C205.624 182.809 202.302 184.266 199.855 187.121C197.349 189.977 196.125 193.765 196.125 198.543C196.125 203.322 197.349 207.168 199.855 210.023C202.302 212.879 205.624 214.277 209.703 214.277Z"/>
<path d="M239.988 214.277C241.97 214.277 243.893 213.928 245.641 213.17C247.389 212.412 248.846 211.364 250.128 209.965C251.352 208.566 252.284 206.935 252.984 204.953C253.683 202.972 254.033 200.874 254.033 198.543C254.033 196.27 253.683 194.172 252.984 192.191C252.284 190.21 251.352 188.578 250.128 187.179C248.846 185.781 247.389 184.732 245.641 183.974C243.893 183.217 241.97 182.809 239.988 182.809C237.949 182.809 235.967 183.275 234.044 184.091C232.063 184.965 230.489 186.247 229.207 187.995C227.925 189.744 227.11 191.492 226.643 193.298C226.177 195.105 226.002 196.853 226.002 198.543C226.002 200.874 226.294 202.972 226.993 204.953C227.692 206.935 228.625 208.566 229.907 209.965C231.13 211.364 232.587 212.412 234.336 213.17C236.084 213.928 237.949 214.277 239.988 214.277ZM239.988 211.305C236.783 211.305 234.219 210.198 232.296 207.867C230.373 205.536 229.441 202.447 229.441 198.543C229.441 194.697 230.373 191.608 232.296 189.277C234.219 186.946 236.783 185.781 239.988 185.781C243.193 185.781 245.758 186.946 247.681 189.277C249.604 191.608 250.594 194.697 250.594 198.543C250.594 202.447 249.604 205.536 247.681 207.867C245.758 210.198 243.193 211.305 239.988 211.305Z"/>
<path d="M279.44 183.508V200.35C279.44 202.214 279.149 203.788 278.624 205.186C278.1 206.585 277.4 207.75 276.526 208.683C275.652 209.615 274.661 210.256 273.612 210.664C272.505 211.13 271.398 211.305 270.233 211.305C267.668 211.305 265.687 210.664 264.288 209.266C262.89 207.867 262.249 205.827 262.249 203.03V183.508H258.927V203.322C258.927 206.818 259.86 209.557 261.724 211.422C263.589 213.345 266.212 214.277 269.591 214.277C271.806 214.277 273.787 213.753 275.536 212.587C277.284 211.422 278.682 209.907 279.615 207.984V213.578H282.762V183.508H279.44Z"/>
<path d="M303.292 183.1C300.728 183.1 298.571 183.741 296.823 185.023C295.075 186.305 293.735 187.937 292.919 189.802V183.508H289.772V213.578H293.094V196.737C293.094 193.59 293.968 191.026 295.833 189.161C297.697 187.296 300.261 186.305 303.583 186.305H304.982V183.158L303.292 183.1Z"/>
<path d="M322.393 186.422V183.508H315.4V175H312.136V183.508H307.008V186.422H312.136V207.576C312.136 211.713 314.467 213.753 319.246 213.753C320.237 213.753 321.285 213.695 322.393 213.578V210.781L319.654 210.839C318.139 210.839 317.031 210.548 316.39 209.965C315.691 209.382 315.4 208.45 315.4 207.284V186.422H322.393Z"/>
<path d="M337.311 214.277C340.865 214.277 343.721 213.578 345.819 212.063C347.917 210.548 349.024 208.392 349.024 205.536C349.024 203.205 348.208 201.399 346.693 200.058C345.178 198.718 342.672 197.727 339.234 197.086L336.203 196.562C333.756 196.096 332.008 195.454 330.842 194.639C329.677 193.823 329.094 192.599 329.094 190.967C329.094 190.21 329.269 189.394 329.735 188.52C330.143 187.704 330.959 187.005 332.182 186.48C333.348 185.956 334.805 185.664 336.553 185.664C339.35 185.664 341.39 186.189 342.788 187.238C344.129 188.287 344.886 189.918 345.061 192.133H348.441C348.266 189.219 347.217 186.888 345.294 185.256C343.313 183.625 340.399 182.809 336.553 182.809C333.173 182.809 330.551 183.566 328.628 185.023C326.705 186.538 325.772 188.52 325.772 191.026C325.772 193.357 326.53 195.221 328.045 196.62C329.56 198.019 331.949 198.951 335.213 199.534L338.301 200.058C340.982 200.524 342.847 201.224 344.012 202.098C345.119 203.03 345.702 204.196 345.702 205.711C345.702 207.692 344.945 209.091 343.429 210.023C341.914 210.956 339.875 211.422 337.311 211.422C334.339 211.422 332.124 210.839 330.667 209.674C329.21 208.508 328.395 206.702 328.22 204.254H324.84C325.015 207.459 326.18 209.907 328.278 211.655C330.376 213.403 333.406 214.277 337.311 214.277Z"/>
</svg>
