<svg width="400" height="400" viewBox="0 0 400 400" fill="white" xmlns="http://www.w3.org/2000/svg">
<g>
<path d="M198.073 100H202.138C202.431 100.036 202.724 100.088 203.018 100.102C204.182 100.154 205.349 100.157 206.509 100.245C209.857 100.498 213.194 100.846 216.502 101.408C219.381 101.898 222.245 102.482 225.08 103.196C227.916 103.91 230.708 104.79 233.461 105.755C235.708 106.546 237.93 107.397 240.107 108.365C243.75 109.971 247.299 111.784 250.736 113.794C266.508 123.075 279.446 136.483 288.153 152.573C289.739 155.5 291.174 158.505 292.453 161.578C294.119 165.575 295.522 169.675 296.654 173.854C297.562 177.197 298.286 180.588 298.82 184.01C299.35 187.408 299.817 190.812 299.868 194.26C299.892 194.634 299.936 195.007 300 195.377V204.636C299.939 204.979 299.896 205.325 299.872 205.672C299.827 207.704 299.651 209.723 299.413 211.741C299.088 214.457 298.661 217.155 298.13 219.836C297.51 222.967 296.73 226.065 295.793 229.117C295.09 231.392 294.333 233.648 293.476 235.869C283.997 260.44 265.221 280.295 241.209 291.139C236.469 293.272 231.572 295.036 226.561 296.417C223.851 297.173 221.102 297.771 218.333 298.279C215.426 298.812 212.505 299.221 209.568 299.504C208.355 299.621 207.137 299.673 205.923 299.78C205.471 299.819 204.997 299.765 204.578 300.009H195.636C195.216 299.765 194.741 299.822 194.289 299.78C192.321 299.594 190.35 299.441 188.383 299.245C185.311 298.929 182.274 298.382 179.249 297.764C174.585 296.789 169.999 295.469 165.53 293.813C160.447 291.945 155.526 289.661 150.819 286.983C131.937 276.263 117.039 259.715 108.36 239.82C104.001 229.8 101.329 219.128 100.452 208.237C100.337 206.671 100.237 205.104 100.146 203.538C100.083 202.483 100.012 201.43 99.9986 200.379C99.9681 197.561 100.224 194.754 100.434 191.948C100.798 187.335 101.484 182.754 102.487 178.237C103.477 173.737 104.788 169.314 106.407 165.001C110.432 154.256 116.275 144.283 123.683 135.519C129.253 128.94 135.647 123.104 142.706 118.155C148.536 114.055 154.788 110.593 161.357 107.829C166.745 105.551 172.328 103.765 178.038 102.493C181.74 101.67 185.485 101.051 189.256 100.64C191.862 100.361 194.481 100.152 197.111 100.103C197.433 100.098 197.753 100.036 198.073 100ZM200.143 205.43C200.143 205.93 200.122 206.251 200.122 206.573V236.787C200.122 237.057 200.122 237.33 200.122 237.599C200.108 237.721 200.083 237.842 200.048 237.96C199.756 238.117 199.48 238.075 199.216 238.058C198.081 237.982 196.947 237.911 195.813 237.806C193.523 237.571 191.264 237.097 189.073 236.389C186.32 235.527 183.746 234.273 181.258 232.826C178.958 231.488 176.815 229.926 174.7 228.325C172.454 226.632 170.234 224.892 167.98 223.206C166.106 221.774 164.067 220.572 161.908 219.626C159.211 218.475 156.415 217.994 153.493 218.356C150.909 218.678 148.504 219.558 146.195 220.726C146.132 220.768 146.075 220.819 146.026 220.877C146.4 222.496 148.656 227.272 151.007 230.967C154.727 236.835 159.463 241.994 164.994 246.202C176.535 255.008 190.976 259.138 205.432 257.766C219.574 256.412 231.631 250.623 241.624 240.553C250.668 231.438 255.451 219.976 256.835 212.079C254.222 209.965 251.585 207.848 248.897 205.723C244.795 208.966 240.767 212.24 236.692 215.475C236.499 215.346 236.335 215.255 236.184 215.136C234.661 213.919 233.141 212.699 231.623 211.478C229.404 209.7 227.186 207.923 224.967 206.146C224.784 206.001 224.628 205.776 224.305 205.808C220.272 209.024 216.231 212.283 212.129 215.548L210.123 213.838L208.143 212.154C207.506 211.61 206.868 211.065 206.23 210.519C205.572 209.955 204.917 209.388 204.258 208.826C203.599 208.264 202.94 207.7 202.273 207.148C201.606 206.597 201.01 205.996 200.143 205.43ZM220.988 180.154C220.748 180.036 220.58 179.961 220.421 179.87C219.134 179.119 217.781 178.488 216.378 177.986C214.576 177.348 212.727 176.97 210.803 177.052C208.894 177.106 207.044 177.728 205.491 178.839C205.351 178.941 205.152 179.017 205.174 179.239C205.197 179.263 205.222 179.285 205.251 179.303C205.42 179.372 205.601 179.442 205.779 179.504C207.398 180.051 208.929 180.829 210.325 181.813C214.473 184.831 216.409 188.941 216.332 194.037C216.332 194.206 216.382 194.419 216.144 194.578C215.995 194.444 215.836 194.312 215.692 194.165C214.291 192.731 212.794 191.395 211.211 190.165C209.902 189.15 208.533 188.23 207.005 187.57C206.108 187.181 205.185 186.878 204.192 186.841C202.888 186.792 201.821 187.244 200.986 188.271C200.854 188.423 200.761 188.605 200.716 188.802C200.671 188.998 200.675 189.202 200.729 189.397C201.185 191.624 201.394 193.895 201.354 196.168C201.354 197.014 201.332 197.845 201.301 198.683C201.289 198.817 201.312 198.952 201.366 199.075C201.421 199.198 201.505 199.306 201.613 199.387C201.992 199.694 202.361 200.012 202.732 200.328C205.739 202.895 208.745 205.461 211.751 208.027C211.91 208.162 212.09 208.269 212.259 208.389C212.428 208.267 212.574 208.183 212.699 208.081C213.399 207.526 214.095 206.966 214.793 206.407C217.814 203.986 220.836 201.566 223.859 199.147C224.042 199.001 224.198 198.786 224.537 198.796C226.517 200.379 228.51 201.997 230.525 203.595C232.541 205.193 234.55 206.874 236.65 208.476C238.757 206.881 240.743 205.203 242.776 203.595C244.808 201.987 246.803 200.323 248.873 198.742C249.068 198.878 249.23 198.974 249.381 199.091C250.567 200.036 251.752 200.983 252.938 201.933C254.418 203.118 255.898 204.303 257.379 205.488C257.516 205.598 257.645 205.776 257.877 205.669C257.899 205.593 257.917 205.515 257.931 205.437C258.287 201.634 258.271 197.805 257.883 194.004C257.884 193.69 257.803 193.381 257.648 193.107H256.769C254.439 193.107 252.11 193.107 249.779 193.107C249.52 193.107 249.237 193.19 248.965 192.938V192.092C248.965 189.059 248.965 186.027 248.965 182.995C248.965 182.707 249.031 182.402 248.831 182.081C248.492 182.081 248.153 182.059 247.799 182.059C244.955 182.059 242.111 182.059 239.267 182.059C239.029 182.059 238.792 182.027 238.532 182.008C238.494 181.867 238.466 181.724 238.449 181.58C238.438 181.255 238.449 180.93 238.449 180.605C238.449 177.734 238.449 174.863 238.449 171.994C238.449 171.708 238.508 171.405 238.328 171.091C238.032 171.081 237.737 171.064 237.444 171.064C234.545 171.064 231.646 171.064 228.747 171.064C228.457 171.064 228.158 171.102 227.858 170.981C227.828 170.874 227.808 170.764 227.797 170.653C227.797 169.273 227.797 167.892 227.797 166.511C227.814 166.428 227.842 166.347 227.882 166.272C228.22 166.161 228.578 166.205 228.925 166.205C234.615 166.205 240.304 166.205 245.992 166.205C246.263 166.205 246.534 166.205 246.803 166.196C246.905 166.181 247.005 166.157 247.102 166.123C246.912 165.517 246.763 165.292 244.998 163.153C240.245 157.349 234.407 152.526 227.809 148.954C221.21 145.344 213.96 143.077 206.479 142.285C199.937 141.573 193.322 141.971 186.913 143.459C187.068 143.557 187.23 143.643 187.398 143.715C188.82 144.155 190.246 144.585 191.6 145.218C193.603 146.154 195.288 147.473 196.547 149.308C197.135 150.185 197.645 151.112 198.071 152.079C198.136 152.221 198.219 152.356 198.318 152.542C198.573 152.449 198.801 152.383 199.018 152.289C200.805 151.505 202.682 150.946 204.607 150.625C207.799 150.068 211.081 150.36 214.124 151.471C215.147 151.831 216.123 152.311 217.032 152.903C217.135 152.998 217.227 153.106 217.305 153.223C217.115 153.289 216.993 153.34 216.864 153.375C216.239 153.545 215.608 153.704 214.986 153.895C213.321 154.378 211.716 155.049 210.203 155.896C209.447 156.322 208.75 156.844 208.128 157.45C207.366 158.21 206.773 159.073 206.584 160.158C206.584 160.29 206.603 160.421 206.638 160.547C206.851 160.502 207.012 160.481 207.165 160.432C208.354 160.06 209.581 159.817 210.823 159.708C213.221 159.474 215.525 159.801 217.669 160.96C219.445 161.919 220.914 163.361 221.903 165.12C221.989 165.27 222.14 165.426 221.971 165.67C221.725 165.636 221.463 165.607 221.198 165.563C219.493 165.244 217.756 165.119 216.022 165.191C214.635 165.268 213.275 165.49 211.983 166.025C210.811 166.511 209.791 167.21 209.05 168.256C208.977 168.398 208.92 168.547 208.88 168.701C210.415 168.945 211.866 169.26 213.233 169.886C214.572 170.483 215.8 171.302 216.864 172.31C217.938 173.348 218.842 174.547 219.544 175.865C220.382 177.441 220.958 179.105 220.988 180.154ZM165.566 177.204C165.41 176.837 165.514 176.573 165.558 176.312C165.845 174.572 166.393 172.886 167.184 171.31C169.133 167.406 172.168 164.764 176.356 163.469C177.732 163.06 179.147 162.795 180.577 162.679C180.757 162.662 180.935 162.618 181.143 162.582C181.109 162.472 181.053 162.37 180.978 162.282C180.902 162.195 180.81 162.124 180.706 162.074C179.968 161.618 179.18 161.248 178.358 160.971C176.309 160.244 174.189 159.813 172.049 159.462C171.658 159.398 171.265 159.341 170.793 159.239C170.984 158.951 171.217 158.692 171.484 158.472C172.376 157.682 173.359 157 174.412 156.441C176.897 155.107 179.568 154.342 182.34 153.91C184.295 153.602 186.272 153.46 188.251 153.485C188.487 153.485 188.724 153.458 188.944 153.445C189.642 149.971 188.053 145.885 184.916 143.965C184.718 144.018 184.508 144.069 184.3 144.126C182.346 144.679 180.423 145.339 178.541 146.102C165.746 151.234 155.184 160.733 148.733 172.911C144.515 180.861 142.225 189.69 142.048 198.686C141.984 201.123 142.072 203.561 142.31 205.987C142.336 206.117 142.375 206.243 142.425 206.365C142.762 206.314 143.088 206.209 143.391 206.055C145.343 205.25 147.35 204.582 149.396 204.058C152.828 203.181 156.302 202.739 159.853 202.961C163.239 203.169 166.555 204.017 169.626 205.457C172.002 206.584 174.259 207.945 176.365 209.52C178.397 211.016 180.381 212.567 182.389 214.077C183.843 215.209 185.386 216.221 187.005 217.102C188.004 217.646 189.061 218.08 190.155 218.395C190.356 218.451 190.568 218.551 190.817 218.38C190.837 218.227 190.878 218.041 190.885 217.862C190.905 217.354 190.912 216.833 190.922 216.318C190.98 212.852 190.754 209.386 190.245 205.957C189.892 203.492 189.532 201.026 189.252 198.551C188.962 196.236 189.076 193.887 189.591 191.611C189.804 190.719 190.113 189.849 190.39 188.972C190.56 188.454 190.489 188.168 190.072 187.834C189.863 187.659 189.601 187.557 189.328 187.545C188.977 187.523 188.624 187.569 188.29 187.68C187.376 188.004 186.62 188.566 185.919 189.216C184.498 190.538 183.395 192.107 182.403 193.762C181.684 194.972 181.032 196.221 180.448 197.502C180.387 197.634 180.369 197.832 180.088 197.816C180.018 197.552 179.932 197.273 179.869 196.989C179.386 194.788 179.329 192.516 179.7 190.294C180.069 188.043 180.907 185.895 182.159 183.988C183.082 182.583 184.185 181.304 185.44 180.185C185.629 180.016 185.895 179.895 185.977 179.56C185.878 179.516 185.777 179.477 185.673 179.445C184.371 179.164 183.021 179.191 181.731 179.525C180.051 179.955 178.45 180.65 176.988 181.583C175.238 182.668 173.593 183.914 172.077 185.307C171.907 185.463 171.767 185.678 171.457 185.756C171.436 185.62 171.428 185.482 171.433 185.344C171.475 185.05 171.535 184.759 171.602 184.467C172.29 181.172 173.775 178.301 176.207 175.958C178.115 174.118 180.387 172.893 182.93 172.161C183.099 172.112 183.311 172.124 183.375 171.862C183.143 171.789 182.913 171.709 182.681 171.647C180.995 171.19 179.303 171.259 177.608 171.574C175.693 171.949 173.834 172.57 172.078 173.422C169.947 174.429 167.907 175.618 165.981 176.977C165.849 177.036 165.735 177.099 165.566 177.204ZM196.2 225.349C196.03 225.328 195.891 225.31 195.761 225.3C195.006 225.244 194.249 225.203 193.495 225.13C191.527 224.919 189.599 224.426 187.772 223.666C185.542 222.745 183.427 221.566 181.471 220.154C179.591 218.827 177.762 217.427 175.925 216.044C173.782 214.432 171.651 212.807 169.319 211.473C167.434 210.39 165.481 209.467 163.391 208.863C159.889 207.848 156.339 207.792 152.772 208.42C149.606 208.977 146.605 210.062 143.694 211.407C143.542 211.49 143.398 211.586 143.264 211.695C143.333 212.496 143.912 215.013 144.185 215.69C144.21 215.754 144.298 215.795 144.354 215.839C144.414 215.841 144.474 215.834 144.532 215.82C144.759 215.731 144.981 215.632 145.21 215.538C148.018 214.353 150.897 213.442 153.956 213.178C156.606 212.932 159.278 213.213 161.818 214.006C163.776 214.645 165.656 215.503 167.422 216.563C169.272 217.647 170.999 218.91 172.703 220.201C174.644 221.674 176.561 223.179 178.506 224.65C181.056 226.579 183.704 228.36 186.58 229.785C189.486 231.25 192.612 232.233 195.834 232.697C195.958 232.703 196.082 232.699 196.205 232.685C196.301 231.986 196.31 226.158 196.2 225.349ZM133.412 248.708C133.805 248.699 134.197 248.669 134.587 248.617C138.33 247.981 140.185 245.12 140.703 242.748C141.065 241.153 140.944 239.485 140.357 237.958C139.536 235.8 138.254 233.985 136.242 232.792C133.901 231.404 131.442 231.211 128.933 232.314C125.919 233.64 123.903 237.208 124.716 241.037C125.076 242.713 125.848 244.273 126.964 245.575C128.622 247.542 130.693 248.659 133.418 248.71L133.412 248.708ZM219.112 277.925C219.207 278.331 219.29 278.643 219.352 278.958C219.632 280.364 219.903 281.773 220.187 283.178C220.236 283.348 220.299 283.514 220.377 283.674C220.473 283.688 220.57 283.692 220.667 283.685C221.834 283.448 223 283.206 224.166 282.959C224.291 282.918 224.411 282.864 224.525 282.798C224.508 282.655 224.501 282.548 224.481 282.445C224.058 280.322 223.635 278.199 223.21 276.077C222.692 273.504 222.172 270.931 221.649 268.358C221.605 268.217 221.548 268.08 221.48 267.95C220.633 267.999 218.111 268.502 217.322 268.781C217.384 269.103 217.428 269.444 217.491 269.785C217.757 271.085 218.026 272.383 218.284 273.678C218.333 273.932 218.475 274.199 218.228 274.504C216.229 274.897 214.185 275.3 212.141 275.689C212.098 275.689 212.044 275.648 211.944 275.603C211.92 275.511 211.883 275.386 211.858 275.264C211.534 273.673 211.216 272.08 210.889 270.491C210.85 270.347 210.8 270.206 210.738 270.071C209.922 270.115 207.276 270.648 206.662 270.885C206.646 270.907 206.635 270.931 206.629 270.958C206.617 271.064 206.617 271.17 206.629 271.276C207.581 276.08 208.536 280.883 209.495 285.686C209.495 285.71 209.526 285.73 209.544 285.749C209.58 285.784 209.618 285.817 209.658 285.847C210.484 285.688 211.351 285.524 212.23 285.353C212.655 285.268 213.077 285.173 213.499 285.075C213.584 285.038 213.664 284.992 213.738 284.936C213.702 284.703 213.675 284.464 213.629 284.231C213.335 282.744 213.033 281.26 212.744 279.772C212.728 279.58 212.731 279.387 212.752 279.196L219.112 277.925ZM139.639 261.213C139.853 261.001 140.047 260.817 140.232 260.624C141.277 259.525 142.317 258.423 143.364 257.33C143.474 257.227 143.592 257.133 143.716 257.047C144.546 257.555 144.807 258.266 144.658 259.153C144.632 259.34 144.596 259.526 144.547 259.71C144.378 260.253 144.217 260.796 144.039 261.335C143.745 262.205 143.436 263.071 143.142 263.941C143.088 264.126 143.044 264.313 143.01 264.502C144.087 265.517 145.147 266.519 146.212 267.516C146.261 267.562 146.36 267.555 146.455 267.579C146.516 267.445 146.583 267.329 146.624 267.203C147.156 265.613 147.685 264.023 148.213 262.433C148.426 261.791 148.552 261.122 148.585 260.446C148.6 260.289 148.624 260.133 148.656 259.979C148.98 259.996 149.247 260.029 149.515 260.018C149.919 260.022 150.323 259.982 150.719 259.901C152.039 259.552 152.921 258.679 153.46 257.45C154.054 256.096 153.9 254.753 153.233 253.462C152.911 252.865 152.49 252.326 151.989 251.869C150.438 250.402 148.888 248.93 147.339 247.454C147.237 247.375 147.129 247.306 147.013 247.249C146.897 247.348 146.809 247.419 146.736 247.486C143.365 251.038 139.997 254.592 136.63 258.151C136.613 258.172 136.602 258.197 136.597 258.223C136.593 258.25 136.59 258.277 136.589 258.305C136.929 258.76 138.879 260.641 139.639 261.213ZM192.103 279.814C192.557 279.845 192.933 279.867 193.307 279.894C193.845 279.933 194.386 279.983 194.926 280.012C195.576 280.053 196.229 279.98 196.853 279.796C199.921 278.871 201.206 275.152 199.275 272.576C198.863 272.018 198.336 271.556 197.729 271.22C197.123 270.883 196.451 270.682 195.759 270.628C193.471 270.398 191.186 270.225 188.886 270.032C188.783 270.035 188.681 270.05 188.581 270.076C188.545 270.157 188.517 270.241 188.498 270.328C188.33 272.268 188.164 274.208 188.001 276.148C187.858 277.84 187.717 279.538 187.577 281.239C187.482 282.426 187.393 283.61 187.308 284.794C187.313 284.965 187.334 285.135 187.37 285.302C188.766 285.402 190.123 285.578 191.545 285.597C191.796 283.68 191.84 281.8 192.103 279.814ZM122.525 220.692C122.641 221.041 122.735 221.293 122.809 221.549C122.978 222.146 123.119 222.755 123.327 223.339C123.496 223.853 123.723 224.345 124.005 224.805C125.058 226.417 126.569 227.206 128.495 226.972C130.42 226.738 131.713 225.653 132.361 223.827C132.732 222.772 132.673 221.692 132.377 220.628C131.797 218.546 131.205 216.467 130.612 214.388C130.556 214.239 130.488 214.096 130.409 213.958C130.239 214.002 130.105 214.029 129.978 214.065C128.052 214.61 126.126 215.156 124.201 215.702L116.397 217.902C116.199 217.958 116.009 218.05 115.804 218.129C115.8 218.25 115.808 218.371 115.826 218.49C116.165 219.661 116.492 220.831 116.842 221.997C116.868 222.087 116.973 222.153 117.044 222.232L122.525 220.692ZM266.721 224.687C267.958 225.063 269.18 225.379 270.391 225.735C271.602 226.09 272.835 226.437 274.056 226.788C275.278 227.138 276.495 227.504 277.725 227.827C278.955 228.15 280.144 228.55 281.424 228.819C281.874 227.449 282.227 226.099 282.594 224.722C282.344 224.629 282.149 224.541 281.944 224.484C280.568 224.094 279.188 223.709 277.806 223.328C277.547 223.257 277.274 223.221 277.053 222.989C277.063 222.837 277.083 222.685 277.114 222.535C277.283 221.909 277.459 221.285 277.642 220.663C277.843 220.016 277.928 219.339 277.894 218.662C277.777 216.761 276.854 215.384 275.125 214.6C273.45 213.842 271.851 214.072 270.383 215.179C269.52 215.849 268.901 216.784 268.621 217.84C268.012 219.934 267.422 222.046 266.826 224.147C266.779 224.298 266.765 224.457 266.726 224.682L266.721 224.687ZM160.527 276.485C161.134 275.609 161.544 274.726 162.023 273.883C162.517 273.011 162.992 272.129 163.473 271.251C163.954 270.372 164.399 269.536 164.88 268.688C165.361 267.84 165.798 266.922 166.387 266.054C167.185 266.491 167.937 266.9 168.694 267.315C169.451 267.73 170.171 268.195 170.959 268.512C171.467 267.816 172.314 266.252 172.524 265.6C172.327 265.48 172.126 265.346 171.916 265.23C167.933 263.035 163.946 260.843 159.955 258.653C159.818 258.592 159.677 258.543 159.531 258.508C158.966 259.297 158.124 260.891 158.007 261.411C158.138 261.489 158.271 261.58 158.412 261.653C159.573 262.294 160.733 262.936 161.894 263.579C162.104 263.694 162.35 263.77 162.463 264.07L161.068 266.599C160.597 267.453 160.128 268.308 159.662 269.162C159.179 270.04 158.685 270.912 158.219 271.797C157.768 272.656 157.231 273.468 156.808 274.419C158.044 275.124 159.24 275.796 160.531 276.479L160.527 276.485ZM264.181 257.738C265.014 256.695 265.823 255.681 266.635 254.669C267.446 253.656 268.271 252.649 269.07 251.622C269.87 250.594 270.7 249.616 271.458 248.585C270.882 247.977 269.426 246.824 268.837 246.523C268.328 247.141 267.82 247.766 267.312 248.385C266.804 249.005 266.271 249.7 265.739 250.35C265.231 250.973 264.778 251.65 264.179 252.24C263.332 251.688 262.621 251.033 261.857 250.435C261.093 249.838 260.29 249.188 259.506 248.563C258.722 247.938 257.982 247.344 257.218 246.743C256.454 246.142 255.702 245.452 254.867 244.92C254.315 245.428 252.581 247.598 252.223 248.228C252.752 248.781 263.51 257.348 264.184 257.732L264.181 257.738ZM249.352 270.797C252.357 268.427 255.329 266.076 258.3 263.726C258.371 263.656 258.435 263.578 258.49 263.495C258.073 262.763 256.913 261.318 256.437 260.944C256.268 261.06 256.098 261.177 255.929 261.308C254.31 262.584 252.692 263.859 251.075 265.133C250.933 265.243 250.772 265.331 250.592 265.445C250.403 265.233 250.233 265.062 250.084 264.874C248.842 263.306 247.6 261.734 246.358 260.158C245.435 258.99 244.515 257.819 243.587 256.654C243.458 256.485 243.364 256.272 243.11 256.265C242.403 256.686 240.315 258.345 239.858 258.855C239.954 259.002 240.046 259.163 240.157 259.31C242.552 262.481 248.704 270.184 249.352 270.797ZM237.846 127.053C237.287 127.14 236.718 127.185 236.172 127.322C232.766 128.177 230.437 132.003 231.875 135.786C233.191 139.246 237.075 140.695 240.041 139.83C243.235 138.894 245.647 135.288 244.175 131.407C243.133 128.661 240.395 127.084 237.846 127.053ZM277.068 238.527C276.979 238.445 276.884 238.371 276.783 238.305C272.493 236.021 268.196 233.74 263.894 231.463C263.798 231.433 263.697 231.415 263.596 231.41C263.114 232.137 262.729 232.934 262.316 233.719C262.08 234.165 261.767 234.581 261.65 235.126C261.87 235.263 262.067 235.402 262.277 235.514C266.379 237.699 270.482 239.883 274.587 242.063C274.747 242.138 274.911 242.204 275.078 242.261C275.547 241.623 276.79 239.293 277.068 238.527ZM239.082 276.783C238.899 276.375 238.764 276.055 238.613 275.74C238.172 274.812 237.724 273.888 237.28 272.96C235.765 269.788 234.249 266.616 232.732 263.444C232.638 263.279 232.533 263.122 232.417 262.971C231.74 263.296 231.105 263.596 230.476 263.908C229.848 264.219 229.189 264.427 228.603 264.879C230.758 269.378 232.903 273.853 235.039 278.303C235.105 278.406 235.179 278.504 235.261 278.595C236.519 278.023 237.756 277.431 239.082 276.781V276.783ZM143.116 141.166C142.686 141.369 142.315 141.53 141.958 141.712C140.835 142.259 139.834 143.026 139.013 143.965C136.895 146.486 136.811 150.141 139.143 152.622C141.043 154.641 144.044 155.395 146.783 153.915C148.12 153.178 149.207 152.058 149.903 150.699C150.377 149.86 150.697 148.943 150.848 147.991C150.001 147.097 149.402 146.596 148.888 146.359C148.829 146.537 148.765 146.709 148.719 146.885C148.594 147.329 148.485 147.776 148.353 148.214C148.131 148.997 147.774 149.734 147.296 150.393C146.619 151.288 145.772 151.943 144.661 152.158C143.037 152.471 141.736 151.838 140.716 150.614C140.135 149.925 139.812 149.055 139.803 148.153C139.795 147.251 140.102 146.375 140.671 145.675C141.149 145.086 141.726 144.585 142.376 144.192C143.071 143.764 143.834 143.491 144.597 143.214C144.766 143.153 144.956 143.128 145.052 142.891L143.116 141.166ZM259.743 149.799C259.235 149.242 258.766 148.752 258.317 148.25C257.868 147.747 257.33 147.259 256.915 146.674C257.142 146.29 257.487 146.059 257.78 145.79C258.073 145.521 258.341 145.132 258.796 144.988C258.966 145.157 259.125 145.301 259.271 145.458C260.065 146.305 260.856 147.163 261.652 148.013C261.779 148.133 261.913 148.246 262.053 148.351C262.6 147.843 263.183 147.425 263.615 146.855C262.768 145.78 259.244 142.019 258.729 141.658C258.593 141.763 258.439 141.868 258.302 141.997C257.821 142.433 257.347 142.879 256.871 143.32C254.664 145.362 252.463 147.404 250.265 149.446C250.037 149.658 249.745 149.831 249.634 150.173C250.128 150.77 250.668 151.327 251.249 151.84C251.907 151.236 252.537 150.655 253.178 150.073C253.82 149.491 254.428 148.813 255.177 148.285C255.326 148.422 255.451 148.522 255.56 148.637C256.278 149.411 256.991 150.19 257.712 150.961C257.851 151.096 257.996 151.223 258.148 151.342C258.719 150.87 259.253 150.353 259.743 149.797V149.799ZM197.521 129.867C198.352 129.867 199.074 129.917 199.792 129.804C199.961 129.494 199.897 129.195 199.894 128.905C199.872 127.255 199.85 125.606 199.814 123.957C199.797 123.784 199.817 123.608 199.873 123.443C199.93 123.277 200.021 123.126 200.141 122.999C200.266 122.857 200.384 122.709 200.495 122.556C201.752 121.001 203.008 119.444 204.263 117.885C204.45 117.706 204.588 117.482 204.665 117.235C204.5 117.209 204.335 117.191 204.168 117.183C203.572 117.183 202.983 117.22 202.383 117.198C202.182 117.184 201.98 117.223 201.8 117.313C201.619 117.402 201.465 117.538 201.354 117.706C200.625 118.645 199.868 119.568 199.118 120.485C198.948 120.69 198.771 120.883 198.564 121.117C198.407 120.991 198.257 120.856 198.115 120.714C197.255 119.744 196.388 118.778 195.551 117.787C195.438 117.637 195.289 117.518 195.116 117.443C194.944 117.367 194.756 117.337 194.569 117.356C193.922 117.393 193.271 117.379 192.623 117.4C192.48 117.426 192.341 117.468 192.208 117.525C192.418 117.791 192.573 118.009 192.748 118.202C194.103 119.751 195.434 121.313 196.813 122.835C196.998 123.028 197.143 123.256 197.239 123.505C197.335 123.754 197.381 124.02 197.373 124.287C197.384 125.855 197.431 127.422 197.467 128.99C197.473 129.254 197.499 129.518 197.521 129.867ZM179.398 132.812C179.102 131.739 178.721 130.674 178.369 129.596C178.016 128.518 177.662 127.492 177.329 126.434C176.995 125.376 176.585 124.296 176.297 123.16C176.558 123.064 176.78 122.974 177.007 122.899C177.906 122.605 178.807 122.317 179.705 122.017C179.86 121.948 180.01 121.865 180.15 121.769C179.878 121.091 179.798 120.386 179.415 119.771C179.301 119.777 179.188 119.792 179.077 119.817C175.915 120.848 172.753 121.881 169.592 122.916C169.506 122.963 169.426 123.02 169.353 123.086C169.456 123.411 169.548 123.746 169.672 124.069C169.795 124.392 169.792 124.822 170.149 125.102C171.404 124.809 172.59 124.265 173.896 123.942C173.996 124.136 174.085 124.335 174.165 124.538C174.39 125.205 174.602 125.875 174.819 126.545C175.529 128.731 176.24 130.917 176.953 133.103C177.018 133.267 177.095 133.426 177.183 133.579C177.959 133.449 178.707 133.19 179.397 132.812H179.398ZM154.264 131.131C154.616 131.881 159.381 139.353 160.746 141.316C160.823 141.416 160.906 141.511 160.995 141.601C161.736 141.293 162.411 140.843 162.98 140.277C160.734 136.837 158.525 133.347 156.229 129.88C155.543 130.247 154.885 130.665 154.262 131.131H154.264ZM127.02 181.251C127.005 180.445 126.674 179.676 126.1 179.11C125.525 178.544 124.751 178.225 123.944 178.221C123.137 178.218 122.361 178.53 121.781 179.091C121.202 179.652 120.865 180.418 120.843 181.224C120.831 181.635 120.903 182.045 121.052 182.428C121.201 182.812 121.426 183.162 121.712 183.457C121.998 183.753 122.341 183.988 122.72 184.149C123.098 184.31 123.506 184.394 123.917 184.396C124.329 184.398 124.737 184.318 125.117 184.16C125.497 184.002 125.842 183.769 126.131 183.476C126.42 183.183 126.647 182.836 126.8 182.454C126.953 182.071 127.027 181.663 127.02 181.251ZM279.388 181.295C279.398 180.685 279.226 180.086 278.895 179.573C278.564 179.06 278.089 178.657 277.529 178.414C276.969 178.171 276.349 178.1 275.748 178.209C275.148 178.318 274.593 178.602 274.153 179.026C273.714 179.45 273.411 179.994 273.281 180.59C273.151 181.186 273.201 181.808 273.424 182.376C273.647 182.944 274.034 183.433 274.535 183.781C275.036 184.13 275.629 184.322 276.24 184.334C277.06 184.347 277.853 184.035 278.443 183.465C279.034 182.895 279.373 182.114 279.388 181.294V181.295Z"/>
<path d="M222.178 237.151C221.831 237.155 221.486 237.088 221.166 236.955C220.845 236.822 220.555 236.626 220.313 236.377C220.071 236.128 219.882 235.833 219.758 235.509C219.633 235.185 219.576 234.84 219.59 234.493C219.599 233.799 219.883 233.136 220.381 232.651C220.878 232.166 221.548 231.899 222.243 231.907C222.938 231.916 223.601 232.2 224.086 232.698C224.571 233.195 224.839 233.865 224.83 234.559C224.849 236.033 223.667 237.163 222.178 237.151Z"/>
<path d="M209.873 237.15C209.358 237.137 208.858 236.972 208.436 236.675C208.014 236.378 207.69 235.963 207.504 235.482C207.318 235.001 207.278 234.476 207.391 233.973C207.503 233.47 207.761 233.011 208.134 232.655C208.507 232.299 208.977 232.061 209.484 231.971C209.992 231.881 210.515 231.943 210.988 232.15C211.46 232.357 211.861 232.699 212.139 233.133C212.417 233.567 212.56 234.074 212.551 234.589C212.549 234.935 212.478 235.277 212.342 235.594C212.205 235.912 212.006 236.199 211.756 236.438C211.506 236.677 211.211 236.863 210.887 236.985C210.564 237.108 210.219 237.164 209.873 237.15Z"/>
<path d="M237.109 234.572C237.106 235.089 236.949 235.594 236.658 236.022C236.368 236.45 235.958 236.783 235.478 236.978C234.999 237.173 234.473 237.222 233.965 237.119C233.458 237.016 232.993 236.764 232.629 236.397C232.264 236.03 232.017 235.563 231.918 235.055C231.819 234.548 231.872 234.022 232.071 233.545C232.271 233.067 232.607 232.66 233.038 232.373C233.469 232.086 233.975 231.934 234.493 231.935C234.838 231.934 235.18 232.003 235.499 232.135C235.818 232.268 236.108 232.463 236.351 232.708C236.595 232.953 236.787 233.244 236.917 233.564C237.047 233.884 237.112 234.226 237.109 234.572Z"/>
<path d="M242.779 192.993C241.922 193.139 239.259 193.124 238.614 192.98C238.479 192.528 238.562 192.042 238.548 191.566C238.535 191.091 238.548 190.595 238.548 190.111C238.548 189.627 238.565 189.149 238.573 188.643C239.307 188.44 240.006 188.56 240.694 188.547C241.371 188.512 242.05 188.523 242.726 188.58C242.86 189.098 242.787 189.583 242.799 190.06C242.811 190.537 242.799 191.03 242.799 191.516C242.799 192.001 242.779 192.477 242.779 192.993Z"/>
<path d="M227.915 177.528C228.828 177.436 231.302 177.453 231.926 177.553C231.956 177.614 232.024 177.683 232.024 177.753C232.024 179.126 232.024 180.498 232.024 181.898C231.9 181.955 231.77 181.996 231.636 182.019C230.476 182.019 229.316 182.019 228.155 182.019C228.061 182.006 227.968 181.985 227.878 181.954C227.837 181.838 227.81 181.718 227.798 181.595C227.791 180.381 227.791 179.167 227.798 177.954C227.819 177.808 227.858 177.664 227.915 177.528Z"/>
<path d="M161.642 198.14C161.064 198.065 160.536 197.769 159.96 197.662C159.384 197.556 158.791 197.432 158.202 197.366C157.584 197.296 156.962 197.261 156.339 197.261C155.743 197.266 155.149 197.304 154.557 197.375C153.968 197.439 153.384 197.561 152.794 197.642C152.205 197.723 151.676 198.001 151.078 198.033C151.055 196.535 152.489 192.322 154.059 189.209C155.545 186.267 158.334 182.438 159.698 181.47C159.867 181.548 159.804 181.697 159.794 181.818C159.625 183.812 159.528 185.81 159.555 187.812C159.566 189.678 159.736 191.54 160.063 193.376C160.346 194.9 160.756 196.379 161.559 197.723C161.607 197.818 161.646 197.918 161.674 198.021C161.689 198.04 161.669 198.065 161.642 198.14Z"/>
<path d="M132.415 244.485C131.685 244.46 130.984 244.188 130.429 243.713C129.33 242.789 128.625 241.634 128.495 240.18C128.384 238.933 128.843 237.902 129.763 237.069C130.483 236.399 131.4 235.98 132.378 235.872C132.891 235.811 133.411 235.861 133.903 236.018C134.395 236.176 134.847 236.438 135.229 236.786C136.177 237.614 136.795 238.756 136.968 240.002C137.078 240.788 136.918 241.588 136.514 242.271C135.771 243.594 134.19 244.498 132.415 244.485Z"/>
<path d="M146.113 254.488C146.655 253.849 147.23 253.239 147.836 252.661C148.49 253.155 149.07 253.634 149.472 254.284C149.873 254.934 149.692 255.554 149.077 255.977C148.924 256.091 148.745 256.163 148.556 256.187C148.367 256.212 148.175 256.187 147.998 256.116C147.844 256.066 147.698 255.992 147.565 255.899C147.024 255.49 146.537 255.016 146.113 254.488Z"/>
<path d="M192.476 276.396C192.374 275.513 192.441 274.619 192.671 273.761C193.44 273.784 194.219 273.806 194.96 274.084C195.545 274.302 195.77 274.666 195.731 275.269C195.685 275.977 195.46 276.285 194.852 276.473C194.724 276.515 194.592 276.543 194.457 276.559C193.793 276.587 193.127 276.532 192.476 276.396Z"/>
<path d="M125.846 219.802C126.655 219.506 127.485 219.268 128.329 219.091C128.676 219.748 128.96 220.878 128.93 221.442C128.898 222.05 128.64 222.363 128.034 222.529C127.382 222.698 126.943 222.571 126.626 222.058C126.485 221.829 126.371 221.583 126.288 221.327C126.132 220.845 126.005 220.354 125.846 219.802Z"/>
<path d="M273.71 222.002C273.06 222.014 271.847 221.681 271.191 221.31C271.299 220.542 271.551 219.801 271.935 219.126C272.24 218.6 272.665 218.461 273.253 218.629C273.93 218.823 274.213 219.137 274.235 219.748C274.241 219.91 274.229 220.073 274.201 220.233C274.101 220.839 273.936 221.432 273.71 222.002Z"/>
<path d="M238.116 137.689C236.223 137.738 233.911 136.179 233.914 133.609C233.908 133.073 234.009 132.541 234.211 132.044C234.413 131.547 234.712 131.096 235.09 130.716C235.469 130.335 235.919 130.034 236.415 129.83C236.911 129.625 237.443 129.522 237.979 129.524C240.269 129.557 242.176 131.405 242.132 133.64C242.091 135.952 240.215 137.734 238.116 137.689Z"/>
</g>
<defs>
<clipPath id="clip0">
<rect width="200" height="200" transform="translate(100 100)"/>
</clipPath>
</defs>
</svg>
