<svg width="400" height="400" viewBox="0 0 400 400" fill="white" xmlns="http://www.w3.org/2000/svg">
<g>
<path d="M302.777 183.508C302.455 182.432 302.225 181.631 301.972 180.853C300.984 177.809 297.374 176.321 294.363 176.756C290.868 177.26 288.454 180.098 288.201 183.806C288.086 185.431 288.132 186.987 288.638 188.544C289.65 191.68 292.5 193.694 295.834 193.465C299.213 193.213 301.535 191.657 302.386 187.972C302.662 186.713 302.754 186.644 304.087 186.644C304.892 186.644 305.697 186.667 306.501 186.69C307.812 186.713 308.202 187.102 307.996 188.361C307.352 192.137 305.582 195.25 302.018 196.921C297.328 199.141 292.615 199.073 288.109 196.326C283.281 193.396 281.465 187.56 282.27 182.959C283.189 177.649 286.132 173.986 291.351 172.361C295.765 170.988 301.926 171.72 305.444 175.955C306.892 177.694 307.697 179.754 307.996 181.975C308.134 182.936 307.904 183.188 306.892 183.279C305.559 183.348 304.179 183.417 302.777 183.508Z"/>
<path d="M130.676 183.234C129.066 183.303 127.549 183.394 126.032 183.417C125.365 183.417 125.135 182.868 125.089 182.318C124.629 178.153 120.399 176.047 116.675 176.825C113.065 177.58 111.318 180.281 110.858 183.623C110.559 185.821 110.835 187.972 111.962 189.941C113.41 192.458 115.709 193.511 118.491 193.42C121.434 193.305 123.71 192.001 124.79 189.094C124.951 188.636 125.02 188.132 125.112 187.652C125.25 186.942 125.641 186.576 126.377 186.599C127.365 186.622 128.377 186.599 129.365 186.645C130.515 186.69 130.745 187.011 130.63 188.155C130.101 193.42 126.239 197.288 120.836 198.135C116.445 198.821 112.514 197.929 109.157 195.068C107.042 193.259 105.8 190.902 105.18 188.155C104.559 185.454 104.72 182.845 105.64 180.281C107.157 176.024 110.169 173.254 114.56 172.156C118.077 171.286 121.572 171.492 124.836 173.232C128.423 175.131 130.17 178.244 130.699 182.135C130.791 182.41 130.722 182.685 130.676 183.234Z"/>
<path d="M186.424 181.883C186.424 179.183 186.424 176.665 186.424 174.17C186.424 173.781 186.332 173.369 186.47 173.048C186.608 172.728 186.976 172.293 187.252 172.27C188.516 172.179 189.781 172.224 191.045 172.224C191.666 172.224 191.942 172.591 191.942 173.186C191.942 173.46 191.942 173.712 191.942 173.987C191.942 181.38 191.942 188.796 191.942 196.189C191.942 196.67 191.873 197.15 191.827 197.837C190.149 197.837 188.562 197.86 186.999 197.791C186.792 197.791 186.539 197.265 186.447 196.944C186.332 196.624 186.378 196.235 186.355 195.8C186.125 195.914 186.01 195.937 185.941 196.006C182.378 200.195 174.24 198.867 172.423 192.367C171.642 189.528 171.803 186.805 172.883 184.081C174.998 178.793 182.447 177.603 185.941 181.609C186.01 181.7 186.125 181.723 186.424 181.883ZM186.424 188.842C186.424 188.43 186.447 187.995 186.424 187.583C186.263 185.706 184.815 184.058 183.045 183.692C180.93 183.257 179.067 184.058 178.171 185.82C177.527 187.125 177.32 188.521 177.55 189.94C178.24 194.015 181.665 194.793 184.263 193.42C186.079 192.458 186.516 190.742 186.424 188.842Z"/>
<path d="M138.927 181.7C139.295 181.38 139.525 181.197 139.755 181.014C142.123 179.045 144.813 178.702 147.595 179.801C150.33 180.899 151.411 183.211 151.457 186.004C151.526 189.46 151.48 192.939 151.48 196.418C151.48 197.723 151.319 197.883 150.054 197.883C149.204 197.883 148.376 197.883 147.526 197.883C146.146 197.86 145.985 197.723 145.985 196.395C145.985 193.763 145.985 191.131 145.985 188.499C145.985 187.858 145.985 187.194 145.916 186.553C145.732 184.905 144.744 183.806 143.318 183.646C141.594 183.463 139.893 184.333 139.41 185.798C139.111 186.736 138.927 187.72 138.904 188.705C138.835 191.245 138.881 193.809 138.881 196.372C138.881 197.746 138.743 197.86 137.364 197.883C136.444 197.883 135.525 197.86 134.605 197.883C133.801 197.906 133.387 197.54 133.387 196.739C133.387 196.464 133.387 196.212 133.387 195.937C133.387 188.659 133.387 181.38 133.387 174.101C133.387 172.339 133.525 172.202 135.272 172.202C136.031 172.202 136.812 172.179 137.571 172.202C138.72 172.224 138.881 172.385 138.881 173.552C138.904 175.841 138.881 178.13 138.881 180.419C138.858 180.785 138.881 181.151 138.927 181.7Z"/>
<path d="M214.403 190.375C214.886 192.549 216.013 193.648 217.944 194.014C219.944 194.381 221.714 194.037 222.841 192.183C223.346 191.336 223.967 191.13 224.841 191.268C225.484 191.359 226.128 191.405 226.772 191.497C227.691 191.634 227.921 191.977 227.577 192.824C226.404 195.777 224.243 197.516 221.093 198.157C218.978 198.592 217.001 198.386 215.001 197.722C211.599 196.601 209.621 194.266 209.047 190.741C208.38 186.53 210.012 182.73 213.53 180.647C217.829 178.106 223.99 179.022 226.657 183.348C227.806 185.225 227.944 187.285 227.99 189.391C228.013 190.077 227.577 190.306 226.956 190.306C225.691 190.306 224.427 190.306 223.162 190.306C220.68 190.306 218.197 190.306 215.691 190.306C215.3 190.306 214.886 190.352 214.403 190.375ZM214.771 186.53C217.323 186.53 219.806 186.53 222.266 186.53C222.427 184.905 220.726 183.371 218.61 183.325C216.679 183.279 214.978 184.63 214.771 186.53Z"/>
<path d="M309.65 188.751C309.88 182.914 313.674 179.16 319.766 179.252C325.422 179.32 329.422 182.868 329.399 188.819C329.376 194.862 325.422 198.295 319.743 198.364C313.72 198.478 309.788 194.725 309.65 188.751ZM323.674 188.842C323.674 188.316 323.697 187.766 323.674 187.24C323.536 185.226 322.065 183.761 319.973 183.509C317.996 183.257 316.317 184.425 315.651 186.324C315.053 188.064 315.122 189.758 315.72 191.474C316.272 193.099 317.467 193.946 319.145 194.107C320.732 194.267 322.065 193.74 323.008 192.344C323.72 191.268 323.743 190.055 323.674 188.842Z"/>
<path d="M248.428 197.86C246.796 197.86 245.324 197.906 243.83 197.837C243.14 197.814 243.025 197.219 243.025 196.67C243.002 195.182 243.025 193.694 243.025 192.207C243.025 190.421 243.048 188.613 243.002 186.828C242.979 185.248 242.152 184.081 240.933 183.738C239.37 183.303 237.6 183.898 236.864 185.317C236.45 186.141 236.151 187.102 236.128 188.018C236.037 190.833 236.105 193.649 236.082 196.487C236.082 197.86 235.968 197.952 234.565 197.906C233.715 197.883 232.887 197.906 232.036 197.883C230.749 197.86 230.565 197.7 230.565 196.418C230.565 192.069 230.565 187.72 230.565 183.371C230.565 182.57 230.542 181.769 230.565 180.968C230.588 179.915 230.772 179.732 231.875 179.709C232.841 179.686 233.783 179.709 234.749 179.686C235.899 179.663 235.991 179.732 236.082 180.854C236.105 181.06 236.128 181.289 236.197 181.678C237.439 180.304 238.887 179.641 240.543 179.343C244.934 178.588 248.52 181.38 248.543 185.592C248.566 189.3 248.566 192.985 248.566 196.693C248.543 197.036 248.474 197.38 248.428 197.86Z"/>
<path d="M349.447 179.731C349.516 180.258 349.631 180.67 349.631 181.059C349.654 186.209 349.654 191.359 349.631 196.509C349.631 197.882 349.516 197.951 348.09 197.905C347.355 197.882 346.642 197.905 345.906 197.905C344.274 197.905 344.274 197.905 343.975 196.166C343.584 196.463 343.239 196.738 342.894 196.99C340.343 198.775 337.607 198.912 334.871 197.539C332.986 196.601 332.02 194.815 331.951 192.778C331.836 188.773 331.905 184.767 331.905 180.761C331.905 180.464 331.997 180.189 332.089 179.8C333.653 179.8 335.193 179.731 336.687 179.823C337.446 179.869 337.423 180.578 337.446 181.151C337.446 183.668 337.446 186.186 337.446 188.704C337.446 189.505 337.423 190.306 337.469 191.107C337.515 192.595 338.297 193.671 339.515 193.945C341.101 194.335 342.894 193.671 343.423 192.275C343.837 191.199 344.067 189.986 344.113 188.841C344.205 186.369 344.136 183.897 344.136 181.402C344.136 179.823 344.228 179.731 345.86 179.731C346.964 179.731 348.113 179.731 349.447 179.731Z"/>
<path d="M273.004 185.866C271.533 185.935 270.222 186.027 268.889 185.981C268.659 185.981 268.36 185.477 268.199 185.157C267.28 183.28 264.36 182.387 262.567 183.555C262.153 183.829 261.716 184.493 261.785 184.905C261.854 185.34 262.429 185.866 262.912 186.027C263.854 186.347 264.866 186.393 265.831 186.599C267.073 186.851 268.314 187.034 269.51 187.446C272.085 188.361 273.28 190.032 273.303 192.435C273.326 194.633 271.878 196.693 269.556 197.563C266.429 198.73 263.256 198.707 260.153 197.402C258.199 196.578 256.819 195.136 256.291 193.008C255.992 191.817 256.153 191.52 257.44 191.405C258.015 191.36 258.59 191.405 259.164 191.36C260.291 191.245 261.072 191.52 261.417 192.733C261.555 193.168 262.061 193.58 262.498 193.855C263.854 194.701 265.372 194.541 266.843 194.244C267.533 194.106 268.084 193.626 268.061 192.779C268.038 191.932 267.464 191.589 266.728 191.451C265.234 191.154 263.716 190.879 262.222 190.581C261.624 190.467 261.026 190.353 260.452 190.147C257.946 189.323 256.681 187.789 256.566 185.477C256.451 183.28 257.854 181.014 260.015 180.121C263.302 178.771 266.613 178.794 269.763 180.442C271.717 181.517 272.912 183.257 273.004 185.866Z"/>
<path d="M379.955 193.19C379.955 194.449 380.139 195.502 379.909 196.464C379.679 197.516 378.506 197.722 377.633 197.974C375.977 198.478 374.253 198.615 372.552 198.043C371.058 197.539 370.046 196.578 369.655 195.067C369.471 194.335 369.425 193.557 369.402 192.801C369.379 190.284 369.402 187.766 369.402 185.248C369.402 184.79 369.402 184.355 369.402 183.783C368.805 183.714 368.322 183.646 367.839 183.623C367.195 183.6 366.851 183.302 366.851 182.639C366.851 182.227 366.874 181.792 366.851 181.38C366.828 180.533 367.241 180.075 368.069 180.029C369.563 179.938 370.322 179.068 370.598 177.672C370.69 177.237 370.874 176.802 370.989 176.367C371.288 174.994 371.357 174.925 372.828 174.925C374.943 174.902 374.943 174.902 374.943 176.985C374.943 177.809 374.943 178.633 374.943 179.709C376.115 179.709 377.104 179.709 378.07 179.709C379.863 179.709 379.978 179.823 379.978 181.563C379.978 181.792 379.978 182.021 379.978 182.25C379.932 183.371 379.725 183.6 378.621 183.623C377.472 183.646 376.345 183.623 375.081 183.623C375.012 184.172 374.943 184.561 374.943 184.973C374.92 187.262 374.92 189.551 374.943 191.84C374.943 193.602 375.886 194.289 377.633 193.854C378.322 193.694 378.989 193.465 379.955 193.19Z"/>
<path d="M156.148 229.057C156.562 228.096 157.022 227.135 157.413 226.173C159.85 220.245 162.287 214.317 164.678 208.389C165.023 207.519 165.62 207.267 166.448 207.29C167.781 207.29 168.057 207.656 167.574 208.892C166.862 210.655 166.103 212.417 165.367 214.179C162.93 219.947 160.494 225.693 158.057 231.461C157.482 232.834 156.033 233.452 154.654 232.811C154.24 232.628 153.941 232.056 153.734 231.575C152.723 229.24 151.757 226.86 150.769 224.502C148.631 219.398 146.47 214.317 144.309 209.213C144.056 208.617 143.458 207.954 144.332 207.404C145.136 206.901 146.631 207.381 146.998 208.228C147.343 208.984 147.688 209.762 148.01 210.54C150.493 216.445 152.953 222.374 155.413 228.279C155.528 228.554 155.689 228.805 155.827 229.057C155.941 229.034 156.056 229.034 156.148 229.057Z"/>
<path d="M250.682 220.199C250.843 218.025 252.682 215.873 255.119 215.141C257.188 214.523 259.28 214.546 261.304 215.347C263.718 216.285 264.729 218.185 264.821 220.611C264.913 223.312 264.844 226.013 264.844 228.737C264.844 230.751 265.143 231.026 267.12 230.728C267.304 230.705 267.488 230.728 267.649 230.728C268.224 231.85 267.741 232.788 266.453 233.086C264.614 233.52 263.258 232.857 262.407 231.117C262.315 230.911 262.2 230.728 262.062 230.453C261.809 230.636 261.556 230.751 261.396 230.934C259.143 233.2 256.407 233.795 253.372 233.04C251.579 232.582 250.429 231.346 249.993 229.492C249.602 227.821 250.039 226.402 251.257 225.212C252.498 223.953 254.154 223.518 255.786 223.106C257.418 222.694 259.074 222.419 260.729 222.099C261.878 221.87 262.154 221.55 262.039 220.382C261.855 218.574 260.453 217.246 258.637 217.086C256.2 216.88 254.269 217.567 253.234 219.993C252.797 220.977 252.108 221 250.682 220.199ZM261.924 224.09C260.913 224.296 260.062 224.434 259.234 224.617C257.809 224.937 256.384 225.212 255.004 225.624C253.533 226.059 252.797 227.203 252.889 228.508C252.958 229.652 253.97 230.751 255.257 230.957C257.349 231.3 259.166 230.659 260.568 229.126C261.763 227.844 262.177 226.196 261.924 224.09Z"/>
<path d="M358.964 181.7C359.953 180.556 361.033 179.549 362.551 179.411C363.47 179.32 364.459 179.411 365.355 179.617C365.746 179.709 366.321 180.327 366.321 180.693C366.275 182.067 366.045 183.463 365.861 184.951C365.149 184.745 364.62 184.584 364.091 184.447C361.217 183.76 359.056 185.179 358.849 188.086C358.665 190.787 358.734 193.488 358.665 196.189C358.665 196.67 358.596 197.15 358.55 197.837C356.918 197.837 355.355 197.883 353.814 197.791C353.562 197.768 353.217 197.242 353.171 196.899C353.079 196.12 353.125 195.296 353.125 194.495C353.125 190.123 353.125 185.729 353.125 181.357C353.125 179.778 353.217 179.709 354.826 179.686C355.631 179.686 356.435 179.686 357.24 179.686C358.527 179.709 358.573 179.732 358.665 181.014C358.688 181.174 358.711 181.311 358.757 181.449C358.757 181.54 358.803 181.563 358.964 181.7Z"/>
<path d="M208.126 184.836C207.506 184.699 206.931 184.584 206.402 184.447C203.482 183.669 201.183 185.385 201.138 188.407C201.092 190.993 201.138 193.58 201.115 196.189C201.115 197.837 201.023 197.906 199.344 197.906C198.471 197.906 197.574 197.883 196.7 197.951C195.873 198.02 195.574 197.654 195.597 196.899C195.597 196.372 195.597 195.823 195.597 195.296C195.597 190.65 195.597 186.003 195.597 181.334C195.597 180.853 195.666 180.373 195.712 179.778C197.367 179.778 198.907 179.755 200.448 179.8C200.678 179.8 200.954 180.212 201.069 180.487C201.183 180.785 201.16 181.151 201.206 181.654C202.31 180.51 203.414 179.64 204.885 179.297C205.965 179.045 206.954 179.297 207.897 179.663C208.218 179.778 208.586 180.281 208.586 180.602C208.609 181.769 208.494 182.959 208.402 184.126C208.402 184.332 208.287 184.493 208.126 184.836Z"/>
<path d="M169.39 185.156C169.39 188.887 169.39 192.618 169.39 196.372C169.39 197.905 169.298 197.951 167.758 197.905C166.953 197.882 166.148 197.905 165.344 197.905C164.217 197.882 163.941 197.562 163.941 196.463C163.987 192.732 164.056 189.001 164.056 185.27C164.056 181.379 163.987 177.488 163.941 173.62C163.941 172.613 164.263 172.27 165.321 172.247C166.194 172.224 167.091 172.224 167.965 172.247C169.183 172.27 169.367 172.43 169.39 173.643C169.413 176.115 169.39 178.61 169.39 181.082C169.39 182.409 169.39 183.783 169.39 185.156Z"/>
<path d="M123.455 224.114C123.501 229.424 119.615 233.338 114.167 233.338C109.063 233.338 105.201 229.378 105.155 224.16C105.109 218.529 109.431 214.478 114.833 214.706C118.742 214.867 123.685 218.163 123.455 224.114ZM108.258 223.999C108.166 224.022 108.074 224.045 108.005 224.068C108.373 225.373 108.58 226.746 109.155 227.959C110.235 230.225 112.213 231.187 114.695 231.026C117.063 230.866 118.857 229.79 119.753 227.524C120.512 225.625 120.673 223.656 120.167 221.688C119.592 219.422 118.259 217.705 115.891 217.224C113.339 216.721 110.971 217.156 109.408 219.536C108.534 220.864 108.189 222.374 108.258 223.999Z"/>
<path d="M208.725 223.999C208.657 218.781 212.726 214.546 218.174 214.729C222.795 214.867 227.117 218.231 227.071 223.976C227.025 229.539 223.37 233.292 217.784 233.338C212.565 233.361 208.702 229.355 208.725 223.999ZM217.784 217.064C215.186 216.881 213.025 218.758 212.312 220.795C211.576 222.924 211.507 225.029 212.289 227.158C213.14 229.47 214.818 230.775 217.232 231.003C219.945 231.255 222.083 230.065 223.163 227.799C224.06 225.922 224.221 223.976 223.761 221.916C223.048 218.758 221.048 217.064 217.784 217.064Z"/>
<path d="M194.679 225.671C194.748 228.967 191.874 232.514 188.701 233.087C186.471 233.499 184.287 233.43 182.172 232.514C179.804 231.484 178.264 229.722 177.528 227.296C176.632 224.366 176.793 221.482 178.425 218.804C179.965 216.286 182.31 214.958 185.253 214.775C186.977 214.661 188.678 214.73 190.288 215.554C192.794 216.812 194.127 218.85 194.633 221.505C194.748 222.054 194.748 222.58 194.012 222.764C193.07 222.992 192.265 222.741 192.012 222.146C191.943 221.962 191.92 221.779 191.874 221.596C191.23 218.872 189.322 217.247 186.632 217.133C183.69 217.018 181.299 218.621 180.471 221.299C179.804 223.45 179.919 225.579 180.862 227.639C181.896 229.905 184.126 231.049 187.046 230.821C189.368 230.637 191.161 229.127 191.782 226.815C192.311 224.961 192.725 224.778 194.679 225.671Z"/>
<path d="M127.569 217.43C126.742 217.384 126.213 217.338 125.707 217.315C125.086 217.292 124.834 216.949 124.811 216.354C124.811 215.736 124.971 215.301 125.684 215.255C126.213 215.209 126.742 215.187 127.454 215.141C127.5 214.34 127.569 213.607 127.546 212.852C127.523 210.998 128.121 209.419 129.523 208.16C131.822 206.123 136.903 206.283 138.444 209.67C138.742 210.311 138.995 210.861 138.168 211.318C137.386 211.753 136.788 211.662 136.329 210.883C135.478 209.464 134.305 208.892 132.673 209.167C131.57 209.35 130.88 210.014 130.719 210.998C130.489 212.28 130.512 213.63 130.42 215.118C131.179 215.164 131.822 215.209 132.443 215.209C133.179 215.232 133.892 215.232 134.627 215.209C135.363 215.209 135.639 215.599 135.616 216.308C135.616 216.972 135.294 217.292 134.627 217.292C133.754 217.292 132.857 217.292 131.983 217.315C131.57 217.315 131.156 217.384 130.65 217.43C130.604 218.002 130.535 218.483 130.535 218.963C130.535 222.877 130.535 226.814 130.535 230.728C130.535 232.903 129.983 233.315 127.592 232.628C127.569 227.661 127.569 222.626 127.569 217.43Z"/>
<path d="M154.882 188.796C154.882 186.393 154.882 183.989 154.882 181.586C154.882 179.709 154.882 179.709 156.814 179.709C157.549 179.709 158.262 179.709 158.998 179.709C160.17 179.732 160.377 179.938 160.4 181.128C160.423 181.998 160.4 182.891 160.4 183.76C160.4 187.88 160.4 191.977 160.4 196.097C160.4 197.745 160.262 197.86 158.653 197.883C157.894 197.883 157.112 197.883 156.354 197.906C154.974 197.951 154.882 197.883 154.859 196.441C154.882 193.9 154.882 191.359 154.882 188.796Z"/>
<path d="M207.047 230.018C207.598 231.346 207.483 232.056 206.38 232.468C205.184 232.902 203.874 233.269 202.633 233.292C200.265 233.314 198.885 231.85 198.839 229.469C198.793 226.013 198.816 222.534 198.816 219.055C198.816 218.574 198.77 218.093 198.724 217.43C198.104 217.384 197.529 217.407 197 217.269C196.655 217.178 196.195 216.857 196.149 216.583C196.126 216.308 196.517 215.759 196.77 215.713C198.678 215.461 199.207 214.111 199.506 212.531C199.575 212.119 199.69 211.707 199.759 211.295C199.874 210.746 200.173 210.403 200.793 210.448C201.46 210.494 201.575 210.952 201.575 211.478C201.575 212.623 201.575 213.744 201.575 215.072C202.38 215.118 203.046 215.186 203.713 215.209C204.403 215.232 205.092 215.209 205.782 215.209C206.403 215.209 206.817 215.438 206.817 216.125C206.817 216.812 206.518 217.224 205.805 217.269C204.886 217.292 203.966 217.292 203.046 217.292C202.633 217.292 202.219 217.338 201.713 217.361C201.667 217.796 201.575 218.162 201.575 218.528C201.575 221.893 201.552 225.235 201.575 228.599C201.575 230.591 202.885 231.438 204.794 230.797C205.575 230.545 206.311 230.293 207.047 230.018Z"/>
<path d="M233.187 215.393C233.279 216.011 233.371 216.56 233.509 217.384C233.9 216.949 234.153 216.697 234.383 216.423C235.624 214.981 238.038 214.317 239.854 214.912C241.05 215.301 241.211 216.057 240.429 217.705C240.13 217.659 239.785 217.682 239.486 217.567C236.498 216.469 234.245 218.803 233.578 221.138C233.394 221.756 233.348 222.42 233.348 223.061C233.325 225.853 233.348 228.623 233.325 231.415C233.325 231.85 233.118 232.628 232.888 232.674C232.221 232.834 231.463 232.811 230.773 232.628C230.543 232.56 230.405 231.85 230.382 231.415C230.336 229.538 230.359 227.684 230.359 225.807C230.359 222.9 230.359 220.016 230.359 217.109C230.359 215.233 230.543 215.072 232.405 215.187C232.635 215.255 232.842 215.324 233.187 215.393Z"/>
<path d="M246.014 215.439C246.06 215.874 246.152 216.309 246.175 216.767C246.175 221.596 246.175 226.449 246.175 231.278C246.175 232.743 245.071 233.475 243.738 232.766C243.439 232.606 243.232 232.033 243.232 231.644C243.186 229.355 243.209 227.067 243.209 224.778C243.209 222.214 243.209 219.673 243.209 217.11C243.209 215.256 243.416 215.073 245.255 215.233C245.485 215.256 245.692 215.347 246.014 215.439Z"/>
<path d="M252.657 177.672C252.428 177.603 252.29 177.558 252.129 177.535C250.313 177.375 250.312 177.375 250.312 175.521C250.312 174.788 250.335 174.079 250.312 173.346C250.312 172.591 250.634 172.202 251.416 172.225C252.726 172.225 254.014 172.225 255.324 172.225C255.991 172.225 256.313 172.545 256.313 173.209C256.313 174.925 256.405 176.642 256.267 178.336C256.083 180.762 253.485 182.685 251.117 182.273C250.933 182.25 250.634 182.158 250.611 182.067C250.496 181.38 250.335 180.648 250.427 179.984C250.473 179.663 251.002 179.274 251.37 179.183C252.152 178.977 252.726 178.702 252.657 177.672Z"/>
<path d="M170.883 215.347C171.756 215.347 172.538 215.347 173.572 215.347C173.595 221.16 173.572 226.906 173.572 232.628C173.182 232.742 172.975 232.834 172.745 232.857C170.974 232.994 170.768 232.811 170.768 231.026C170.768 226.31 170.768 221.595 170.768 216.88C170.768 216.4 170.837 215.919 170.883 215.347Z"/>
<path d="M157.571 177.489C154.697 177.489 154.881 177.741 154.881 174.857C154.881 171.973 154.697 172.202 157.548 172.202C157.893 172.202 158.238 172.202 158.583 172.202C160.169 172.202 160.399 172.408 160.422 173.941C160.445 174.628 160.445 175.314 160.422 176.001C160.399 177.283 160.215 177.466 158.974 177.489C158.491 177.489 158.031 177.489 157.571 177.489Z"/>
<path d="M246.221 209.213C246.221 209.282 246.221 209.373 246.221 209.442C246.221 210.998 245.393 211.571 243.853 211.044C243.807 211.021 243.784 211.021 243.738 210.998C242.726 210.243 243.301 209.167 243.232 208.252C243.186 207.611 243.669 207.359 244.289 207.29C245.876 207.107 246.221 207.428 246.221 209.213Z"/>
<path d="M173.779 209.258C173.779 210.975 173.503 211.227 171.894 211.112C171.089 211.066 170.722 210.677 170.767 209.876C170.79 209.487 170.767 209.121 170.767 208.732C170.79 207.496 170.997 207.267 172.239 207.267C173.572 207.244 173.779 207.519 173.779 209.258Z"/>
<ellipse cx="82.7618" cy="182.226" rx="9.42589" ry="9.38447"/>
<ellipse cx="71.4985" cy="173.758" rx="8.50629" ry="8.46891"/>
<ellipse cx="57.4728" cy="170.782" rx="7.81659" ry="7.78225"/>
<ellipse cx="43.5641" cy="173.872" rx="7.24184" ry="7.21002"/>
<ellipse cx="32.5301" cy="182.341" rx="6.78204" ry="6.75224"/>
<ellipse cx="26.3228" cy="194.93" rx="6.09234" ry="6.06557"/>
<ellipse cx="26.0929" cy="208.664" rx="5.86244" ry="5.83668"/>
<ellipse cx="32.5302" cy="221.023" rx="5.17274" ry="5.15001"/>
<ellipse cx="43.5645" cy="229.722" rx="4.71294" ry="4.69224"/>
<ellipse cx="57.5891" cy="232.697" rx="4.25315" ry="4.23446"/>
<ellipse cx="71.3832" cy="229.721" rx="3.79335" ry="3.77668"/>
<ellipse cx="82.4189" cy="221.023" rx="3.56345" ry="3.54778"/>
</g>
<defs>
<clipPath id="clip0">
<rect width="360" height="74" transform="translate(20 163)"/>
</clipPath>
</defs>
</svg>
