<svg width="400" height="400" viewBox="0 0 400 400" fill="white" xmlns="http://www.w3.org/2000/svg">
<path d="M187.386 225.686C183.426 225.81 180.889 223.583 180.704 219.623C180.518 215.416 180.642 211.146 180.642 206.939C180.642 204.464 180.704 201.989 180.58 199.514C180.332 194.812 178.229 192.584 173.588 192.027C169.876 191.594 166.473 192.522 163.132 194.75C163.132 205.021 163.132 215.292 163.132 225.501C160.038 225.81 157.81 224.635 156.82 221.974C156.326 220.675 156.14 219.19 156.14 217.767C156.078 211.889 156.14 206.011 156.078 200.133C156.078 194.626 153.417 191.966 147.973 191.904C144.817 191.904 141.847 192.646 138.815 194.688C138.815 204.835 138.815 215.168 138.815 225.501C135.289 225.934 132.628 224.078 132.009 220.922C131.824 219.994 131.824 219.066 131.824 218.138C131.824 210.713 131.886 203.288 131.762 195.864C131.7 192.522 132.999 190.419 135.907 188.996C143.703 185.16 151.438 184.603 159.234 189.305C161.028 188.624 162.822 187.82 164.678 187.201C169.071 185.716 173.588 185.469 178.043 186.706C183.983 188.315 187.571 192.77 187.695 198.834C187.881 207.186 187.757 215.539 187.695 223.892C187.695 224.573 187.51 225.13 187.386 225.686Z"/>
<path d="M293.251 163.999C297.087 163.937 300.428 164.927 303.398 166.845C309.709 170.867 313.421 176.497 313.421 184.231C313.421 193.822 313.421 203.35 313.421 212.94C313.421 213.745 313.298 214.549 313.236 215.725C312.308 215.787 311.38 215.91 310.575 215.849C301.294 214.735 293.313 206.444 293.003 197.101C292.694 186.644 292.941 176.126 292.941 165.608C292.941 165.174 293.065 164.803 293.251 163.999Z"/>
<path d="M208.545 210.218C208.36 208.238 208.236 206.753 208.112 205.021C214.362 203.288 220.734 203.35 226.736 201.927C226.489 196.915 223.952 193.574 219.435 192.399C214.547 191.099 209.535 192.832 206.937 196.854C203.596 201.989 203.719 211.332 207.432 216.22C210.958 220.922 215.97 221.788 221.291 221.046C224.261 220.613 227.107 219.252 230.201 218.262C232.243 220.551 232.057 223.211 229.211 224.82C227.541 225.748 225.622 226.367 223.704 226.738C218.755 227.604 213.867 227.357 209.102 225.439C203.843 223.273 200.254 219.561 198.708 213.992C196.975 207.558 197.099 201.247 200.254 195.369C203.967 188.501 210.03 185.655 217.765 186.088C224.571 186.459 229.397 189.8 232.367 195.864C233.604 198.338 233.913 200.999 233.79 203.721C233.666 205.887 233.047 206.753 230.882 207.063C223.581 208.176 216.341 209.166 208.545 210.218Z"/>
<path d="M263.552 207.743C260.21 208.238 257.055 208.672 253.899 209.29C251.919 209.662 250.249 210.713 249.444 212.693C248.145 215.725 249.568 219.066 252.724 220.242C257.797 222.16 262.623 221.294 267.45 218.633C267.45 214.488 267.45 210.342 267.45 206.259C267.45 203.969 267.511 201.742 267.45 199.452C267.326 195.493 265.593 193.451 261.819 192.399C257.797 191.285 254.085 192.337 250.373 193.698C249.011 194.193 247.774 194.812 246.413 195.369C245.237 191.904 246.041 189.305 249.011 188.068C255.384 185.345 261.819 185.16 268.192 188.13C272.09 189.924 274.194 193.327 274.379 197.473C274.689 204.588 274.503 211.703 274.503 218.819C274.503 220.984 273.266 222.531 271.471 223.583C263.923 227.976 256.065 228.657 248.083 225.13C243.69 223.212 241.896 219.437 242.02 214.611C242.143 209.909 244.309 206.815 248.454 204.959C249.321 204.588 250.187 204.217 251.053 204.031C255.075 203.412 259.159 202.794 263.552 202.175C263.552 204.217 263.552 205.825 263.552 207.743Z"/>
<path d="M89.441 187.573C93.5246 187.449 96.1233 189.924 96.1852 194.069C96.3089 199.514 96.1852 205.021 96.2471 210.466C96.2471 211.27 96.2471 212.136 96.2471 212.941C96.3708 218.633 99.2788 221.541 104.971 221.294C107.879 221.17 110.663 220.551 113.572 218.633C113.572 208.486 113.572 198.153 113.572 187.82C116.851 187.263 119.388 188.748 120.254 191.656C120.625 192.894 120.749 194.317 120.749 195.616C120.811 202.732 120.687 209.847 120.811 216.963C120.873 220.489 119.388 222.84 116.294 224.325C110.849 226.986 105.157 227.976 99.1551 226.553C93.0296 225.068 89.2554 220.366 89.1935 214.055C89.1316 206.135 89.1935 198.153 89.1935 190.233C89.1935 189.305 89.3791 188.439 89.441 187.573Z"/>
<path d="M345.657 236.824C338.294 236.7 330.931 238 324.187 234.102C318.866 231.07 315.587 226.553 314.164 220.675C313.854 219.314 313.978 217.891 313.916 215.973C316.515 215.973 318.742 216.035 320.97 215.973C324.806 215.911 328.58 215.973 332.23 217.272C339.841 219.933 345.533 227.357 345.966 235.401C345.966 235.71 345.843 236.02 345.657 236.824Z"/>
<path d="M54.4205 174.703C58.9373 175.26 61.041 177.487 61.041 181.819C61.1028 190.976 61.041 200.133 61.041 209.29C61.041 210.342 60.9791 211.332 61.1028 212.384C61.5978 216.467 64.1965 218.819 68.2801 218.942C70.755 219.004 73.23 218.881 75.7049 219.004C79.541 219.19 81.8303 221.479 82.3872 225.687C81.521 225.81 80.6547 225.996 79.7885 225.996C75.8905 226.058 71.9925 226.058 68.0326 225.996C60.3604 225.872 54.2349 220.427 54.0493 212.817C53.8637 200.442 54.0493 188.13 54.0493 175.755C54.0493 175.446 54.2968 175.198 54.4205 174.703Z"/>
</svg>
