<svg viewBox="0 0 400 400" xmlns="http://www.w3.org/2000/svg">
<path d="M133.193 204.121C140.696 196.138 148.413 188.342 155.597 180.087C158.863 176.33 162.614 177.38 166.334 177.537C168.126 177.61 167.379 179.104 166.648 180.045C163.283 184.267 159.908 188.48 156.522 192.684C154.886 194.722 153.329 196.827 151.605 198.781C150.56 199.936 150.675 200.736 151.605 201.916C156.412 207.883 161.162 213.895 165.853 219.953C166.439 220.705 166.653 221.75 167.04 222.659C166.073 222.905 165.106 223.365 164.14 223.37C156.914 223.396 149.688 223.438 142.467 223.239C139.922 223.166 138.809 223.882 138.287 226.484C136.845 233.558 135.11 240.591 133.412 247.598C133.193 248.523 132.508 249.338 132.038 250.21C131.249 249.609 130.303 249.134 129.697 248.381C124.995 242.566 120.292 236.73 115.705 230.815C114.55 229.326 113.615 228.976 111.844 229.864C105.124 233.161 98.332 236.328 91.5397 239.473C90.6828 239.87 89.6117 239.818 88.6346 239.995C88.6346 239.081 88.4256 238.13 88.6346 237.268C90.27 229.875 91.9315 222.487 93.6923 215.12C94.1051 213.396 93.7968 212.507 92.0987 211.677C85.181 208.385 78.3363 204.947 71.4917 201.509C70.7707 201.148 70.2168 200.464 69.5898 199.894C70.2534 199.262 70.8125 198.452 71.5805 198.076C78.3729 194.743 85.1653 191.409 92.0674 188.264C93.9849 187.386 94.3141 186.404 93.8647 184.481C92.2294 177.448 90.7298 170.374 89.2459 163.31C89.0108 162.197 89.1623 160.995 89.1414 159.835C90.3484 160.117 91.6494 160.201 92.7466 160.718C99.4293 163.879 106.065 167.15 112.721 170.384C113.244 170.645 113.824 170.86 114.566 171.178L125.773 157.405C127.477 155.315 129.133 153.184 130.904 151.136C132.341 149.474 133.234 149.626 133.71 151.658C135.601 159.882 137.446 168.122 139.149 176.388C139.332 177.276 138.689 178.561 138.047 179.355C132.299 186.456 126.447 193.489 120.637 200.542C120.024 201.209 119.559 201.997 119.273 202.857C119.692 202.551 120.09 202.218 120.465 201.859C127.32 194.544 134.232 187.313 140.967 179.914C142.775 177.924 144.625 176.957 147.305 177.182C149.437 177.365 151.589 177.218 153.737 177.218L154.103 177.955L132.816 203.823L133.193 204.121Z"/>
<path d="M298.34 179.899C302.864 176.241 307.421 174.731 312.484 175.05C321.105 175.572 327.019 180.594 329.282 189.33C330.916 195.513 330.778 202.031 328.885 208.139C325.906 217.831 318.435 223.579 306.94 223.746C300.424 223.835 293.878 222.21 287.347 221.337C285.471 221.087 285.742 219.618 285.742 218.328C285.742 202.308 285.706 186.283 285.784 170.259C285.784 167.892 285.716 166.141 282.649 166.293C282.127 166.319 281.181 165.191 281.082 164.516C280.862 162.73 281.009 160.896 281.009 158.597H298.34V179.899ZM298.444 201.629V208.421C298.444 212.136 298.444 212.136 302.18 212.883C308.972 214.242 313.889 211.932 315.676 206.295C317.273 201.467 317.24 196.248 315.582 191.44C314.934 189.58 313.325 187.511 311.601 186.681C306.339 184.11 298.444 189.544 298.444 195.375V201.629Z"/>
<path d="M263.233 219.755C257.841 223.909 251.597 225.021 244.872 223.585C238.602 222.247 234.611 217.91 233.9 211.86C233.059 204.707 235.76 199.503 241.847 196.624C246.696 194.33 251.91 194.012 257.151 193.912C258.525 193.881 259.899 193.912 261.205 193.912C262.459 188.546 260.458 185.323 255.354 185.38C250.808 185.432 246.273 186.509 241.769 187.177C240.962 187.368 240.171 187.617 239.402 187.925C238.608 184.643 237.861 181.535 236.957 177.767C240.813 176.931 244.548 175.756 248.363 175.385C252.591 174.922 256.857 174.922 261.085 175.385C269.837 176.472 274.461 181.9 274.618 190.777C274.743 197.653 274.654 204.535 274.66 211.416V214.347L278.792 215.089V222.404C274.31 222.576 269.816 222.874 265.333 222.775C264.623 222.759 263.959 220.899 263.233 219.755ZM261.665 202.628C257.485 203.187 253.713 203.484 250.04 204.258C247.892 204.712 246.905 206.562 246.905 208.84C246.905 210.93 247.605 212.576 249.58 213.511C252.799 215.037 259.314 213.349 261.279 210.434C261.531 209.99 261.658 209.486 261.644 208.976C261.67 207.158 261.644 205.339 261.644 202.628H261.665Z"/>
<path d="M184.614 222.958V184.91L180.779 184.111V176.796C185.163 176.54 189.484 176.242 193.815 176.101C194.265 176.101 194.923 176.973 195.169 177.574C195.475 178.55 195.692 179.553 195.817 180.568C196.945 179.727 197.907 179.001 198.863 178.311C204.772 174.215 211.214 173.786 217.787 176.08C223.597 178.107 226.67 182.925 226.91 188.667C227.38 199.947 227.046 211.254 227.046 222.744H214.443C214.396 221.834 214.318 220.91 214.318 219.985C214.318 212.414 214.344 204.833 214.287 197.277C214.307 195.19 214.132 193.105 213.764 191.049C212.98 187.131 210.54 185.495 206.58 185.945C202.922 186.352 200.414 188.62 198.183 191.227C197.713 191.749 197.76 192.862 197.755 193.704C197.755 202.586 197.682 211.468 197.781 220.351C197.781 222.394 197.259 223.109 195.169 223.005C191.793 222.838 188.413 222.958 184.614 222.958Z"/>
</svg>
