<svg width="400" height="400" viewBox="0 0 400 400" fill="white" xmlns="http://www.w3.org/2000/svg">
<path d="M111.904 254.683C111.519 254.489 111.132 254.122 110.748 254.126C102.485 254.19 94.8229 251.713 87.3383 248.577C79.2032 245.18 72.3219 239.951 66.5419 233.391C61.0017 227.104 57.0728 219.91 55.1722 211.639C54.478 208.624 53.9043 205.654 54.0093 202.56C54.0678 201.448 54.0678 200.335 54.0093 199.224C53.6339 193.886 54.9608 188.835 56.6561 183.869C58.8519 177.443 62.1928 171.67 66.9894 166.789C71.9866 161.705 72.8755 160.21 79.8714 155.867C85.2193 152.546 90.9154 149.888 97.1238 148.414C100.484 147.617 103.853 147.039 107.261 146.497C111.303 145.853 115.309 145.954 119.287 146.143C123.288 146.339 127.297 147.039 131.224 148.032C135.403 149.075 139.469 150.528 143.363 152.369C146.644 153.931 149.791 155.872 152.741 157.998C156.536 160.732 160.086 163.734 163.098 167.442C166.061 171.085 168.819 174.814 170.772 179.042C172.572 182.938 174.089 186.952 174.707 191.282C175.152 194.407 175.905 197.517 175.789 200.669C175.627 204.991 174.951 209.279 173.776 213.442C172.976 216.257 171.952 219.004 170.716 221.656C169.322 224.671 167.293 227.414 165.404 230.177C162.881 233.858 159.54 236.827 156.277 239.812C154.17 241.738 151.765 243.401 149.312 244.888C144.851 247.58 140.191 249.924 135.117 251.283C131.903 252.144 128.733 253.116 125.395 253.589C122.897 253.943 120.437 254.061 117.937 254.136C117.747 254.142 117.566 254.499 117.381 254.691L111.904 254.683ZM114.596 252.876C119.2 253.007 123.776 252.892 128.268 251.663C131.101 250.889 134.042 250.47 136.79 249.487C139.649 248.465 142.323 246.935 145.097 245.667C150.69 243.109 155.322 239.223 159.785 235.113C160.729 234.247 161.405 233.106 162.257 232.136C166.405 227.405 169.555 222.101 171.591 216.148C172.734 212.808 173.898 209.419 173.952 205.901C174.022 201.107 174.408 196.305 173.521 191.498C173.109 189.263 172.616 187.025 171.835 184.983C169.656 179.272 166.901 173.876 162.899 169.075C159.908 165.486 156.635 162.243 152.924 159.565C148.96 156.702 144.74 154.142 140.046 152.428C136.452 151.114 132.836 149.987 129.135 149.005C125.362 148.008 121.515 147.725 117.722 147.403C113.664 147.064 109.524 147.686 105.419 147.89C105.318 147.885 105.217 147.888 105.116 147.901C102.542 148.491 99.9713 149.103 97.3965 149.69C92.8032 150.745 88.3806 152.44 84.2583 154.724C80.4342 156.825 76.8085 159.269 73.4257 162.025C70.3325 164.567 67.5578 167.473 65.1619 170.68C61.2531 175.875 58.1967 181.598 56.7139 188.016C56.1827 190.3 55.3882 192.602 55.3563 194.904C55.3044 199.192 55.0388 203.471 55.7424 207.799C56.3326 211.428 57.2771 214.914 58.6606 218.22C62.2908 226.905 67.8689 234.168 75.4243 239.933C80.8005 244.039 86.5851 247.314 92.9884 249.506C99.1036 251.601 105.34 252.997 111.853 252.878C112.765 252.86 113.675 252.876 114.591 252.876H114.596Z"/>
<path d="M323.052 183.683C322.646 183.683 322.24 183.671 321.835 183.683C320.854 183.717 320.336 183.164 320.207 182.281C319.767 179.263 319.389 176.235 318.943 173.217C318.859 172.649 318.578 172.11 318.371 171.564C318.292 171.389 318.2 171.219 318.096 171.057C317.983 171.196 317.883 171.346 317.797 171.503C316.404 174.632 315.015 177.764 313.632 180.899C313.514 181.167 313.434 181.455 313.313 181.725C312.887 182.67 312.802 184.1 311.483 184.06C310.287 184.023 309.915 182.699 309.476 181.745C307.96 178.454 306.505 175.134 305.025 171.829C304.907 171.562 304.789 171.295 304.671 171.028C304.567 171.289 304.422 171.541 304.367 171.812C303.956 173.819 303.533 175.826 303.176 177.851C302.918 179.303 302.752 180.771 302.549 182.233C302.421 183.155 301.918 183.667 300.963 183.683C300.457 183.691 299.947 183.711 299.443 183.683C298.037 183.594 297.465 182.921 297.672 181.535C297.83 180.473 298.051 179.416 298.274 178.363C299.247 173.759 299.996 169.119 300.799 164.487C301.035 163.122 301.111 161.745 301.396 160.405C301.522 159.814 302.03 159.074 302.556 158.855C303.433 158.486 304.014 159.145 304.376 159.969C304.812 160.958 305.31 161.922 305.775 162.899C307.083 165.647 308.389 168.395 309.692 171.144C309.818 171.41 309.893 171.7 310.018 171.97C310.49 172.975 310.973 173.977 311.452 174.976C311.93 174.008 312.422 173.045 312.887 172.07C314.79 168.081 316.664 164.075 318.613 160.11C318.872 159.585 318.859 158.603 319.943 158.767C321.052 158.935 321.27 159.637 321.459 160.636C322.242 164.768 322.651 168.962 323.702 173.058C324.41 175.804 324.722 178.659 325.057 181.483C325.315 183.66 325.208 183.668 323.052 183.683Z"/>
<path d="M214.709 201.534C214.324 197.183 221.004 189.207 227.975 190.326C233.49 189.705 240.653 195.807 240.371 202.938C240.237 206.347 239.107 209.53 236.612 212.019C235.425 213.217 234.004 214.158 232.438 214.785C230.872 215.412 229.195 215.71 227.509 215.662C224.124 215.552 220.722 214.466 218.225 211.677C215.937 209.118 214.9 206.148 214.709 201.534ZM227.635 195.215C224.184 194.913 219.932 197.741 219.725 203.047C219.644 205.186 220.935 206.69 222.121 208.286C223.51 210.156 225.697 210.719 227.592 210.765C228.579 210.791 229.559 210.608 230.47 210.227C231.38 209.847 232.2 209.279 232.875 208.56C234.445 206.87 235.487 204.964 235.447 202.793C235.382 199.054 232.063 194.901 227.635 195.215Z"/>
<path d="M268.429 202.833C268.429 199.402 268.409 195.97 268.437 192.54C268.451 190.758 268.799 190.382 270.491 190.36C273.427 190.321 276.369 190.242 279.3 190.373C283.776 190.568 287.505 194.387 287.296 198.519C287.16 201.207 285.56 203.181 283.497 204.639C282.517 205.332 282.379 205.562 282.981 206.608C284.204 208.733 285.194 210.991 286.263 213.204C286.832 214.384 286.48 215.101 285.26 215.233C284.659 215.298 284.041 215.207 283.438 215.255C282.308 215.348 281.645 214.991 281.135 213.851C280.093 211.519 278.818 209.288 277.616 207.027C276.9 205.681 275.503 205.106 274.216 205.659C273.484 205.973 273.306 206.619 273.321 207.404C273.362 209.623 273.31 211.845 273.346 214.064C273.36 214.988 272.967 215.232 272.083 215.268C268.627 215.409 268.433 215.268 268.43 211.919C268.426 208.89 268.426 205.861 268.429 202.833ZM273.335 197.933C273.335 198.642 273.306 199.35 273.342 200.058C273.414 201.466 273.727 201.782 275.158 201.84C276.171 201.88 277.22 202.01 278.191 201.804C279.325 201.568 280.588 201.228 281.423 200.506C282.026 199.985 282.317 198.735 282.221 197.865C282.064 196.44 280.637 195.274 279.388 195.231C277.87 195.179 276.347 195.2 274.826 195.223C273.376 195.243 273.374 195.262 273.336 196.723C273.327 197.125 273.336 197.53 273.335 197.933Z"/>
<path d="M256.834 171.535C256.834 167.993 256.811 164.459 256.842 160.922C256.858 159.175 257.214 158.822 258.957 158.797C261.593 158.762 264.243 158.626 266.866 158.829C270.247 159.09 273.104 160.155 274.641 163.735C275.769 166.364 274.894 171.635 271.617 173.014C270.045 173.675 270.098 173.933 270.908 175.362C271.933 177.157 272.949 178.957 273.932 180.775C274.216 181.287 274.418 181.84 274.531 182.414C274.68 183.24 274.377 183.664 273.396 183.712C270.057 183.863 269.941 183.83 268.437 180.838C267.643 179.252 266.865 177.659 266.035 176.092C265.716 175.49 265.387 174.656 264.855 174.453C263.992 174.12 262.957 174.151 262.007 174.211C261.877 174.218 261.743 175.274 261.732 175.849C261.699 177.769 261.749 179.69 261.711 181.611C261.676 183.325 261.321 183.636 259.547 183.685C259.04 183.699 258.529 183.653 258.026 183.695C257.092 183.774 256.804 183.348 256.813 182.457C256.852 178.82 256.834 175.175 256.834 171.535ZM261.74 166.931C261.74 170.292 261.74 170.292 264.999 170.288C265.604 170.288 266.214 170.337 266.815 170.28C268.504 170.12 270.089 168.807 270.239 167.494C270.506 165.207 269.251 163.761 266.896 163.662C266.291 163.637 265.684 163.662 265.078 163.662C261.74 163.654 261.74 163.654 261.74 166.926V166.931Z"/>
<path d="M248.939 199.395C248.939 201.618 248.91 203.841 248.947 206.063C248.992 208.794 250.482 210.444 253.305 210.697C254.21 210.777 255.327 210.587 256.049 210.09C256.976 209.453 257.885 208.715 258.174 207.323C258.376 206.364 258.646 205.428 258.646 204.436C258.646 200.497 258.654 196.557 258.646 192.617C258.646 191.796 258.544 190.75 259.482 190.582C260.601 190.38 261.814 190.55 262.956 190.736C263.222 190.78 263.547 191.543 263.547 191.976C263.587 196.926 263.872 201.901 263.471 206.819C263.152 210.72 260.35 214.792 255.432 215.281C250.145 215.806 248.014 214.372 245.146 211.111C244.698 210.601 244.268 209.965 244.126 209.321C243.806 207.886 243.522 206.411 243.493 204.946C243.41 200.806 243.446 196.663 243.473 192.521C243.485 190.75 243.841 190.42 245.547 190.351C245.952 190.335 246.358 190.337 246.763 190.351C248.534 190.408 248.906 190.724 248.934 192.427C248.966 194.748 248.937 197.072 248.939 199.395Z"/>
<path d="M231.884 167.868C231.884 169.887 231.884 171.905 231.884 173.924C231.884 178.042 229.904 180.98 226.453 183.072C225.455 183.677 224.311 183.477 223.305 183.78C222.299 184.084 221.483 184.58 220.564 183.753C217.955 184.044 216.349 182.436 214.627 180.837C212.651 179.004 211.912 176.697 211.831 174.215C211.685 169.778 211.77 165.333 211.801 160.893C211.812 159.172 212.207 158.836 213.936 158.787C216.406 158.716 216.666 158.969 216.696 161.492C216.696 161.896 216.696 162.299 216.696 162.703C216.696 165.833 216.78 168.96 216.66 172.088C216.604 173.533 217.063 174.815 217.431 176.126C218.021 178.208 219.728 178.976 221.693 179.201C223.21 179.375 225.772 177.691 226.243 176.116C226.632 174.818 227.07 173.519 227.019 172.08C226.901 168.45 226.979 164.814 226.982 161.18C226.982 160.388 226.772 159.307 227.708 159.091C228.816 158.837 230.045 158.929 231.183 159.112C231.49 159.161 231.84 160.074 231.856 160.601C231.924 163.022 231.884 165.445 231.884 167.868Z"/>
<path d="M279.379 171.349C279.379 167.911 279.361 164.473 279.388 161.037C279.402 159.104 279.706 158.809 281.693 158.794C285.447 158.769 289.202 158.794 292.956 158.777C293.789 158.777 294.839 158.7 295.007 159.603C295.213 160.714 295.053 161.935 294.814 163.058C294.751 163.35 293.809 163.61 293.265 163.622C290.629 163.68 287.99 163.662 285.355 163.64C284.621 163.634 284.218 163.834 284.27 164.655C284.359 166.049 284.399 167.446 284.459 168.841C285.751 168.915 287.042 169.012 288.336 169.057C289.349 169.093 290.366 169.07 291.38 169.063C293.715 169.048 293.414 169.051 293.424 171.277C293.434 173.535 293.542 173.38 291.256 173.372C289.937 173.366 288.618 173.372 287.299 173.372C284.277 173.372 284.278 173.372 284.279 176.382C284.28 179.393 284.279 179.382 287.314 179.383C289.439 179.383 291.576 179.377 293.706 179.383C294.104 179.383 294.817 179.374 294.849 179.501C295.062 180.345 295.148 181.224 295.235 182.099C295.32 182.939 294.793 183.414 294.084 183.646C293.718 183.764 293.28 183.677 292.874 183.677C289.12 183.677 285.366 183.696 281.612 183.67C279.691 183.657 279.405 183.353 279.39 181.352C279.362 178.022 279.379 174.688 279.379 171.349Z"/>
<path d="M329.299 171.629C329.299 168.192 329.285 164.755 329.299 161.318C329.311 159.053 329.524 158.811 331.63 158.795C335.383 158.768 339.137 158.795 342.89 158.78C343.723 158.78 344.682 158.703 344.96 159.617C345.301 160.738 345.51 162.012 344.76 163.05C344.485 163.431 343.727 163.615 343.182 163.627C340.546 163.685 337.908 163.667 335.273 163.644C334.527 163.644 334.144 163.863 334.196 164.671C334.286 166.063 334.333 167.456 334.398 168.849C335.691 168.922 336.982 169.015 338.276 169.062C339.187 169.097 340.106 169.016 341.014 169.086C341.782 169.145 343.08 169.167 343.197 169.518C343.493 170.414 343.407 171.516 343.197 172.469C343.036 173.186 342.285 173.408 341.481 173.39C339.356 173.341 337.221 173.382 335.09 173.373C334.465 173.373 334.186 173.639 334.204 174.267C334.252 175.875 334.28 177.483 334.315 179.091C335.803 179.188 337.288 179.327 338.775 179.373C340.296 179.422 341.82 179.344 343.339 179.396C344.787 179.444 345.157 179.919 345.169 181.509C345.181 183.099 344.797 183.649 343.387 183.663C339.026 183.706 334.662 183.663 330.3 183.688C329.457 183.688 329.298 183.227 329.299 182.543C329.303 178.907 329.303 175.269 329.299 171.629Z"/>
<path d="M205.512 190.358C208.1 189.799 210.234 191.246 212.359 192.493C214.043 193.482 214.03 194.456 212.665 195.856C211.262 197.295 211.262 197.295 209.215 196.04C204.985 193.443 198.945 195.686 197.892 200.484C197.338 203.004 197.553 205.712 199.32 207.896C200.54 209.403 202.007 210.505 204.183 210.411C206.292 210.318 208.397 210.549 210.077 208.824C210.63 208.256 211.376 208.446 211.951 209.032C212.305 209.393 212.687 209.73 213.024 210.106C213.85 211.027 213.895 211.593 213.1 212.432C211.552 214.067 209.734 215.235 207.382 215.246C206.072 215.252 204.839 215.558 203.437 215.354C196.632 214.363 193.669 210.632 192.421 205.632C191.567 202.22 192.311 198.714 194.513 195.699C197.207 192.003 200.681 189.932 205.512 190.358Z"/>
<path d="M242.7 158.789C245.108 158.586 247.938 158.823 250.481 160.517C252.379 161.781 253.462 163.511 253.833 165.754C254.392 169.138 252.85 171.556 250.307 173.496C249.452 174.149 248.514 174.695 247.31 174.615C246 174.529 244.679 174.589 243.362 174.605C241.687 174.627 241.671 174.636 241.656 176.185C241.639 178.203 241.626 180.223 241.664 182.24C241.682 183.179 241.554 183.757 240.365 183.705C237.667 183.587 236.64 184.382 236.715 180.324C236.833 173.969 236.735 167.61 236.751 161.251C236.751 159.087 237.03 158.832 239.138 158.791C240.151 158.772 241.164 158.789 242.7 158.789ZM241.652 166.74C241.652 166.941 241.652 167.144 241.652 167.346C241.744 170.888 241.005 170.209 244.729 170.298C245.134 170.307 245.556 170.36 245.944 170.28C247.472 169.966 248.819 168.608 248.921 167.339C249.082 165.355 247.586 163.741 245.509 163.658C241.654 163.499 241.654 163.499 241.652 166.74Z"/>
<path d="M201.033 158.765C203.158 158.304 205.01 159.612 206.936 160.625C207.846 161.105 208.026 162.1 207.526 163.002C206.418 165.019 205.785 165.23 203.735 164.236C203.112 163.935 202.537 163.517 201.893 163.279C200.713 162.843 199.569 162.884 198.47 163.633C197.468 164.316 197.154 165.291 197.804 166.252C198.724 167.611 199.955 168.623 201.553 169.067C203.629 169.642 205.246 170.846 206.83 172.271C210.202 175.305 209.371 181.4 204.462 183.25C202.887 183.84 201.157 184.437 199.107 183.847C197.219 183.305 195.252 183.204 193.644 181.887C192.791 181.19 192.562 179.787 193.219 178.802C194.007 177.615 194.728 177.406 195.985 177.917C197.431 178.508 198.667 179.607 200.419 179.452C201.551 179.352 202.762 179.249 203.151 178.153C203.556 177.015 203.397 175.716 202.126 174.966C200.855 174.216 199.624 173.369 198.276 172.8C195.496 171.626 193.384 170.008 192.65 166.854C192.08 164.401 193.146 161.279 195.35 159.99C197.406 158.793 197.563 158.757 201.033 158.765Z"/>
<path d="M297.111 190.349C299.34 190.349 301.569 190.312 303.797 190.362C305.137 190.391 305.53 190.834 305.598 192.187C305.628 192.79 305.749 193.457 305.544 193.985C305.355 194.469 304.836 194.893 304.363 195.171C304.06 195.349 303.57 195.189 303.168 195.219C301.987 195.304 300.806 195.406 299.626 195.502C299.588 196.601 299.52 197.7 299.517 198.799C299.506 203.639 299.496 208.489 299.517 213.335C299.528 215.481 299.443 215.235 297.475 215.243C297.172 215.243 296.867 215.255 296.564 215.243C295.057 215.173 294.624 214.791 294.615 213.257C294.586 208.311 294.604 203.364 294.604 198.418C294.604 197.71 294.583 197.001 294.61 196.299C294.637 195.596 294.445 195.162 293.606 195.203C292.596 195.253 291.579 195.245 290.568 195.209C288.889 195.151 288.561 194.776 288.527 193.006C288.521 192.704 288.505 192.4 288.527 192.099C288.626 190.82 289.05 190.386 290.415 190.361C292.654 190.319 294.888 190.349 297.111 190.349Z"/>
<path d="M286.069 231.171C285.724 225.868 290.729 221.705 295.504 221.894C298.101 221.995 300.285 222.891 302.128 224.781C303.971 226.672 304.881 229.139 304.812 231.461C304.737 234.019 303.719 236.641 301.481 238.488C299.729 239.97 297.5 240.769 295.205 240.738C290.54 240.738 285.625 236.71 286.069 231.171ZM295.054 238.285C299.116 238.666 302.502 235.068 302.573 231.426C302.644 227.784 299.267 224.408 295.409 224.234C291.639 224.064 288.273 227.625 288.075 231.368C287.978 233.195 289.037 235.101 290.631 236.515C291.976 237.708 293.354 238.503 295.054 238.285Z"/>
<path d="M210.57 231.504C210.858 234.237 209.802 236.382 207.923 238.226C206.121 239.997 203.949 240.679 201.46 240.757C198.886 240.839 196.766 239.675 194.995 238.152C192.887 236.337 192.362 233.805 192.15 230.939C191.803 226.231 197.372 221.599 201.629 221.848C204.28 222.003 206.422 223.001 208.24 224.768C210.124 226.61 210.935 228.905 210.57 231.504ZM201.433 238.297C205.475 238.596 208.775 235.072 208.7 231.686C208.606 227.399 205.998 224.422 201.56 224.296C199.331 224.232 197.864 225.259 196.299 226.624C194.691 228.026 194.327 229.874 194.227 231.651C194.031 235.132 197.655 238.293 201.433 238.297Z"/>
<path d="M308.004 231.045C308.004 228.623 308.027 226.205 307.992 223.78C307.981 222.954 308.122 222.448 309.122 222.467C311.55 222.512 313.991 222.357 316.41 222.523C318.899 222.693 320.504 224.286 320.827 226.9C321.087 229.007 320.639 230.775 318.807 232.202C317.36 233.331 317.529 233.47 318.525 235.138C319.282 236.402 319.942 237.735 320.598 239.047C320.965 239.779 320.71 240.087 319.865 240.159C318.849 240.245 318.171 239.923 317.724 238.938C317.033 237.418 316.138 235.987 315.492 234.452C315.162 233.662 314.756 233.463 313.958 233.436C310.45 233.318 310.451 233.29 310.45 236.882C310.45 237.59 310.402 238.298 310.461 239C310.545 239.99 310.019 240.156 309.182 240.173C308.249 240.193 307.975 239.806 307.989 238.918C308.031 236.291 308.004 233.668 308.004 231.045ZM310.365 227.867C310.474 229.048 310.161 230.674 310.81 231.284C311.46 231.893 313.08 231.527 314.274 231.583C314.476 231.598 314.679 231.598 314.881 231.583C316.77 231.397 318.252 230.094 318.369 228.535C318.524 226.466 317.627 225.082 315.674 224.492C315.209 224.351 314.687 224.374 314.191 224.364C310.463 224.25 310.463 224.252 310.364 227.867H310.365Z"/>
<path d="M345.769 239.672C345.526 239.79 345.127 240.145 344.781 240.104C344.302 240.03 343.87 239.777 343.571 239.396C343.134 238.755 342.873 237.992 342.549 237.271C342.116 236.31 341.531 235.768 340.319 235.855C338.504 235.988 336.651 236.053 334.852 235.837C333.393 235.662 332.9 236.441 332.424 237.46C332.176 237.994 332.017 238.572 331.737 239.087C331.55 239.428 331.274 239.841 330.946 239.953C330.496 240.102 330.009 240.086 329.569 239.91C329.365 239.816 329.241 239.154 329.352 238.847C329.778 237.654 330.297 236.486 330.813 235.332C332.554 231.39 334.295 227.448 336.075 223.526C336.275 223.087 336.727 222.762 337.05 222.374C337.353 222.012 337.641 221.902 337.995 222.318C338.255 222.628 338.644 222.869 338.802 223.218C341.14 228.394 343.457 233.578 345.755 238.773C345.838 238.939 345.769 239.17 345.769 239.672ZM337.623 234.019C338.434 234.019 339.245 234.019 340.055 234.019C340.674 234.019 341.062 233.756 340.763 233.112C339.819 231.063 338.839 229.035 337.867 226.999C337.756 226.763 337.623 226.546 337.5 226.319C337.382 226.585 337.264 226.852 337.146 227.117C336.581 228.364 336.022 229.614 335.449 230.857C333.986 234.026 333.982 234.025 337.623 234.019Z"/>
<path d="M256.832 231.059C256.753 226.597 259.155 224.006 263.148 222.441C266.621 221.084 269.494 222.228 272.231 224.229C272.476 224.407 272.688 225.095 272.573 225.215C272.179 225.63 271.688 225.942 271.144 226.122C270.864 226.205 270.429 225.886 270.104 225.683C266.423 223.395 263.336 223.816 260.597 226.994C258.791 229.089 258.851 233.385 260.51 235.582C262.838 238.664 267.357 239.314 270.037 237.006C270.322 236.76 270.766 236.441 271.053 236.51C271.586 236.637 272.162 236.935 272.502 237.343C272.648 237.519 272.378 238.307 272.079 238.542C269.799 240.333 267.111 241.332 264.315 240.639C260.476 239.688 256.431 236.58 256.83 231.667C256.847 231.464 256.832 231.261 256.832 231.059Z"/>
<path d="M240.375 240.996C239.887 240.388 239.438 239.996 239.204 239.504C238.234 237.472 237.315 235.419 236.406 233.358C235.031 230.227 233.676 227.086 232.342 223.936C232.178 223.549 231.999 222.928 232.184 222.685C232.546 222.213 233.975 222.455 234.29 222.967C234.537 223.394 234.752 223.837 234.936 224.294C236.376 227.613 237.806 230.936 239.25 234.253C239.41 234.617 239.608 234.963 239.84 235.286C239.989 235.493 240.228 235.777 240.421 235.771C240.613 235.765 240.875 235.481 240.979 235.26C242.012 233.039 243.019 230.808 244.033 228.579C244.804 226.887 245.679 225.231 246.301 223.485C246.676 222.435 247.329 222.447 248.144 222.5C248.774 222.541 249.088 222.867 248.823 223.47C248.164 224.995 247.45 226.497 246.773 228.015C245.021 231.946 243.292 235.886 241.513 239.804C241.33 240.209 240.867 240.495 240.375 240.996Z"/>
<path d="M220.202 222.511C221.821 222.511 223.441 222.493 225.061 222.532C225.29 222.532 225.651 222.783 225.7 222.982C225.761 223.206 225.617 223.64 225.429 223.742C224.936 224.014 224.375 224.302 223.832 224.322C221.91 224.389 219.983 224.385 218.06 224.333C217.091 224.307 216.538 224.458 216.632 225.631C216.767 227.324 216.75 229.029 216.793 230.729C218.485 230.815 220.176 230.905 221.87 230.985C222.275 231.004 222.681 231 223.084 230.991C223.698 230.975 223.993 231.254 224.004 231.874C224.013 232.455 223.843 232.844 223.178 232.844C221.963 232.844 220.748 232.851 219.532 232.854C218.925 232.854 218.316 232.882 217.711 232.847C216.95 232.803 216.626 233.09 216.648 233.881C216.687 235.495 216.617 237.111 216.675 238.721C216.711 239.7 216.51 240.225 215.359 240.175C214.415 240.135 214.178 239.748 214.189 238.887C214.215 233.842 214.235 228.796 214.176 223.751C214.162 222.57 214.71 222.438 215.649 222.465C217.168 222.507 218.687 222.476 220.206 222.476L220.202 222.511Z"/>
<path d="M278.77 232.138C278.77 229.924 278.735 227.709 278.788 225.495C278.81 224.542 278.411 224.292 277.539 224.335C276.531 224.39 275.521 224.372 274.516 224.279C274.279 224.256 273.954 223.749 273.942 223.453C273.93 223.157 274.214 222.8 274.445 222.536C274.538 222.428 274.83 222.48 275.035 222.48C278.369 222.48 281.701 222.48 285.034 222.474C285.759 222.474 286.169 222.702 286.108 223.516C286.06 224.16 285.714 224.368 285.131 224.342C285.031 224.342 284.929 224.342 284.829 224.342L281.523 224.451C281.425 225.623 281.254 226.793 281.242 227.965C281.204 231.588 281.216 235.211 281.242 238.834C281.242 239.639 281.131 240.181 280.124 240.162C278.963 240.141 278.796 240.059 278.781 238.774C278.752 236.567 278.77 234.352 278.77 232.138Z"/>
<path d="M326.906 231.305C326.906 233.725 326.906 236.147 326.906 238.57C326.906 239.37 327.069 240.222 325.768 240.169C324.615 240.123 324.459 240.07 324.454 238.744C324.437 233.8 324.437 228.856 324.454 223.911C324.454 222.57 324.785 222.343 326.049 222.48C326.676 222.547 326.91 222.834 326.908 223.434C326.899 226.057 326.905 228.68 326.906 231.305Z"/>
<path d="M251.34 231.337C251.34 228.725 251.355 226.112 251.33 223.5C251.322 222.709 251.671 222.437 252.419 222.481C253.077 222.516 253.245 222.885 253.245 223.459C253.245 228.684 253.233 233.909 253.253 239.135C253.253 239.931 252.913 240.188 252.166 240.149C251.506 240.115 251.34 239.749 251.34 239.176C251.345 236.564 251.345 233.951 251.34 231.337Z"/>
<path d="M116.78 166.67C116.983 167.282 117.186 167.895 117.39 168.508C117.073 168.296 116.76 168.079 116.439 167.874C116.216 167.731 115.983 167.606 115.755 167.474C115.7 167.852 115.46 168.377 115.623 168.578C116.171 169.253 116.84 169.464 117.374 168.489C118.436 169.359 117.992 170.24 117.501 171.229C116.736 172.771 116.859 172.889 118.603 172.729C119.566 172.641 120.464 172.417 121.027 171.525C121.644 171.34 122.537 171.997 122.857 170.921H125.302C125.405 171.737 126.053 171.454 126.525 171.525C126.936 172.272 127.352 173.017 127.755 173.768C127.873 173.985 127.977 174.211 128.087 174.433C128.171 174.162 128.323 173.892 128.323 173.618C128.363 172.379 128.008 171.451 126.504 171.543C126.42 170.706 125.768 170.987 125.289 170.933C124.447 170.139 123.688 170.139 122.862 170.933C122.25 171.126 121.343 170.438 121.037 171.542C120.251 171.268 118.863 172.143 118.706 171.005C118.526 169.697 119.914 169.803 120.907 169.656C122.161 169.468 123.261 168.348 124.666 169.052C126.806 168.115 127.631 170.397 129.19 170.887C129.514 172.269 130.681 173.497 129.957 175.082C129.872 175.268 129.957 175.53 129.957 175.757C130.147 175.717 130.38 175.731 130.521 175.625C130.924 175.32 131.254 174.916 131.678 174.647C132.307 174.255 132.993 173.953 133.654 173.612C133.219 172.954 132.865 172.22 132.331 171.653C130.815 170.043 129.676 168.21 128.717 166.233C128.503 165.793 128.481 165.606 128.825 165.271C129.237 164.865 129.481 165.055 129.761 165.389C130.858 166.688 132.122 167.868 133.015 169.285C134.058 170.938 135.602 171.972 136.978 173.238C137.784 173.979 138.002 173.71 138.334 172.936C138.372 172.846 139.042 172.864 139.08 172.955C139.571 174.335 140.143 173.917 141.003 173.222C142.032 172.396 142.066 172.522 142.983 173.93C143.266 174.365 143.8 174.791 144.295 174.91C146.221 175.375 147.564 176.556 148.643 178.119C149.449 179.289 149.306 180.079 149.8 182.94C150.195 185.239 149.395 186.836 148.205 188.515C148.022 188.773 148.078 189.202 148.024 189.551C148.378 189.504 148.732 189.462 149.086 189.41C149.572 189.338 150.298 189.431 150.503 189.152C151.548 187.701 152.51 189.593 153.489 189.159C153.51 189.15 153.757 189.459 153.725 189.536C152.818 191.461 153.669 193.523 153.238 195.479C153.203 195.575 153.143 195.66 153.065 195.726C152.504 196.304 152.878 196.696 153.203 197.269C154.502 199.562 155.953 201.846 154.641 204.699C154.371 205.289 154.296 206.275 154.617 206.76C155.649 208.321 154.742 209.635 154.24 210.925C153.272 213.411 150.418 214.196 148.094 212.769C147.872 212.632 147.638 212.515 147.41 212.389C147.351 212.675 147.292 212.96 147.235 213.247C146.975 214.752 147.708 215.676 148.938 216.45C150.788 217.618 150.827 217.69 150.236 219.898C149.569 222.385 149.071 224.864 148.977 227.454C148.938 228.552 148.173 229.625 147.737 230.71C146.291 230.622 146.264 232.411 145.148 232.68C144.382 232.864 143.553 232.881 142.76 232.839C141.893 232.795 141.296 233.092 140.596 233.622C137.302 236.117 133.619 237.669 129.406 237.71C127.682 237.727 125.942 237.578 124.236 237.756C122.758 237.912 121.471 237.361 120.172 236.978C118.276 236.42 117.277 235.009 117.348 232.932C117.375 232.15 117.214 231.361 117.14 230.57C117.022 231.384 116.884 232.195 116.8 233.012C116.748 233.512 116.788 234.021 116.779 234.528C116.731 236.889 116.543 237.062 114.153 237.079C111.355 237.096 111.345 237.087 111.275 234.172C111.262 233.667 111.268 233.161 111.244 232.656C111.218 232.562 111.158 232.48 111.075 232.426C110.941 232.482 110.82 232.567 110.721 232.674C110.671 232.737 110.699 232.87 110.708 232.97C110.97 235.595 109.459 236.81 107.149 237.285C105.229 237.682 103.253 238.363 101.357 238.201C95.915 237.737 90.5777 236.721 86.4364 232.653C85.6336 231.865 85.8662 232.896 85.5947 233.09C85.3668 233.253 84.8226 233.272 84.6219 233.107C84.3209 232.861 84.2737 231.487 83.9136 233.079C83.8687 233.272 83.936 233.488 83.8994 233.684C83.8463 233.968 83.7448 234.243 83.6633 234.522C83.4227 234.375 83.1935 234.211 82.9774 234.031C82.5855 233.655 82.2939 233.048 81.837 232.888C79.3803 232.026 78.4595 230.013 77.8043 227.783C77.6933 227.409 77.9412 226.81 77.7335 226.603C76.1492 225.01 77.0936 223.486 77.9696 222.163C78.9955 220.617 79.0557 219.003 79.0002 217.295C78.9707 216.386 78.986 215.475 78.9943 214.566C79.0025 213.739 78.901 213.068 77.8279 213.683C76.1893 214.627 75.1398 213.417 74.1942 212.512C73.186 211.546 72.3183 210.151 73.1435 208.776C74.1458 207.102 73.9805 205.353 74.1966 203.59C74.4032 201.903 74.4055 200.083 75.7407 198.672C76.331 198.045 76.2873 197.274 76.0559 196.327C75.7301 194.989 75.9379 193.514 75.9745 192.1C75.9827 191.758 76.1787 191.42 76.2873 191.08C78.0038 191.922 76.6792 189.001 78.2399 189.496C78.4418 189.56 78.8137 189.296 79.2009 189.582C79.9092 190.1 80.699 190.493 81.4545 190.94C81.3707 191.319 81.2054 191.701 81.2184 192.078C81.2621 193.31 81.5631 194.567 81.4026 195.767C81.2385 196.994 80.4463 198.139 80.287 199.365C79.973 201.796 79.2351 203.934 77.4053 205.669C76.697 206.34 75.9721 207.16 75.6817 208.05C75.3606 209.037 75.4243 210.197 75.5743 211.245C75.6014 211.441 76.8327 211.584 77.4891 211.526C77.8433 211.495 78.1974 211.022 78.4619 210.684C79.2056 209.756 79.9186 208.804 80.6234 207.851C82.2337 205.662 83.3103 203.295 83.295 200.499C83.295 199.436 83.3351 198.391 83.6621 197.285C83.9289 196.383 83.0329 195.144 82.6717 194.047C82.6115 193.863 82.7319 193.575 82.6304 193.457C82.02 192.72 82.432 191.505 81.438 190.962C80.9658 188.928 80.2799 186.926 80.81 184.776C80.9209 184.324 80.9009 183.678 80.6506 183.328C79.7416 182.053 80.2185 181.414 81.477 180.874C82.0944 180.61 81.9043 180.144 81.4687 179.733C80.7344 179.04 79.9623 178.365 79.3437 177.578C77.9141 175.774 78.4619 174.155 80.6872 173.322C81.3294 173.086 81.9964 172.864 82.5678 172.503C83.1663 172.124 83.3221 171.889 82.4308 171.371C81.7355 170.966 81.7532 169.789 82.4674 168.995C83.1817 168.2 84.0564 168.312 84.5298 169.283C84.7717 169.813 84.971 170.361 85.126 170.922C85.3267 171.586 85.7092 171.66 86.2251 171.299C86.4706 171.127 86.6395 170.839 86.8945 170.688C89.2248 169.302 91.39 170.309 91.7795 172.984C91.8799 173.677 91.7866 174.4 91.8067 175.1C91.8445 176.373 91.8539 176.375 93.1053 176.005C93.2918 175.949 93.4594 175.802 93.6448 175.783C94.3012 175.717 94.9339 175.811 94.8371 176.671C94.6742 178.114 95.2421 179.156 96.3435 180.052C96.7878 180.436 97.1127 180.94 97.2797 181.504C97.694 182.92 98.1639 184.276 99.0965 185.455C99.3905 185.846 99.5871 186.302 99.6703 186.784C99.9926 188.575 99.9689 188.555 101.187 188.517C101.77 188.496 102.081 188.332 102.148 187.676C102.216 187.019 102.806 186.18 102.565 185.78C102.102 185.007 102.205 184.547 102.674 183.921C102.78 183.777 102.626 183.331 102.471 183.12C100.948 181.001 100.818 178.366 99.8131 176.045C98.8533 173.823 100.066 170.829 102.143 169.434C102.512 169.186 105.492 168.783 106.013 168.919C107.048 169.188 108.082 169.461 109.116 169.738C110.712 170.17 110.832 170.101 111.417 168.761C111.731 168.042 112.139 167.363 112.504 166.667L113.113 166.059L113.568 165.836L113.331 165.616L113.13 166.074L112.519 166.681C111.629 165.301 111.629 163.742 112.519 162.417L113.131 163.023C113.2 163.171 113.27 163.317 113.341 163.465L113.557 163.249L113.115 163.039L112.506 162.431C112.326 160.66 113.687 161.198 114.491 161.25C115.345 161.311 116.875 160.424 116.782 162.424L116.175 163.033L115.727 163.232L115.937 163.463L116.16 163.019L116.772 162.412C117.205 163.038 117.437 163.782 117.437 164.543C117.437 165.305 117.205 166.049 116.772 166.675L116.154 166.079C116.08 165.929 116.007 165.778 115.933 165.628L115.714 165.858L116.169 166.062L116.78 166.67ZM124.087 236.467L124.3 236.921L124.545 236.701L124.073 236.483L123.845 236.004L123.615 236.257L124.087 236.467ZM105.817 217.062L105.345 217.275L105.573 217.511L105.796 217.039L106.253 216.824L106.023 216.603L105.817 217.062ZM100.322 199.458L99.7116 198.852C99.1992 198.275 98.6877 197.698 98.1769 197.122L97.2915 199.457L96.8452 199.671L97.0589 199.901L97.2809 199.447C98.0081 198.894 98.8321 198.723 99.7269 198.839L100.337 199.447L100.554 199.919L100.784 199.672L100.322 199.458ZM128.351 217.062H127.731C128.174 215.763 126.29 215.923 126.354 214.866C126.208 215.006 125.94 215.143 125.935 215.287C125.902 216.496 126.51 217.102 127.739 217.058C127.804 217.211 127.867 217.364 127.931 217.517L128.336 217.056L128.945 216.448C130.311 215.419 130.314 215.246 128.939 214.669C128.767 214.597 128.544 214.644 128.349 214.636L127.723 214.025L127.499 213.561L127.271 213.787L127.736 214.012L128.34 214.625C128.545 215.236 128.751 215.845 128.957 216.454L128.351 217.062ZM113.111 178.222C112.908 178.019 112.704 177.816 112.5 177.614C112.507 177.513 112.524 177.414 112.552 177.317C112.838 176.647 114.02 176.456 113.584 175.399C112.84 175.92 112.236 175.155 111.534 175.179C110.328 175.222 109.12 175.192 107.913 175.179C106.298 175.161 104.83 175.582 103.511 176.532C103.199 176.747 102.842 176.886 102.468 176.941C102.187 176.985 101.878 176.844 101.582 176.785C101.744 177.13 101.837 177.541 102.086 177.805C102.46 178.2 102.944 178.492 103.384 178.827C103.191 178.986 102.951 179.113 102.821 179.311C102.757 179.408 102.896 179.637 102.939 179.806C103.073 179.662 103.251 179.538 103.325 179.369C103.4 179.2 103.356 179 103.364 178.813C103.775 179.196 104.198 179.566 104.588 179.968C104.715 180.099 104.757 180.31 104.837 180.485C104.971 180.274 105.064 179.926 105.246 179.871C106.418 179.509 107.017 178.976 106.495 177.608C106.349 177.221 106.849 176.516 107.188 176.061C107.313 175.895 108.059 175.897 108.158 176.053C109.03 177.421 109.849 178.805 111.198 179.804C111.38 179.938 111.214 180.542 111.209 180.928C110.897 180.847 110.586 180.699 110.276 180.706C110.028 180.712 109.638 180.857 109.579 181.03C109.511 181.232 109.666 181.621 109.85 181.769C110.142 182.014 110.531 182.152 110.894 182.299C111.47 182.535 111.856 182.39 111.866 181.709C111.882 180.808 111.846 179.908 111.886 179.009C111.91 178.478 111.595 177.752 112.516 177.603L113.126 178.21L113.346 178.661L113.565 178.431L113.111 178.222ZM130.179 217.668L129.724 217.857L130.179 218.261C130.033 218.508 129.943 218.81 129.733 218.993C128.03 220.528 126.309 222.022 124.602 223.552C124.443 223.695 124.414 223.983 124.326 224.204C124.602 224.18 124.909 224.225 125.152 224.119C125.692 223.883 126.182 223.529 126.722 223.301C126.958 223.203 127.353 223.183 127.505 223.311C127.657 223.44 127.699 223.866 127.605 224.081C127.29 224.789 126.897 225.472 126.528 226.163L126.071 226.384L126.307 226.601L126.507 226.149C127.841 226.226 128.379 225.263 128.949 224.317C129.893 222.754 131.247 221.631 132.858 220.8C133.376 220.532 133.947 220.359 134.448 220.061C135.173 219.629 135.827 218.231 135.6 217.582C135.264 216.615 134.419 217.168 133.796 217.066C133.407 217.001 132.997 217.058 132.596 217.06C132.864 215.986 133.776 216.672 134.329 216.411C134.605 216.28 134.998 215.746 134.957 215.692C134.26 214.802 134.318 213.43 133.149 212.853C132.715 213.575 132.299 214.31 131.838 215.014C131.415 215.66 130.566 216.077 130.775 217.047L130.179 217.668ZM116.171 178.218L115.716 178.439L115.952 178.66C116.02 178.507 116.086 178.354 116.153 178.202L116.763 177.595C116.975 177.868 117.335 178.124 117.368 178.421C117.455 179.204 117.331 180.01 117.434 180.789C117.483 181.165 117.788 181.728 118.091 181.808C119.011 182.055 119.326 181.502 119.207 180.642L119.664 180.431L119.428 180.194C119.355 180.344 119.28 180.493 119.207 180.643L118.2 181.095C118.13 180.717 117.94 180.309 118.025 179.968C118.11 179.627 118.411 179.163 118.718 179.063C120.175 178.591 120.135 177.085 120.867 176.12C121.253 175.609 120.906 175.205 120.255 175.194C119.653 175.182 119.039 175.128 118.45 175.215C117.79 175.313 117.152 175.551 116.504 175.727C116.386 174.968 116.267 174.209 116.149 173.45C116.15 173.353 116.138 173.256 116.116 173.161C116.064 173.075 116 172.998 115.926 172.931C115.808 173.033 115.584 173.136 115.584 173.24C115.584 174.803 115.082 176.512 116.78 177.615L116.171 178.218ZM126.52 218.263L126.284 217.823L126.071 218.04L126.518 218.27C126.558 218.469 126.558 218.675 126.518 218.874L126.061 219.098L126.283 219.313L126.519 218.872L126.964 218.666C126.815 218.533 126.667 218.399 126.52 218.263ZM102.147 172.131L102.756 171.525C102.946 171.517 103.158 171.56 103.319 171.49C103.481 171.421 103.612 171.233 103.755 171.097C103.584 171.048 103.35 170.904 103.256 170.967C103.055 171.101 102.929 171.343 102.772 171.54L102.164 172.148L101.698 172.36L101.924 172.602L102.147 172.131ZM99.7269 194.605L99.2724 194.824L99.5014 195.06L99.7139 194.588L100.323 193.98C100.585 194.325 100.801 194.722 101.119 195.005C101.462 195.311 101.9 195.51 102.299 195.755C102.453 195.341 102.716 194.929 102.738 194.512C102.8 193.331 102.763 192.136 102.764 190.947C104.276 191.163 105.462 190.841 105.809 189.125L106.418 188.518C107.448 188.458 107.972 188.965 108.337 189.917C108.501 190.345 109.477 190.926 109.571 190.844C110.309 190.209 109.26 190.116 109.108 189.707C108.877 189.089 108.542 188.511 108.25 187.916H110.085C110.085 188.299 110.059 188.684 110.091 189.064C110.105 189.234 110.233 189.394 110.308 189.558C110.426 189.372 110.691 189.141 110.647 189.007C110.522 188.626 110.275 188.285 110.076 187.927C109.423 187.09 108.939 187.089 108.254 187.927C107.634 188.095 106.75 187.477 106.432 188.538L105.823 189.146C104.394 189.065 103.806 190.381 102.776 190.966C101.656 191.732 100.438 192.42 100.343 194.002L99.7269 194.605ZM122.247 212.813C122.176 212.658 122.104 212.505 122.032 212.351L121.805 212.587L122.261 212.799C122.462 213.004 122.661 213.209 122.862 213.414L122.959 214.902C123.392 214.639 123.966 214.471 124.23 214.09C124.844 213.208 125.401 212.292 125.315 211.092C125.218 209.682 125.221 208.267 125.322 206.858C125.401 205.735 124.939 205.401 123.926 205.549C123.634 205.59 123.347 205.656 123.058 205.712C123.176 205.938 123.252 206.215 123.429 206.382C124.071 206.992 124.8 208.021 124.27 208.527C123.123 209.623 123.734 210.499 124.261 211.343C124.638 211.95 124.439 212.214 124.048 212.538C123.658 212.861 123.26 213.122 122.868 213.411L122.247 212.813ZM103.38 221.294L103.983 221.91C104.662 223.389 105.99 223.936 107.436 224.341C107.742 224.426 107.982 224.742 108.253 224.952C107.773 225.009 107.147 224.77 107.033 225.558H103.368L103.166 225.109L102.932 225.334L103.384 225.551C103.997 226.16 104.617 226.762 105.218 227.383C105.359 227.528 105.436 227.737 105.542 227.915C105.24 228.048 104.904 228.34 104.644 228.284C103.699 228.076 102.689 227.378 101.89 227.584C101.216 227.758 100.774 227.289 100.355 227.455C99.2771 227.886 100.945 228.451 100.363 229.003C100.115 229.239 99.93 229.54 99.7163 229.811C99.6431 229.659 99.5699 229.506 99.4979 229.352C99.4235 229.432 99.3492 229.513 99.2736 229.588L99.7293 229.795C99.4058 230.31 99.394 231.283 98.3126 230.608C97.9219 230.364 97.3045 230.481 96.9113 230.239C94.5668 228.791 92.2376 227.317 89.9462 225.788C89.0891 225.215 88.5035 224.42 88.7267 223.248C88.7963 222.893 88.6322 222.485 88.5744 222.101C88.1388 222.269 87.611 222.33 87.284 222.619C85.662 224.051 85.6549 225.061 87.2167 226.732C87.9062 227.472 88.539 228.378 89.3996 228.826C94.4062 231.432 99.4967 233.75 105.423 232.263C106.175 232.076 106.431 231.865 106.426 231.136C106.414 229.254 106.249 227.349 107.017 225.546C107.496 225.492 108.136 225.754 108.234 224.938L109.933 224.681C109.541 224.445 109.169 224.152 108.752 223.966C107.168 223.258 105.565 222.594 103.977 221.911L103.361 221.311L102.75 220.705L102.143 220.097L101.536 219.49L100.925 218.882C100.771 218.635 100.661 218.34 100.453 218.149C97.0577 215.001 96.4391 210.671 95.477 206.502C95.2798 205.648 95.3176 204.74 95.2468 203.858C94.0875 204.321 94.0273 205.496 93.5716 206.415C93.4831 206.594 93.2316 206.741 93.2328 206.902C93.2387 207.655 93.0085 208.706 93.4087 209.102C94.4452 210.131 94.2197 211.295 94.2504 212.464C94.2823 213.669 93.8573 215.15 94.4157 215.995C94.9115 216.745 96.51 216.723 97.5689 217.168C98.2855 217.469 98.8911 218.025 99.5841 218.399C99.9985 218.622 100.484 218.715 100.938 218.871L101.546 219.479L102.154 220.086L102.766 220.692L103.38 221.294ZM99.1107 213.41L98.6633 213.605C98.8144 213.739 98.9651 213.874 99.1154 214.01C98.9903 215.221 99.93 215.724 100.682 216.353C100.846 215.798 100.949 215.218 101.186 214.7C101.626 213.729 100.808 213.941 100.596 214.188C99.9347 214.972 99.5959 213.97 99.0977 214.026C99.0977 213.821 99.0977 213.617 99.0977 213.411L99.551 213.199L99.3149 212.963L99.1107 213.41ZM139.91 220.078C140.105 219.916 140.346 219.785 140.476 219.582C140.538 219.484 140.392 219.253 140.341 219.081C140.206 219.229 140.025 219.358 139.951 219.53C139.878 219.702 139.928 219.902 139.923 220.091L139.451 220.299L139.687 220.535L139.91 220.078ZM106.414 195.806L107.635 195.812C108.007 196.14 108.398 196.445 108.809 196.723C108.847 196.748 109.182 196.301 109.379 196.073C108.9 195.984 108.42 195.892 107.941 195.808C107.84 195.799 107.739 195.799 107.638 195.808C107.151 194.997 106.929 194.997 106.423 195.808L105.951 196.018L106.194 196.254C106.266 196.11 106.34 195.958 106.414 195.806ZM104.598 218.882L103.522 219.077C103.657 219.289 103.758 219.549 103.937 219.702C104.392 220.097 104.417 220.067 104.579 218.863L105.024 218.64L104.788 218.43C104.731 218.583 104.665 218.733 104.598 218.882ZM135.658 232.233C135.274 232.24 134.889 232.226 134.508 232.262C134.334 232.279 134.172 232.397 134.004 232.469C134.193 232.587 134.429 232.854 134.561 232.809C134.946 232.679 135.288 232.426 135.647 232.218C136.032 232.218 136.42 232.234 136.803 232.2C136.974 232.184 137.136 232.064 137.302 231.992C137.117 231.874 136.884 231.605 136.755 231.648C136.367 231.78 136.021 232.03 135.658 232.233ZM102.162 212.797C102.234 213.152 102.247 213.531 102.41 213.834C102.468 213.943 102.883 213.86 103.14 213.865C103.106 213.718 103.122 213.51 103.03 213.435C102.747 213.211 102.452 213.003 102.147 212.812C102.063 212.442 101.981 212.073 101.897 211.703C101.577 212.04 101.277 212.395 100.997 212.766C100.936 212.854 101.103 213.102 101.166 213.276L102.162 212.797ZM107.034 170.918C107.199 171.11 107.333 171.349 107.539 171.475C107.64 171.536 107.869 171.392 108.04 171.343C107.89 171.211 107.761 171.033 107.586 170.961C107.411 170.889 107.209 170.939 107.019 170.934C106.47 169.77 105.568 170.488 104.796 170.528C104.782 170.528 104.774 170.646 104.762 170.703C105.422 170.775 106.081 170.849 106.741 170.918C106.838 170.924 106.937 170.924 107.034 170.918ZM107.638 200.057C107.707 200.225 107.731 200.452 107.857 200.548C108.162 200.784 108.353 201.48 108.92 200.89C109.052 200.755 109.165 200.602 109.288 200.457C108.926 200.324 108.569 200.169 108.2 200.065C108.023 200.016 107.821 200.065 107.629 200.065C107.338 199.096 106.803 199.45 106.331 199.868C106.167 200.011 106.133 200.301 106.039 200.525C106.393 200.444 106.748 200.376 107.102 200.28C107.285 200.218 107.464 200.143 107.638 200.057ZM130.793 209.16C131.467 209.987 131.973 209.987 132.607 209.16C132.804 208.878 133.163 208.601 133.172 208.314C133.226 206.307 133.228 204.3 133.205 202.286C133.186 200.679 133.16 200.677 131.533 200.669C129.408 200.658 129.52 200.593 129.576 202.603C129.597 203.406 129.576 204.211 129.593 205.014C129.623 206.6 129.628 206.722 131.155 206.705C132.39 206.69 132.786 207.132 132.638 208.269C132.614 208.57 132.608 208.872 132.62 209.173H130.774C130.763 208.982 130.827 208.728 130.728 208.612C130.51 208.378 130.252 208.183 129.968 208.036C129.928 208.013 129.613 208.336 129.631 208.374C129.784 208.656 129.984 208.911 130.221 209.127C130.341 209.219 130.595 209.151 130.793 209.16ZM91.7937 231.628L91.5765 231.175L91.3404 231.398L91.8126 231.612C92.0215 232.05 92.2222 232.492 92.4465 232.923C92.5373 233.063 92.6425 233.192 92.7606 233.309C92.8444 233.135 92.9672 232.968 93.0026 232.785C93.1879 231.799 92.6449 231.549 91.7937 231.628ZM121.639 233.447C121.472 233.257 121.334 233.02 121.129 232.897C121.026 232.836 120.798 232.981 120.628 233.033C120.778 233.162 120.912 233.335 121.086 233.405C121.261 233.475 121.461 233.429 121.652 233.434C121.657 233.534 121.679 233.632 121.716 233.725C122.119 234.382 122.569 234.787 123.291 234.058C123.457 233.887 123.734 233.822 123.961 233.712C123.489 233.624 123.017 233.519 122.544 233.457C122.243 233.435 121.941 233.432 121.639 233.447ZM137.475 222.51C137.765 222.51 138.073 222.577 138.341 222.501C138.665 222.4 138.967 222.24 139.234 222.029C139.292 221.986 139.172 221.548 139.116 221.544C138.782 221.525 138.373 221.47 138.125 221.631C137.837 221.819 137.69 222.222 137.482 222.525L136.874 223.134C136.476 223.537 135.988 223.889 135.711 224.361C135.532 224.665 135.633 225.151 135.654 225.553C135.772 227.922 132.619 227.693 132.296 229.751C132.256 230.011 131.678 230.374 131.351 230.369C130.074 230.345 128.773 230.757 127.518 230.014C126.585 229.458 126.425 229.306 127.282 228.75C130.017 226.986 131.617 224.175 133.803 221.91L134.248 221.69L134.02 221.481C133.953 221.629 133.886 221.778 133.82 221.925C133.364 222.074 132.8 222.101 132.474 222.398C131.424 223.329 130.429 224.32 129.494 225.367C128.072 226.97 126.552 228.318 124.216 228.2C123.98 228.188 123.752 228.216 123.52 228.227C123.595 227.956 123.631 227.665 123.756 227.415C124.11 226.671 125.661 226.902 125.306 225.556L125.759 225.343L125.523 225.107C125.45 225.256 125.377 225.404 125.302 225.553H121.642C121.478 225.36 121.344 225.119 121.138 224.99C121.037 224.927 120.805 225.071 120.634 225.121C120.781 225.259 120.906 225.446 121.079 225.521C121.253 225.597 121.455 225.545 121.646 225.55C122.194 226.956 122.306 228.41 122.278 229.911C122.235 232.124 122.6 232.479 124.885 232.799C125.283 232.855 125.693 232.809 126.098 232.822C130.792 232.963 135.014 231.348 138.94 229.044C140.329 228.228 141.265 226.63 142.363 225.354C142.569 225.118 142.754 224.623 142.644 224.394C142.348 223.784 141.957 223.171 141.451 222.741C141.281 222.596 140.604 222.924 140.256 223.172C140.157 223.242 140.444 223.786 140.483 224.116C140.631 225.386 140.108 226.07 138.942 226.18C137.699 226.298 137.053 225.841 136.863 224.625C136.786 224.134 136.856 223.619 136.863 223.117L137.475 222.51ZM123.473 182.454C123.835 182.648 124.182 182.888 124.568 183.009C124.704 183.051 124.933 182.8 125.119 182.683C124.952 182.616 124.789 182.506 124.616 182.491C124.235 182.455 123.849 182.468 123.465 182.462C123.465 182.079 123.553 181.658 123.423 181.323C123.321 181.061 122.943 180.904 122.69 180.701C122.554 180.918 122.335 181.122 122.299 181.357C122.131 182.289 122.664 182.533 123.473 182.454ZM99.1024 196.426L98.8793 195.953C98.8038 196.036 98.7294 196.119 98.6538 196.2L99.1178 196.41C99.59 196.813 100.03 197.283 100.565 197.579C100.747 197.679 101.174 197.343 101.489 197.201C101.278 196.949 101.102 196.527 100.85 196.476C100.288 196.361 99.6868 196.43 99.1024 196.426ZM103.995 216.454C103.247 217.008 102.394 217.11 101.495 217.074C101.364 217.074 101.226 217.265 101.092 217.368C101.216 217.522 101.312 217.713 101.468 217.823C102.781 218.749 103.26 218.482 103.98 216.441C104.179 216.278 104.421 216.144 104.555 215.94C104.619 215.844 104.473 215.612 104.422 215.442C104.287 215.588 104.106 215.715 104.031 215.888C103.957 216.062 103.995 216.263 103.995 216.454ZM125.914 190.341L126.126 190.8L126.369 190.575L125.897 190.354C125.299 189.056 124.126 188.701 122.854 188.533C120.09 186.325 116.811 186.751 113.618 186.762C113.46 186.762 113.233 186.934 113.154 187.086C112.454 188.436 113.479 190.264 114.983 190.321C116.188 190.366 117.396 190.339 118.604 190.345L118.816 190.794L119.052 190.576L118.58 190.361C119.247 188.845 119.245 188.863 120.933 189.063C121.177 189.092 121.444 188.816 121.717 188.74C122.089 188.638 122.477 188.592 122.858 188.521C122.672 188.845 122.369 189.158 122.338 189.497C122.314 189.751 122.641 190.035 122.81 190.307C123.865 189.196 124.882 190.519 125.914 190.341ZM104.585 206.132L104.368 205.685L104.14 205.921L104.591 206.125C103.613 208.958 103.666 211.698 105.299 214.298C105.685 214.915 106.209 215.371 107.032 215.228C108.622 217.27 111.137 217.736 113.282 218.822C113.71 219.039 114.298 218.865 114.3 218.142C114.3 214.215 114.317 210.289 114.278 206.362C114.278 206.093 113.884 205.6 113.663 205.595C111.24 205.536 108.815 205.548 106.39 205.562C106.228 205.562 106.068 205.74 105.906 205.836C106.076 205.925 106.274 206.124 106.414 206.09C108.03 205.688 109.489 207.29 111.288 206.225C112.362 205.589 113.706 206.903 113.721 208.279C113.747 210.696 113.736 213.113 113.751 215.529C113.751 216.119 113.507 216.567 112.891 216.428C112.127 216.255 111.131 217.062 110.608 215.672C110.111 214.346 109.115 216.546 108.391 215.583C108.337 215.503 108.299 215.414 108.279 215.319C107.942 214.02 107.425 215.497 107.024 215.236C106.883 214.591 106.954 213.6 106.565 213.363C105.458 212.691 106.602 211.618 106.306 211.456C105.177 210.844 105.471 210.506 106.081 209.641C106.51 209.03 105.49 209.345 105.193 209.135C104.986 208.99 104.693 208.781 104.689 208.588C104.684 208.394 104.94 208.13 105.144 207.984C105.284 207.885 105.534 207.952 105.729 207.915C106.07 207.847 106.605 207.86 105.965 207.352C105.484 206.97 105.045 206.539 104.585 206.132ZM127.74 177C127.162 176.916 126.411 177.027 126.042 176.705C125.334 176.083 124.564 175.773 123.681 175.616C123.119 175.516 122.566 175.372 122.008 175.248C122.183 175.822 122.379 176.391 122.527 176.972C122.667 177.532 122.645 178.167 122.899 178.66C123.228 179.287 123.769 179.802 124.218 180.366C124.518 179.994 124.986 179.657 125.084 179.242C125.282 178.389 125.897 178.729 126.359 178.533C126.932 178.287 128.153 178.251 127.735 176.999L128.179 176.771L127.956 176.555C127.88 176.695 127.811 176.85 127.74 177ZM111.892 220.097C111.809 219.93 111.678 219.613 111.648 219.624C111.331 219.717 111.029 219.852 110.748 220.026C110.702 220.055 110.839 220.365 110.891 220.545C111.127 220.406 111.364 220.26 111.611 220.133C111.707 220.101 111.807 220.084 111.908 220.081C111.909 220.182 111.929 220.281 111.967 220.374C112.289 220.846 112.833 221.288 112.219 221.916C111.794 222.35 111.393 222.824 110.706 222.285C110.588 222.196 110.312 222.315 110.107 222.337C110.158 222.52 110.179 222.849 110.262 222.865C111.984 223.198 113.686 224.138 115.436 223.643C116.323 223.392 116.996 222.393 117.766 221.732C117.149 221.437 116.561 221.023 115.911 220.869C114.589 220.539 113.235 220.346 111.892 220.097ZM97.8983 211.584C98.0683 211.907 97.5831 212.734 98.3528 212.521C99.0422 212.332 99.6101 211.705 100.232 211.272C99.3893 210.416 98.9336 211.932 98.1781 211.612C98.0816 211.591 97.9822 211.586 97.8841 211.598C97.9101 211.126 97.7436 210.604 98.4319 210.38C99.2346 210.119 100.423 209.956 100.682 209.399C100.983 208.751 100.478 207.716 100.276 206.86C100.217 206.605 100.04 206.218 99.8544 206.178C98.9857 206.001 98.1075 205.875 97.2242 205.799C97.0495 205.781 96.6929 205.973 96.6918 206.072C96.6658 207.999 96.4757 209.971 97.8983 211.584ZM146.494 202.934L146.13 203.036C146.256 203.524 146.297 204.056 146.519 204.496C147.358 206.16 148.245 207.801 149.136 209.439C149.573 210.242 150.289 210.4 151.181 210.41C152.252 210.425 152.146 209.482 152.449 208.977C152.685 208.582 152.575 207.814 152.348 207.341C151.714 206.018 151.05 204.68 150.201 203.491C147.453 199.654 146.703 195.442 147.542 190.875C147.568 190.732 147.559 190.46 147.51 190.446C147.332 190.397 146.989 190.371 146.959 190.446C146.577 191.341 146.263 191.647 145.403 190.746C144.71 190.021 144.304 190.29 144.201 191.384C144.154 191.885 144.343 192.483 144.132 192.883C143.002 195.024 143.869 196.796 144.888 198.675C145.604 199.993 145.969 201.506 146.494 202.934ZM127.512 187.214C127.546 188.693 127.538 188.707 128.132 189.08C128.377 189.235 128.677 189.299 128.935 189.435C129.438 189.707 129.929 190.004 130.425 190.289C130.74 189.69 131.182 189.122 131.342 188.483C131.609 187.421 131.024 186.658 130.286 185.878C129.046 184.562 129.116 182.642 130.626 181.801C131.946 181.067 132.596 179.921 133.431 178.86C133.63 178.609 133.601 178.18 133.677 177.833C133.34 177.96 132.944 178.262 132.682 178.172C132.209 178.014 131.845 179.376 131.344 178.172C131.094 177.569 130.473 177.119 130.018 176.598C129.707 177.206 129.375 177.804 129.088 178.424C128.801 179.043 128.577 179.688 128.295 180.312C126.909 183.359 126.907 183.357 127.625 186.972C127.638 187.043 127.552 187.132 127.512 187.214ZM94.5396 217.053C94.3153 217.1 94.0828 217.084 93.9494 217.19C93.3815 217.631 93.5244 219.768 94.2055 220.051C96.5418 221.023 98.5629 222.328 99.7635 224.655C99.8946 224.91 100.164 225.102 100.39 225.3C100.902 225.746 101.425 226.175 101.943 226.611C102.533 225.548 101.286 225.339 101.037 224.664C100.903 224.298 100.697 223.956 100.571 223.589C100.532 223.471 100.628 223.292 100.707 223.171C100.74 223.122 100.912 223.119 100.991 223.155C101.345 223.323 101.667 223.567 102.031 223.682C102.757 223.909 103.503 224.069 104.241 224.256C104.211 223.363 103.252 223.442 102.818 222.923C101.855 221.771 100.735 220.746 99.636 219.715C98.1816 218.352 96.4391 217.503 94.5396 217.053ZM144.204 224.124C144.204 225.031 144.177 225.942 144.218 226.848C144.233 227.186 144.409 227.516 144.512 227.849C144.792 227.564 145.205 227.324 145.325 226.983C145.679 225.975 145.848 224.899 146.22 223.898C147.178 221.329 146.692 219.207 144.391 217.616C144.056 217.38 143.565 217.38 143.142 217.274C143.142 217.746 142.938 218.372 143.167 218.659C144.493 220.322 144.168 222.248 144.204 224.124ZM116.139 231.089C116.139 230.485 116.129 229.882 116.139 229.28C116.153 228.535 116.146 227.895 115.068 227.932C114.631 227.946 114.197 227.484 113.734 227.411C113.151 227.319 112.494 227.302 112.506 228.231C112.525 229.738 112.448 231.249 112.53 232.752C112.587 233.824 113.097 233.125 113.394 232.861C113.754 232.541 114.006 232.051 114.537 232.694C114.917 233.155 115.408 233.521 115.85 233.935C115.945 233.288 116.054 232.636 116.129 231.993C116.15 231.69 116.154 231.387 116.139 231.084V231.089ZM96.3293 225.54C97.334 225.54 97.6386 225.551 97.9408 225.54C99.1142 225.493 99.0304 225.528 98.531 224.459C97.5559 222.37 95.5325 221.707 93.7015 220.778C93.5905 220.722 93.1348 221.014 93.0852 221.213C92.6354 222.97 93.3473 224.577 94.9741 225.3C95.4057 225.468 95.8665 225.547 96.3293 225.534V225.54ZM84.2323 228.912C84.1001 226.54 83.9962 224.598 83.8782 222.655C83.8723 222.556 83.9006 222.377 83.8723 222.368C83.6704 222.307 83.3753 222.17 83.2608 222.256C80.7675 224.122 80.5148 225.857 81.9988 228.507C82.589 229.559 83.3387 229.042 84.0328 229.13C84.1745 229.149 84.3657 228.742 84.2323 228.912ZM82.5088 177.066C82.4049 176.379 82.3683 176.138 82.3317 175.897C82.6858 175.983 83.0825 175.991 83.3788 176.169C84.5346 176.863 84.4413 175.704 84.7046 175.246C84.9914 174.74 84.3421 173.339 83.949 173.446C82.5666 173.828 81.1334 174.168 79.8868 174.834C79.28 175.157 79.6058 176.048 80.1489 176.632C81.0484 177.597 81.8795 177.93 82.4249 177.399C82.5831 177.244 82.543 176.887 82.5088 177.066ZM105.671 172.011C103.428 171.959 102.632 172.483 102.774 174.42C102.821 175.079 103.188 175.348 103.741 175.033C105.728 173.901 107.887 173.871 110.072 173.942C110.272 173.964 110.474 173.96 110.673 173.929C110.854 173.865 111.027 173.78 111.189 173.675C111.034 173.58 110.867 173.387 110.725 173.404C109.562 173.54 108.648 172.925 107.655 172.496C107.039 172.231 106.336 172.166 105.671 172.011ZM124.214 172.153C123.797 172.153 123.468 172.072 123.2 172.166C121.923 172.609 120.664 173.099 119.398 173.574C120.406 174.354 121.6 173.683 122.652 173.981C123.765 174.298 124.823 174.808 125.934 175.129C126.237 175.217 126.792 175.074 126.961 174.842C127.151 174.581 127.197 174.002 127.025 173.729C126.374 172.667 125.51 171.866 124.214 172.153ZM89.5412 171.045C87.4871 170.666 87.0715 172.922 85.4613 172.807C85.3869 172.807 85.2252 172.955 85.2382 172.984C85.3078 173.163 85.4613 173.318 85.5014 173.498C85.6691 174.256 86.2641 174.536 86.8768 174.854C87.4493 175.152 87.4245 174.841 87.565 174.425C87.9522 173.274 87.9723 173.306 88.7975 174.038C89.0336 174.252 89.5153 174.523 89.6971 174.425C90.3499 174.071 90.8162 173.443 90.5234 172.681C90.2708 172.012 89.7821 171.431 89.5412 171.045ZM115.541 217.204C115.501 218.857 115.505 218.874 117.321 218.274C118.155 217.998 119 217.724 119.79 217.342C120.399 217.049 120.928 216.588 121.493 216.202C120.873 216.084 120.252 215.986 119.634 215.866C119.058 215.748 118.493 215.579 117.913 215.511C116.727 215.36 115.564 216.215 115.541 217.198V217.204ZM116.162 200.677C116.162 201.076 116.101 201.487 116.177 201.87C116.295 202.475 115.696 203.483 116.71 203.571C117.21 203.615 117.836 202.901 118.29 202.422C118.472 202.229 118.498 201.613 118.33 201.416C117.65 200.622 118.176 200.15 118.684 199.662C119.173 199.189 119.202 199.009 118.448 198.794C117.724 198.588 117.079 198.107 116.399 197.748C116.321 198.525 116.238 199.301 116.162 200.079C116.147 200.274 116.162 200.475 116.162 200.674V200.677ZM108.126 233.175C108.003 233.125 107.543 232.813 107.425 232.911C106.554 233.636 105.536 233.384 104.561 233.472C104.186 233.506 103.82 233.648 103.449 233.741C103.816 233.842 104.198 233.907 104.545 234.055C104.723 234.132 104.979 234.38 104.958 234.509C104.85 235.07 104.702 235.622 104.513 236.161C104.43 236.414 104.263 236.634 104.133 236.87C104.409 236.893 104.697 236.978 104.959 236.928C105.622 236.798 106.277 236.631 106.921 236.429C107.17 236.352 107.524 236.177 107.576 235.98C107.792 235.159 107.915 234.306 108.126 233.175ZM90.599 231.64C90.573 231.189 90.6427 230.893 90.5376 230.805C89.7112 230.116 88.8577 229.448 87.9735 228.829C87.8708 228.757 87.4351 228.963 87.3124 229.144C86.486 230.378 87.5485 233.008 88.9722 233.283C89.1115 233.31 89.3335 233.185 89.4444 233.064C89.88 232.555 90.2932 232.02 90.5978 231.641L90.599 231.64ZM114.309 196.909H114.291C114.291 195.308 114.309 193.707 114.264 192.108C114.264 191.941 113.878 191.653 113.674 191.655C113.422 191.655 113.121 191.862 112.944 192.067C112.826 192.204 112.81 192.666 112.87 192.69C114.549 193.39 113.768 194.697 113.439 195.66C113.215 196.311 113.362 196.651 113.491 197.224C113.693 198.117 113.461 199.113 113.405 200.057C113.385 200.411 113.245 200.782 113.334 201.097C113.403 201.343 113.741 201.514 113.961 201.719C114.079 201.515 114.287 201.313 114.291 201.108C114.323 199.716 114.309 198.309 114.309 196.909ZM107.072 221.32C107.28 221.187 107.565 221.078 107.746 220.876C108.359 220.192 108.699 218.436 108.327 218.064C107.619 217.355 106.831 217.719 105.86 219.289C105.632 219.659 105.326 220.374 105.46 220.498C105.866 220.87 106.474 221.033 107.072 221.32ZM130.093 193.995C129.515 193.492 128.912 192.975 128.322 192.445C127.661 191.855 127.091 192.297 126.889 192.799C126.653 193.389 126.627 194.145 126.738 194.789C126.892 195.681 127.682 195.159 128.137 195.144C128.684 195.119 129.224 194.789 129.753 194.563C129.859 194.506 129.905 194.308 130.092 193.991L130.093 193.995ZM99.0753 237.058C99.8556 237.133 100.435 237.01 100.354 235.978C100.309 235.402 100.265 234.706 100.538 234.254C101.01 233.472 100.601 233.495 100.055 233.466C99.1107 233.417 99.0281 233.49 98.6597 234.883C98.5594 235.257 98.668 235.754 98.459 236.021C97.7177 236.962 98.1415 237.126 99.0753 237.058ZM130.793 235.633C130.641 234.924 130.37 234.43 130.5 234.091C130.736 233.473 130.429 233.429 130.028 233.48C129.674 233.528 129.111 233.633 129.028 233.856C128.865 234.291 128.944 234.829 128.978 235.32C129.039 236.159 128.905 236.656 127.963 236.017C127.923 236.278 127.884 236.54 127.845 236.801C128.59 236.818 129.389 237.001 130.06 236.786C130.447 236.667 130.632 235.898 130.793 235.633ZM108.245 210.007C108.236 212.217 108.909 213.366 110.466 213.952C110.624 214.012 110.858 213.94 111.026 213.862C111.071 213.841 111.045 213.544 110.972 213.42C110.319 212.318 109.656 211.225 108.981 210.141C108.818 209.877 108.619 209.635 108.436 209.382L108.245 210.007ZM141.72 216.106C141.859 214.865 141.236 214.082 140.264 214.018C139.681 213.979 139.377 214.254 139.32 214.873C139.222 215.896 139.606 216.635 140.618 216.753C140.983 216.798 141.433 216.279 141.709 216.106H141.72ZM124.666 195.507C124.666 195.011 124.681 194.514 124.666 194.02C124.625 192.884 123.891 192.427 122.686 192.806C122.539 192.853 122.332 193.094 122.353 193.216C122.392 193.471 122.589 193.924 122.673 193.918C124.267 193.74 124.162 194.76 124.077 195.807C124.028 196.397 122.861 197.238 123.871 197.48C125.195 197.796 124.451 196.417 124.663 195.806C124.68 195.707 124.681 195.606 124.666 195.507ZM120.347 203.671C120.837 203.671 121.366 203.831 121.6 203.638C122.08 203.24 122.402 202.653 122.789 202.144C121.984 201.866 121.186 201.385 120.373 201.358C119.363 201.326 120.692 202.164 120.078 202.58C119.329 203.086 118.819 203.808 120.347 203.671ZM106.938 191.585C106.539 191.585 106.138 191.585 105.739 191.585C103.949 191.615 103.949 191.616 103.998 193.385C104.004 193.584 103.946 193.815 104.029 193.975C104.147 194.194 104.349 194.5 104.544 194.521C105.227 194.597 104.95 194.277 104.839 193.858C104.412 192.26 104.52 192.123 106.075 192.173C106.637 192.192 107.197 192.528 107.746 192.504C108.261 192.478 108.76 192.158 109.267 191.968C108.889 191.84 108.521 191.663 108.134 191.6C107.746 191.536 107.337 191.585 106.938 191.585ZM123.901 219.148C124.633 218.928 125.156 219.894 125.283 218.865C125.326 218.511 125.231 218.026 125.002 217.793C124.682 217.469 124.146 217.105 123.757 217.158C123.249 217.228 122.62 217.582 122.363 218.007C122.032 218.554 122.529 218.833 123.103 218.918C123.376 218.967 123.644 219.043 123.901 219.148ZM102.741 209.693C102.741 208.467 102.923 207.777 102.687 207.288C102.473 206.847 101.752 206.319 101.338 206.381C100.562 206.499 101.152 207.04 101.289 207.427C101.482 207.975 101.6 208.55 101.802 209.095C102.017 209.675 102.291 210.233 102.539 210.801C102.643 210.23 102.747 209.657 102.741 209.693ZM114.511 170.331C114.275 170.331 114.061 170.289 113.872 170.34C113.481 170.447 113.105 170.603 112.722 170.738C113.123 171.003 113.519 171.273 113.928 171.523C114.023 171.561 114.129 171.566 114.228 171.539C115.054 171.383 116.524 171.977 116.589 171.028C116.678 169.591 115.173 170.709 114.511 170.331ZM116.164 194.708H116.172C116.172 195.005 116.172 195.304 116.172 195.602C116.172 195.701 116.142 195.845 116.194 195.892C116.383 196.062 116.611 196.325 116.807 196.312C117.003 196.299 117.296 195.99 117.304 195.802C117.313 195.549 117.053 195.297 116.971 195.026C116.584 193.727 116.681 193.581 118.034 193.383C118.228 193.355 118.441 193.416 118.624 193.368C118.807 193.32 118.956 193.185 119.12 193.087C118.967 192.982 118.822 192.799 118.663 192.785C118.167 192.744 117.664 192.793 117.168 192.757C116.377 192.699 116.106 193.081 116.153 193.813C116.18 194.109 116.162 194.409 116.162 194.708H116.164ZM120.331 209.54C120.18 209.41 120.051 209.209 119.934 209.216C119.038 209.266 118.193 208.462 117.231 209.147C116.833 209.431 116.217 209.409 115.696 209.526C116.168 209.608 116.646 209.671 117.113 209.776C117.672 209.903 118.232 210.205 118.774 210.17C119.297 210.136 119.796 209.772 120.33 209.54H120.331ZM134.441 205.181C134.424 205.377 134.424 205.574 134.441 205.771C134.491 206.047 134.587 206.316 134.664 206.589C135.096 206.398 135.565 206.258 135.944 205.992C136.114 205.874 136.246 205.393 136.147 205.255C135.784 204.787 135.375 204.357 134.925 203.973C134.89 203.941 134.506 204.149 134.464 204.296C134.385 204.571 134.441 204.884 134.441 205.181ZM117.388 227.266C117.388 227.967 117.361 228.262 117.397 228.549C117.421 228.726 117.542 228.891 117.619 229.059C117.84 228.888 118.2 228.754 118.257 228.54C118.419 227.904 118.51 227.252 118.528 226.596C118.528 226.478 118.117 226.285 117.872 226.23C117.754 226.202 117.476 226.39 117.45 226.518C117.403 226.764 117.382 227.015 117.388 227.266ZM117.45 205.544L115.748 205.754C116.419 206.559 117.33 205.902 118.09 206.142C118.272 206.198 118.459 206.445 118.592 206.411C119.182 206.258 119.762 206.035 120.344 205.838C119.885 205.74 119.43 205.62 118.967 205.552C118.673 205.51 118.369 205.545 117.453 205.545L117.45 205.544ZM124.654 200.424H124.63C124.63 200.024 124.737 199.582 124.6 199.235C124.463 198.888 124.085 198.645 123.812 198.352C123.705 198.492 123.548 198.614 123.498 198.77C123.371 199.166 123.292 199.577 123.194 199.981C124.013 200.035 124.094 200.601 124.112 201.246C124.118 201.422 124.272 201.594 124.357 201.768C124.456 201.621 124.616 201.485 124.641 201.328C124.668 201.028 124.673 200.725 124.654 200.424ZM124.642 186.86C124.642 186.749 124.685 186.615 124.635 186.552C124.109 185.854 122.104 185.233 121.408 185.545C121.32 185.598 121.241 185.664 121.171 185.739C121.289 185.857 121.382 186.026 121.526 186.082C122.438 186.436 123.357 186.781 124.283 187.097C124.371 187.125 124.536 186.938 124.642 186.86ZM104.678 196.646C104.804 196.493 104.935 196.39 104.914 196.345C104.796 196.056 104.657 195.778 104.522 195.497C104.346 195.676 104.031 195.845 104.017 196.036C103.971 196.818 103.969 197.603 104.01 198.385C104.01 198.485 104.271 198.677 104.35 198.651C104.523 198.592 104.784 198.421 104.786 198.297C104.794 197.724 104.718 197.152 104.678 196.646ZM111.283 227.677H111.295C111.312 227.374 111.308 227.071 111.283 226.769C111.258 226.585 111.126 226.415 111.041 226.24C110.867 226.34 110.703 226.456 110.551 226.587C109.884 227.28 109.857 227.992 110.538 228.695C110.687 228.83 110.845 228.956 111.011 229.07C111.1 228.908 111.247 228.755 111.27 228.584C111.296 228.283 111.3 227.981 111.283 227.68V227.677ZM105.692 181.944L106.125 182.926C106.411 182.645 106.875 182.398 106.936 182.076C107.017 181.651 106.79 181.165 106.654 180.716C106.646 180.686 106.182 180.695 106.121 180.794C105.937 181.127 105.844 181.51 105.692 181.944ZM138.473 225.672C138.802 225.063 139.064 224.662 139.203 224.221C139.223 224.155 138.613 223.756 138.321 223.779C138.045 223.799 137.541 224.276 137.582 224.38C137.742 224.789 138.077 225.133 138.473 225.672ZM106.227 186.814C106.724 186.63 107.274 186.451 107.798 186.216C107.96 186.143 108.051 185.913 108.174 185.755C107.999 185.671 107.798 185.484 107.654 185.519C107.093 185.671 106.541 185.856 106.001 186.071C105.766 186.179 105.538 186.305 105.322 186.447L106.227 186.814ZM111.303 186.43C111.147 186.85 110.949 187.103 111.007 187.282C111.179 187.858 111.445 188.406 111.674 188.965C111.894 188.343 112.153 187.73 112.295 187.09C112.32 186.985 111.823 186.766 111.306 186.43H111.303ZM118.525 185.461L119.605 185.277C119.033 185.147 118.467 184.984 117.888 184.897C117.497 184.845 117.1 184.845 116.708 184.897C116.543 184.914 116.394 185.083 116.236 185.183C116.401 185.274 116.56 185.427 116.734 185.444C117.132 185.488 117.527 185.461 118.527 185.461H118.525ZM112.098 184.88V184.901C111.606 184.901 111.112 184.878 110.623 184.915C110.459 184.928 110.308 185.1 110.151 185.199C110.312 185.294 110.471 185.471 110.634 185.475C111.519 185.49 112.405 185.467 113.29 185.441C113.366 185.441 113.512 185.297 113.5 185.262C113.453 185.126 113.367 184.908 113.277 184.898C112.885 184.872 112.493 184.866 112.1 184.88H112.098ZM102.578 236.163C102.983 236.379 101.571 236.871 102.729 236.996C102.91 237.016 103.215 236.571 103.332 236.288C103.435 236.04 103.4 235.706 103.341 235.428C103.293 235.209 103.117 235.018 102.998 234.814C102.786 235.008 102.485 235.169 102.387 235.405C102.312 235.589 102.496 235.877 102.578 236.163ZM113.548 169.309C113.836 168.825 114.112 168.44 114.284 168.01C114.329 167.9 114.048 167.656 113.912 167.479L112.666 168.744L113.548 169.309ZM102.853 199.649L102.499 198.947L101.649 200.974C101.8 200.974 102.044 201.044 102.086 200.974C102.387 200.51 102.643 200.02 102.853 199.643V199.649ZM88.7243 219.813C88.7243 219.246 88.7621 219.038 88.7137 218.851C88.6653 218.665 88.5307 218.54 88.4327 218.379C88.3678 218.455 88.2686 218.519 88.2426 218.606C88.0561 219.234 87.8822 219.864 87.7208 220.493C87.7126 220.529 87.8696 220.655 87.9475 220.653C88.134 220.647 88.4362 220.646 88.4858 220.544C88.593 220.31 88.673 220.065 88.7243 219.813ZM129.689 199.567L130.693 198.505C130.338 198.422 129.958 198.221 129.644 198.297C129.389 198.357 129.216 198.751 129.006 198.998L129.689 199.567ZM111.761 204.308L112.33 203.922C112.273 203.841 112.232 203.711 112.156 203.686C111.861 203.587 111.552 203.45 111.254 203.463C110.98 203.473 110.709 203.649 110.445 203.767C110.358 203.82 110.279 203.884 110.209 203.958C110.327 204.076 110.424 204.27 110.555 204.293C110.85 204.344 111.157 204.308 111.761 204.308ZM151.293 199.088C151.61 198.276 151.804 197.795 151.966 197.305C151.966 197.286 151.547 197.079 151.527 197.107C151.271 197.424 151.059 197.774 150.897 198.147C150.843 198.299 151.051 198.535 151.293 199.088ZM140.066 232.131L139.411 231.275C139.205 231.483 138.789 231.775 138.832 231.884C139.032 232.387 139.36 232.839 139.642 233.31L140.066 232.131ZM141.837 231.147L141.298 230.438L140.59 231.028C140.765 231.198 140.923 231.475 141.121 231.509C141.32 231.543 141.536 231.315 141.838 231.147H141.837ZM119.778 213.11C119.47 212.984 119.244 212.874 119.009 212.8C118.696 212.696 118.376 212.616 118.064 212.525C118.051 212.619 118.001 212.777 118.032 212.796C118.389 213.026 118.765 213.224 119.156 213.386C119.279 213.428 119.493 213.241 119.778 213.11ZM133.827 235.529C133.723 235.175 133.667 234.996 133.612 234.813C133.279 235.118 132.963 235.442 132.668 235.784C132.601 235.868 132.756 236.126 132.809 236.303L133.827 235.529ZM106.581 204.32C106.967 204.32 107.171 204.355 107.357 204.312C107.621 204.234 107.88 204.139 108.132 204.028C107.905 203.903 107.668 203.796 107.424 203.71C107.233 203.658 107.032 203.66 106.842 203.716C106.547 203.823 106.258 203.947 105.977 204.089L106.581 204.32ZM122.417 197.976L121.897 197.176C121.672 197.6 121.432 198.018 121.24 198.456C121.212 198.52 121.412 198.682 121.508 198.799L122.417 197.976ZM104.623 201.092C104.741 200.752 104.965 200.418 104.912 200.137C104.868 199.907 104.49 199.741 104.26 199.547C104.196 200.01 104.126 200.47 104.088 200.934C104.085 200.96 104.349 201.014 104.623 201.091V201.092ZM112.524 171.961C112.163 171.573 111.94 171.159 111.755 171.175C111.453 171.203 111.176 171.509 110.888 171.698C111.045 171.849 111.194 172.112 111.36 172.125C111.694 172.151 112.039 172.038 112.524 171.96V171.961ZM97.877 234.57H97.8841C97.8983 234.475 97.8983 234.378 97.8841 234.283C97.8015 234.027 97.6988 233.777 97.6043 233.524C97.5052 233.774 97.3682 234.016 97.3186 234.276C97.2625 234.56 97.2625 234.852 97.3186 235.136C97.3623 235.327 97.5547 235.483 97.6811 235.655C97.7595 235.492 97.8224 235.321 97.8688 235.146C97.8881 234.955 97.8908 234.762 97.877 234.57ZM129.515 211.807C129.8 211.94 130.091 212.059 130.388 212.161C130.42 212.172 130.624 211.838 130.597 211.807C130.345 211.551 130.062 211.328 129.788 211.099C129.73 211.267 129.662 211.435 129.518 211.807H129.515ZM132.08 233.236L132.946 233.968C133.019 233.805 133.199 233.557 133.148 233.496C132.942 233.265 132.704 233.066 132.44 232.906C132.418 232.889 132.244 233.086 132.082 233.236H132.08ZM119.814 183.213C120.094 183.435 120.22 183.622 120.345 183.62C120.705 183.599 121.062 183.554 121.416 183.486C121.28 183.352 121.151 183.116 121.006 183.106C120.658 183.08 120.303 183.16 119.814 183.213ZM100.03 200.477C99.381 200.234 99.1485 200.087 98.9112 200.075C98.655 200.063 98.3917 200.18 98.132 200.241C98.2737 200.377 98.4071 200.619 98.557 200.63C98.9029 200.66 99.2559 200.568 100.03 200.477ZM116.539 213.463L117.309 213.121C116.955 213.025 116.612 212.885 116.258 212.859C116.093 212.848 115.913 213.078 115.741 213.2L116.539 213.463ZM109.497 183.5C109.215 183.289 109.08 183.102 108.949 183.106C108.589 183.134 108.231 183.186 107.877 183.261C108.02 183.393 108.157 183.627 108.307 183.636C108.657 183.653 109.012 183.564 109.497 183.5ZM115.377 183.07C115.314 182.825 115.279 182.694 115.245 182.564C114.951 182.668 114.665 182.795 114.39 182.945C114.341 182.976 114.454 183.267 114.492 183.437L115.377 183.07ZM130.859 213.829C130.58 213.692 130.292 213.574 129.997 213.475C129.937 213.458 129.722 213.754 129.732 213.764C129.979 214.029 130.249 214.274 130.513 214.525L130.859 213.829ZM111.937 199.737C111.819 199.363 111.764 199.195 111.711 199.029C111.433 199.218 111.165 199.421 110.908 199.638C110.871 199.671 111.026 199.992 111.044 199.992C111.345 199.927 111.639 199.834 111.937 199.737ZM92.5103 234.126C91.8232 234.126 91.3829 234.117 90.9449 234.142C90.9012 234.142 90.8705 234.365 90.8327 234.484C91.1931 234.559 91.5578 234.611 91.9247 234.64C92.0416 234.642 92.1644 234.44 92.5103 234.126ZM114.337 203.991C114.233 203.608 114.187 203.435 114.14 203.262C113.866 203.452 113.602 203.657 113.352 203.877C113.307 203.92 113.426 204.135 113.47 204.269L114.337 203.991ZM95.8158 235.796L95.0378 236.102C95.3141 236.22 95.5844 236.413 95.8642 236.434C96.0838 236.45 96.3199 236.251 96.5477 236.147L95.8158 235.796ZM111.879 195.303C111.825 195.14 111.77 194.977 111.714 194.814C111.581 194.969 111.384 195.106 111.338 195.286C111.307 195.405 111.497 195.575 111.588 195.722C111.685 195.584 111.786 195.445 111.879 195.305V195.303ZM127.077 180.133C127.014 179.955 126.951 179.777 126.888 179.597C126.778 179.7 126.584 179.797 126.576 179.906C126.564 180.083 126.674 180.27 126.732 180.452C126.846 180.355 126.962 180.243 127.077 180.135V180.133ZM119.123 194.697C118.79 194.697 118.548 194.69 118.309 194.714C118.293 194.714 118.257 195.041 118.309 195.068C118.464 195.151 118.642 195.183 118.816 195.158C118.913 195.131 118.971 194.933 119.123 194.697ZM101.262 174.661C101.17 174.805 101.02 174.943 101.001 175.097C100.982 175.25 101.1 175.414 101.158 175.569C101.276 175.409 101.448 175.26 101.485 175.083C101.515 174.966 101.343 174.806 101.262 174.661ZM94.9646 234.937C95.1063 235.035 95.2385 235.192 95.3896 235.214C95.5407 235.235 95.7072 235.114 95.8618 235.056C95.7107 234.938 95.5726 234.751 95.4038 234.715C95.2822 234.688 95.1146 234.856 94.9646 234.937ZM94.1961 234.144L94.0438 233.648C93.9151 233.805 93.7215 233.947 93.6814 234.12C93.6531 234.245 93.8337 234.418 93.9175 234.569L94.1961 234.144ZM124.563 203.593C124.563 203.255 124.577 203.012 124.555 202.772C124.548 202.697 124.443 202.629 124.381 202.559C124.276 202.794 124.189 203.036 124.12 203.285C124.11 203.335 124.332 203.436 124.563 203.593ZM93.7298 232.516C93.875 232.613 94.0131 232.769 94.1689 232.789C94.3248 232.809 94.4901 232.688 94.653 232.63C94.4901 232.512 94.3413 232.332 94.1619 232.292C94.0403 232.266 93.875 232.435 93.7298 232.517V232.516ZM141.647 229.297C141.308 229.297 141.056 229.281 140.813 229.305C140.738 229.312 140.67 229.423 140.6 229.486C140.838 229.598 141.084 229.691 141.337 229.764C141.386 229.776 141.492 229.537 141.647 229.298V229.297ZM109.525 172.11L109.989 171.849C109.838 171.755 109.672 171.569 109.54 171.589C109.357 171.618 109.198 171.803 109.03 171.921L109.525 172.11ZM121.748 208.632C121.748 208.987 121.733 209.229 121.756 209.468C121.764 209.541 121.874 209.605 121.938 209.674C122.047 209.446 122.137 209.209 122.206 208.965C122.217 208.909 121.992 208.806 121.748 208.632ZM131.697 211.702C131.6 211.842 131.441 211.977 131.423 212.127C131.406 212.277 131.531 212.444 131.593 212.599C131.711 212.437 131.89 212.289 131.932 212.109C131.959 212.001 131.783 211.84 131.697 211.702ZM128.411 212.775L128.883 212.512C128.73 212.42 128.563 212.234 128.428 212.256C128.246 212.285 128.091 212.473 127.924 212.592L128.411 212.775ZM117.099 219.96L117.293 219.797L117.115 219.615L116.92 219.87L117.099 219.96ZM133.744 186.401L133.532 186.207C133.532 186.338 133.519 186.47 133.512 186.601L133.744 186.401ZM119.094 221.581C119.036 221.519 118.976 221.414 118.919 221.411C118.862 221.407 118.79 221.506 118.727 221.561L119.002 221.74L119.094 221.581ZM115.994 214.236C115.932 214.206 115.858 214.136 115.814 214.153C115.738 214.196 115.67 214.252 115.613 214.319L115.983 214.429L115.994 214.236ZM120.299 211.875C120.244 211.815 120.19 211.71 120.13 211.707C120.07 211.703 120.012 211.801 119.944 211.854L120.207 212.034L120.299 211.875ZM126.853 211.485L127.049 211.308C126.988 211.244 126.931 211.18 126.866 211.117L126.675 211.396L126.853 211.485ZM116.029 211.27L115.861 211.079L115.672 211.249C115.757 211.315 115.844 211.38 115.93 211.444L116.029 211.27ZM132.348 210.886C132.402 210.825 132.505 210.76 132.505 210.694C132.505 210.628 132.404 210.561 132.349 210.495L132.16 210.775L132.348 210.886ZM123.087 223.294C123.057 223.349 122.989 223.419 123.004 223.456C123.045 223.527 123.098 223.591 123.161 223.644L123.273 223.308L123.087 223.294ZM140.392 217.941L140.237 217.749L140.059 217.924L140.309 218.118L140.392 217.941ZM120.105 208.452L120.342 208.264C120.27 208.194 120.201 208.074 120.123 208.068C120.045 208.062 119.973 208.186 119.896 208.245C119.967 208.313 120.037 208.381 120.105 208.452ZM115.753 207.517C115.726 207.574 115.664 207.644 115.68 207.683C115.723 207.756 115.777 207.821 115.841 207.876L115.94 207.522L115.753 207.517ZM111.523 189.889C111.491 189.95 111.421 190.022 111.436 190.068C111.459 190.144 111.537 190.203 111.593 190.269C111.629 190.151 111.667 190.026 111.704 189.904L111.523 189.889ZM108.69 228.82C108.634 228.788 108.572 228.717 108.527 228.731C108.455 228.771 108.392 228.824 108.339 228.887L108.671 229.005L108.69 228.82ZM108.572 230.286C108.633 230.228 108.738 230.168 108.742 230.112C108.745 230.057 108.646 229.984 108.593 229.92L108.412 230.191L108.572 230.286ZM120.282 230.069L120.128 229.874L119.957 230.056L120.193 230.252L120.282 230.069ZM138.57 230.693L138.405 230.504L138.22 230.673L138.478 230.862L138.57 230.693ZM121.988 205.999L122.19 205.836L122 205.661L121.801 205.915L121.988 205.999ZM85.3173 231.189C85.2936 231.239 85.2323 231.307 85.2464 231.35C85.2844 231.421 85.3343 231.485 85.394 231.54C85.427 231.422 85.4601 231.304 85.4943 231.185L85.3173 231.189ZM102.488 215.724L102.684 215.547C102.624 215.483 102.566 215.419 102.502 215.354L102.31 215.633L102.488 215.724ZM91.4006 232.994C91.3746 233.046 91.312 233.112 91.3262 233.152C91.3657 233.224 91.4172 233.287 91.4785 233.341C91.5116 233.223 91.5446 233.105 91.5788 232.994H91.4006ZM96.2679 233.017C96.242 233.066 96.1711 233.135 96.1877 233.177C96.2342 233.251 96.2924 233.317 96.36 233.372C96.3978 233.254 96.4356 233.136 96.4722 233.018L96.2679 233.017ZM136.599 233.32L136.789 233.152L136.614 232.968L136.428 233.234L136.599 233.32ZM126.243 187.202L126.435 187.029L126.258 186.839C126.197 186.931 126.134 187.021 126.072 187.114L126.243 187.202ZM101.397 173.575C101.34 173.542 101.266 173.469 101.229 173.484C101.155 173.528 101.09 173.585 101.036 173.651L101.383 173.769L101.397 173.575ZM132.344 199.352C132.4 199.291 132.503 199.226 132.505 199.16C132.506 199.094 132.403 199.026 132.345 198.959L132.156 199.245C132.209 199.277 132.271 199.31 132.344 199.352ZM138.584 233.715L138.414 233.523L138.23 233.697L138.499 233.884L138.584 233.715ZM128.078 234.542C128.143 234.482 128.255 234.424 128.258 234.362C128.262 234.301 128.154 234.231 128.095 234.166L127.902 234.444L128.078 234.542ZM135.496 234.257C135.448 234.231 135.378 234.166 135.341 234.182C135.27 234.224 135.206 234.277 135.153 234.34L135.496 234.444V234.257ZM128.209 175.438C128.157 175.372 128.104 175.306 128.05 175.241L127.878 175.426L128.127 175.62L128.209 175.438ZM123.796 235.144C123.856 235.086 123.962 235.026 123.966 234.968C123.969 234.91 123.87 234.839 123.816 234.774L123.634 235.048L123.796 235.144ZM136.601 235.132L136.803 234.974L136.614 234.799L136.415 235.047L136.601 235.132ZM93.5114 235.528L93.3355 235.335L93.1454 235.512L93.4193 235.7L93.5114 235.528ZM135.485 235.48C135.434 235.456 135.367 235.393 135.319 235.408C135.245 235.447 135.179 235.499 135.123 235.561L135.485 235.66V235.48ZM121.487 236.076C121.428 236.049 121.358 235.988 121.313 236.002C121.239 236.041 121.173 236.093 121.116 236.154L121.484 236.251C121.484 236.195 121.484 236.137 121.487 236.076ZM126.402 236.742C126.341 236.679 126.284 236.565 126.219 236.563C126.155 236.56 126.087 236.667 126.021 236.726L126.304 236.918C126.336 236.862 126.369 236.804 126.402 236.745V236.742ZM104.193 182.619C104.161 182.676 104.087 182.75 104.103 182.785C104.151 182.858 104.209 182.923 104.277 182.978L104.395 182.624L104.193 182.619ZM86.5533 217.216C86.5214 217.273 86.4518 217.342 86.4659 217.384C86.5056 217.457 86.5584 217.522 86.6218 217.575L86.7398 217.233L86.5533 217.216ZM123.368 194.92L123.178 194.696C123.106 194.762 122.986 194.824 122.976 194.898C122.967 194.972 123.086 195.088 123.157 195.095C123.228 195.102 123.298 194.984 123.368 194.92Z"/>
<path d="M109.866 151.159C110.606 152.238 109.553 153.974 110.549 155.478C110.742 155.768 110.595 156.665 110.368 156.769C109.865 157.005 109.196 156.99 108.627 156.893C108.451 156.864 108.318 156.246 108.267 155.884C108.159 155.106 108.117 154.318 108.048 153.534C107.72 154.252 107.364 154.961 107.075 155.695C106.97 155.963 107.133 156.424 106.971 156.561C106.735 156.76 106.185 156.916 106.011 156.783C105.645 156.5 105.471 155.986 105.157 155.62C104.869 155.284 104.5 155.017 104.167 154.72C104.112 155.204 104.039 155.688 104.013 156.173C104.002 156.358 104.095 156.55 104.148 156.736C104.216 156.972 104.289 157.208 104.36 157.444L102.589 157.562C102.621 157.26 102.7 156.953 102.676 156.655C102.536 154.937 103.476 153.06 101.925 151.533C101.83 151.44 101.896 150.971 101.994 150.93C102.529 150.707 103.118 150.389 103.647 150.452C104.001 150.495 104.305 151.099 104.591 151.484C105.283 152.428 105.95 153.392 106.628 154.347C106.969 153.211 107.241 152.046 107.684 150.95C107.882 150.46 108.358 149.995 108.827 149.721C109.47 149.346 109.989 149.87 109.866 151.159Z"/>
<path d="M119.858 250.446C117.606 250.463 116.138 249.021 116.141 246.796C116.141 244.713 117.688 243.221 119.918 243.142C121.893 243.072 123.428 244.735 123.482 247.004C123.531 248.932 121.951 250.43 119.858 250.446ZM121.823 247.27C121.579 246.515 121.378 245.972 121.232 245.423C120.987 244.478 120.347 244.242 119.461 244.353C118.536 244.471 117.98 244.972 118.015 245.888C118.033 246.659 118.172 247.424 118.427 248.152C118.852 249.286 120.118 249.687 120.956 248.924C121.406 248.519 121.563 247.791 121.823 247.27Z"/>
<path d="M156.598 166.8C156.76 166.897 156.963 166.958 157.07 167.095C157.69 167.854 158.38 168.578 158.872 169.414C159.711 170.842 159.462 171.318 158.269 172.436C157.785 172.888 157.284 171.699 156.905 172.743C156.595 173.599 156.352 174.395 156.343 175.301C156.343 175.609 156.114 175.916 155.989 176.224C155.767 176.025 155.502 175.855 155.328 175.618C154.575 174.595 154.541 173.525 155.111 172.388C155.191 172.23 154.94 171.906 154.842 171.658C154.677 171.772 154.52 171.895 154.369 172.026C154.225 172.164 154.055 172.311 153.99 172.488C153.841 172.895 153.949 173.681 153.174 172.942C152.882 172.664 152.61 172.367 152.315 172.093C151.514 171.35 151.476 171.307 152.698 170.795C154.177 170.179 156.091 169.463 156.373 167.333C156.4 167.153 156.52 166.982 156.598 166.8ZM157.096 168.874C156.813 169.737 156.651 170.209 156.524 170.691C156.524 170.711 156.956 170.897 156.975 170.868C157.212 170.535 157.406 170.174 157.552 169.792C157.598 169.657 157.386 169.435 157.096 168.874Z"/>
<path d="M93.0417 160.977C92.5435 161.343 92.259 161.674 91.9037 161.79C90.8542 162.134 90.0066 161.415 89.0704 161.151C88.7763 161.088 88.4781 161.046 88.1779 161.026C88.283 161.294 88.3196 161.63 88.5073 161.816C88.7764 162.082 89.1814 162.209 89.4753 162.458C89.5863 162.551 89.6229 162.956 89.5686 162.984C88.8733 163.352 88.1597 163.684 87.4306 163.978C87.3291 164.019 86.969 163.762 86.9584 163.624C86.8238 161.486 85.8487 159.719 84.4214 158.221C84.0153 157.794 83.8925 157.792 84.4687 157.554C85.1038 157.291 85.6905 156.912 86.3245 156.647C88.3574 155.798 89.3006 156.471 89.6016 158.89C89.6394 159.204 89.8779 159.62 90.1435 159.754C90.8341 160.109 91.5932 160.319 92.3192 160.599C92.5247 160.684 92.71 160.804 93.0417 160.977ZM88.5085 158.296C87.8167 157.979 87.381 157.757 86.9218 157.599C86.8699 157.581 86.5535 158.015 86.5972 158.079C86.8994 158.52 87.263 158.917 87.6077 159.329L88.5085 158.296Z"/>
<path d="M126.778 249.222C126.667 249.222 126.936 248.923 126.872 248.42C126.665 246.828 126.045 245.291 125.607 243.724C125.517 243.401 125.473 242.764 125.555 242.738C126.569 242.42 127.607 242.03 128.647 241.999C129.207 241.986 129.864 242.568 130.321 243.035C130.617 243.337 130.892 244.082 130.726 244.34C129.795 245.788 130.388 246.49 131.778 246.952C131.971 247.019 132.131 247.156 132.228 247.336C132.319 247.537 132.387 247.857 132.287 248.009C132.149 248.218 131.729 248.502 131.628 248.439C130.795 247.924 130.009 247.332 129.202 246.775C128.983 246.638 128.757 246.512 128.524 246.399C128.481 246.78 128.425 247.162 128.399 247.544C128.393 247.623 128.492 247.708 128.543 247.79C129.182 248.798 129.133 249.069 128.254 249.215C127.959 249.263 127.648 249.222 126.778 249.222ZM128.322 242.598C127.986 243.406 127.755 243.703 127.775 243.983C127.797 244.302 127.988 244.829 128.199 244.88C128.862 245.037 129.008 244.526 128.927 243.998C128.876 243.691 128.678 243.409 128.319 242.598H128.322Z"/>
<path d="M140.028 162.458C137.856 162.436 136.257 161.016 136.25 159.102C136.25 157.439 138.375 155.271 140.122 155.159C141.869 155.047 143.613 156.906 143.593 158.862C143.567 161.567 142.657 162.484 140.028 162.458ZM141.995 158.118C141.709 157.527 141.577 156.667 141.141 156.465C140.465 156.154 139.521 156.181 139.016 157.007C138.448 157.923 138.053 158.874 138.057 160.026C138.057 160.95 138.634 161.131 139.216 161.466C140.008 161.919 140.685 161.27 140.93 160.913C141.447 160.153 141.626 159.155 141.995 158.118Z"/>
<path d="M77.2101 171.118C77.0861 172.485 75.4086 174.532 74.3768 174.482C73.6519 174.447 72.907 173.973 72.2518 173.566C71.1893 172.904 70.7171 171.335 69.095 171.488C69.095 171.488 68.9498 171.024 69.0384 170.877C69.2438 170.537 69.6558 170.298 69.7998 169.945C70.3252 168.653 70.5636 168.765 71.2011 169.958C71.7029 170.903 72.665 171.619 73.4961 172.356C74.2044 172.983 75.0379 172.865 75.6116 172.193C76.1547 171.557 76.1429 170.911 75.6116 170.29C74.6884 169.216 73.6165 168.341 72.2424 167.884C72.0854 167.832 71.9614 167.682 71.8221 167.577C72.2376 167.14 72.6485 166.694 73.0829 166.278C73.1349 166.229 73.4146 166.321 73.5032 166.423C74.62 167.693 75.7344 168.965 76.8087 170.268C77.0472 170.557 77.1381 170.959 77.2101 171.118Z"/>
<path d="M99.9575 157.482C99.6482 158.006 99.5042 158.504 99.1736 158.741C98.8018 159.008 98.2634 159.048 97.7936 159.171C96.881 159.407 95.9649 159.631 95.0512 159.86C95.5541 159.019 94.7749 158.316 94.7749 157.506C94.7749 156.859 94.4007 156.208 94.2024 155.566C93.9781 154.836 92.6205 154.503 93.1989 153.639C93.5531 153.11 94.5719 153.032 95.2802 152.728C96.8067 152.07 97.2387 152.098 97.7782 152.977C97.8727 153.128 97.8432 153.354 97.8715 153.547C97.646 153.56 97.4146 153.611 97.1962 153.578C96.9105 153.533 96.606 153.306 96.3628 153.367C96.0198 153.454 95.7181 153.658 95.5104 153.945C95.3829 154.145 95.416 154.668 95.5706 154.778C95.8162 154.952 96.3356 155.059 96.5398 154.915C97.3473 154.343 97.6212 154.518 98.0262 155.419C98.4051 156.261 98.3319 156.433 97.4737 156.378C97.3748 156.357 97.2726 156.357 97.1738 156.378C96.8586 156.509 95.9661 156.028 96.4029 156.981C96.6591 157.532 96.776 158.495 97.7664 158.146C98.2965 157.96 98.7203 157.484 99.2268 157.202C99.3413 157.142 99.6022 157.335 99.9575 157.482Z"/>
<path d="M116.353 156.363C115.645 156.363 114.936 156.383 114.228 156.337C114.142 156.337 114.001 155.964 114.019 155.776C114.103 154.9 114.464 153.981 114.291 153.169C114.043 152.011 115.575 151.017 114.472 149.882C115.865 149.825 117.257 149.747 118.65 149.741C118.827 149.741 119.144 150.112 119.152 150.321C119.153 150.699 119.056 151.07 118.871 151.4C118.832 151.471 118.332 151.362 118.09 151.243C117.573 150.99 117.237 149.836 116.51 150.904C116.261 151.27 116.302 151.832 116.211 152.304C116.613 152.243 117.018 152.12 117.416 152.139C117.783 152.155 118.294 152.216 118.465 152.455C118.653 152.717 118.64 153.262 118.486 153.571C118.401 153.743 117.778 153.831 117.526 153.7C117.054 153.454 116.54 153.085 116.283 153.7C116.077 154.194 116.141 154.916 116.359 155.418C116.457 155.645 117.23 155.655 117.685 155.621C117.931 155.6 118.137 155.247 118.393 155.084C118.608 154.966 118.832 154.865 119.064 154.783C119.12 154.969 119.258 155.176 119.215 155.333C119.118 155.688 118.967 156.271 118.773 156.298C117.981 156.408 117.164 156.343 116.357 156.343L116.353 156.363Z"/>
<path d="M148.208 167.236C148.433 167.202 148.704 167.245 148.806 167.134C149.846 165.989 151.568 165.309 151.493 163.387C151.447 162.238 151.933 162.608 152.492 162.983C152.729 163.144 153.092 163.162 153.279 163.357C153.515 163.609 154.314 163.867 153.287 164.317C152.603 164.617 152.084 165.323 151.545 165.897C151.285 166.174 151.197 166.605 150.947 166.898C149.538 168.517 148.35 168.583 146.76 167.167C145.225 165.8 145.164 165.643 146.27 163.711C146.806 162.775 147.52 161.931 148.218 161.098C148.528 160.726 147.46 160.007 148.354 160.108C149 160.182 149.561 161.004 150.16 161.493C150.027 161.6 149.9 161.713 149.78 161.833C149.062 162.612 148.322 163.368 147.644 164.185C146.995 164.963 147.054 165.838 147.55 166.664C147.695 166.908 147.995 167.058 148.208 167.236Z"/>
<path d="M143.818 243.306C143.528 242.999 143.253 242.676 142.946 242.388C142.619 242.083 142.261 241.809 141.916 241.521C141.658 242.021 141.342 242.502 141.176 243.031C141.111 243.237 141.552 243.636 141.47 243.799C141.254 244.225 140.879 244.57 140.561 244.947C140.349 244.688 139.97 244.443 139.953 244.17C139.814 242.308 140.157 240.41 139.362 238.592C139.244 238.321 139.716 237.736 140.019 237.385C140.084 237.31 140.663 237.551 140.895 237.765C142.151 238.92 143.366 240.118 144.606 241.288C145.001 241.66 145.433 241.988 145.848 242.336L143.818 243.306ZM140.984 240.341C140.928 240.308 140.856 240.236 140.818 240.25C140.745 240.293 140.68 240.348 140.625 240.413L140.97 240.531L140.984 240.341Z"/>
<path d="M111.904 247.36C111.904 247.86 111.875 248.363 111.904 248.861C112.022 250.486 112.022 250.485 110.679 250.434C109.514 250.39 109.592 250.404 109.832 249.099C110.027 248.036 110.05 246.942 110.068 245.859C110.092 244.653 110.057 244.669 108.471 244.915C108.235 244.953 107.816 244.797 107.729 244.613C107.641 244.428 107.761 244.022 107.927 243.826C108.171 243.545 108.51 243.249 108.858 243.17C110.653 242.76 112.4 243.797 114.218 243.406C114.372 243.373 114.828 243.85 114.792 244.014C114.694 244.47 114.408 244.884 114.202 245.313C114.007 245.098 113.847 244.84 113.611 244.676C112.785 244.067 111.993 244.34 111.935 245.256C111.891 245.954 111.927 246.657 111.927 247.358L111.904 247.36Z"/>
<path d="M80.8462 164.849C81.283 165.667 81.3951 166.815 82.7575 166.706C82.7941 166.706 82.9546 167.178 82.8979 167.221C82.3502 167.638 81.8 168.079 81.1838 168.371C80.7635 168.57 80.0824 168.694 80.5935 167.79C80.6372 167.712 80.7175 167.578 80.6927 167.554C79.5015 166.249 78.2974 164.956 77.1086 163.658C76.9716 163.507 76.8004 163.147 76.837 163.116C77.7543 162.365 78.6716 161.606 79.6503 160.939C80.0174 160.689 81.878 161.447 82.0373 161.901C82.1731 162.288 82.7539 162.538 82.3124 163.174C81.8709 163.81 81.7693 164.683 80.8285 164.874C80.819 164.275 80.8934 163.658 80.7647 163.087C80.7057 162.824 80.2677 162.614 79.9631 162.456C79.8155 162.378 79.5794 162.466 79.3835 162.479C79.4449 162.782 79.4212 163.146 79.5842 163.378C79.9572 163.898 80.4212 164.36 80.8462 164.849Z"/>
<path d="M131.817 152.097C132.081 152.179 133.05 152.382 133.921 152.791C134.212 152.927 134.286 153.585 134.385 154.019C134.414 154.137 134.114 154.472 134.086 154.458C133.77 154.322 133.475 154.141 133.212 153.92C131.846 152.653 130.669 152.534 129.72 153.594C128.709 154.721 128.657 157.372 129.831 157.899C130.609 158.254 131.72 157.872 132.674 157.826C132.825 157.819 133.077 157.794 133.11 157.862C133.189 158.025 133.249 158.28 133.174 158.424C132.678 159.386 131.77 159.594 130.853 159.357C129.382 158.978 128.116 158.04 127.323 156.744C126.431 155.327 128.111 152.35 129.872 152.101C130.269 152.05 130.676 152.097 131.817 152.097Z"/>
<path d="M103.641 248.608C103.741 248.593 103.843 248.587 103.944 248.592C104.544 248.668 104.942 247.384 105.669 248.337C105.067 248.828 104.526 249.614 103.851 249.753C102 250.138 99.2999 247.931 99.1169 246.094C99.0107 245.022 100.446 242.678 101.495 242.589C102.96 242.464 104.478 242.252 105.878 243.135C106.478 243.514 106.532 243.86 106.138 244.284C105.945 244.489 105.796 245.382 105.153 244.424C104.091 242.846 103.926 242.89 102.599 243.572C101.405 244.181 100.587 245.923 100.989 246.996C101.322 247.895 102.628 248.689 103.641 248.608Z"/>
<path d="M158.485 178.884C159.601 178.357 160.728 177.855 161.831 177.293C163.422 176.481 163.42 176.315 161.96 175.207L161.405 174.781C161.753 174.608 162.088 174.392 162.453 174.282C162.621 174.232 162.949 174.326 163.044 174.462C164.004 175.932 164.953 177.413 165.842 178.921C165.984 179.164 165.916 179.83 165.779 179.884C165.261 180.09 164.384 180.33 164.349 179.524C164.267 177.601 163.386 178.309 162.495 178.816C161.732 179.253 160.968 179.688 160.218 180.144C159.764 180.419 159.333 180.734 158.892 181.028L157.613 178.759L158.287 178.437L158.485 178.884Z"/>
<path d="M87.5498 240.461C87.5498 239.857 87.5391 239.251 87.5498 238.645C87.5864 236.853 87.7469 236.813 89.3914 237.642C89.9888 237.943 89.8306 238.101 89.5779 238.468C89.4624 238.627 89.3959 238.816 89.3867 239.011C89.4032 239.905 89.454 240.798 89.4918 241.69C90.2119 241.1 91.3157 240.628 91.5707 239.884C92.0819 238.383 92.7512 239.7 93.2966 239.57C93.325 239.909 93.4407 240.524 93.371 240.545C91.4538 241.141 90.252 242.65 88.8613 243.925C88.6122 244.154 88.1766 244.226 87.8189 244.254C87.7422 244.261 87.5498 243.763 87.5415 243.493C87.5073 242.485 87.5273 241.475 87.5273 240.467L87.5498 240.461Z"/>
<path d="M64.9808 177.264C64.7187 176.144 65.5108 175.477 66.3077 174.848C66.4187 174.759 66.8236 174.9 66.9818 175.05C67.14 175.2 67.114 175.477 67.1707 175.7C66.9783 175.746 66.6985 175.727 66.6076 175.849C66.2699 176.293 65.9937 176.784 65.6938 177.256C66.2428 177.294 66.7976 177.404 67.336 177.346C67.7066 177.307 68.0443 177.029 68.4091 176.874C69.8918 176.226 71.2778 176.767 71.6992 178.155C72.0239 179.228 71.0629 180.971 69.8918 181.214C69.4834 181.298 68.9757 180.993 68.5389 180.805C68.3784 180.736 68.2922 180.498 68.173 180.333C68.3217 180.236 68.4622 180.073 68.6216 180.053C69.1186 179.99 69.6722 180.094 70.1043 179.905C70.331 179.806 70.4904 179.197 70.4184 178.883C70.3581 178.618 69.8741 178.227 69.6475 178.268C68.9864 178.386 68.3489 178.674 67.7196 178.94C66.0881 179.63 64.9713 178.987 64.9808 177.264Z"/>
<path d="M95.625 247.632C94.6912 247.266 94.056 247.041 93.4457 246.752C93.3761 246.72 93.3737 246.346 93.4622 246.208C94.9143 243.95 95.017 243.598 95.0619 240.549C95.0833 240.404 95.1493 240.271 95.2508 240.166C96.0771 240.402 96.9035 240.651 97.7016 240.968C97.7889 241.002 97.809 241.532 97.6862 241.717C96.8386 242.992 95.991 245.099 95.7383 246.735C95.7017 246.972 95.6781 247.21 95.625 247.632Z"/>
<path d="M135.643 240.545C135.848 242.216 135.838 243.95 136.934 245.354C137.103 245.57 137.208 246.133 137.103 246.209C136.73 246.481 136.261 246.715 135.811 246.754C135.575 246.774 135.176 246.4 135.077 246.121C134.755 245.218 134.768 244.093 134.213 243.406C133.68 242.742 134.398 241.399 133.004 241.295C132.98 241.295 132.907 240.725 132.989 240.684C133.762 240.299 134.562 239.975 135.35 239.621L135.643 240.545Z"/>
<path d="M130.162 217.652L130.783 217.062L132.614 217.049C132.047 217.953 131.157 218.219 130.162 218.278V217.652Z"/>
</svg>
