<svg viewBox="0 0 400 400" xmlns="http://www.w3.org/2000/svg">
<path d="M84.3647 156.143C87.0715 156.57 89.6463 157.3 91.752 159.207C96.4532 163.471 97.0752 170.236 93.2009 175.278C92.9577 175.59 92.7284 175.914 92.4261 176.32C95.588 178.165 97.9335 180.65 98.9168 184.135C100.418 189.437 99.2122 194.156 95.0078 197.745C92.2593 200.094 89.1008 201.977 86.1125 204.031C85.718 204.266 85.2654 204.387 84.806 204.378C79.1446 204.397 73.482 204.397 67.8182 204.378C67.5517 204.332 67.29 204.261 67.0364 204.166C67.6584 203.687 68.1136 203.308 68.6 202.968C75.7683 197.915 82.9332 192.853 90.1432 187.849C91.1474 187.154 91.613 186.432 91.5609 185.177C91.4601 182.613 91.5331 180.042 91.5331 177.06L62.5992 197.377V185.476L57.9883 188.332V177.602C58.9716 176.907 59.9098 176.122 60.9522 175.518C62.1857 174.823 62.627 173.898 62.5992 172.449C62.5054 167.692 62.5506 162.925 62.5749 158.158C62.6231 157.481 62.7159 156.807 62.8529 156.143H84.3647ZM87.0159 167.262L86.9187 166.914C82.9436 166.914 78.9685 166.897 74.9935 166.938C74.4906 166.982 74.0095 167.163 73.6036 167.463C68.9081 170.739 64.2323 174.03 59.5762 177.338C59.2288 177.592 58.718 177.985 58.7075 178.325C58.6381 181.16 58.6832 183.985 58.6832 187.203L87.0159 167.262Z"/>
<path d="M62.5547 244.619V207.724H150.923V188.992C151.743 189.597 152.282 189.972 152.8 190.382C159.69 195.82 166.563 201.282 173.495 206.671C174.252 207.246 175.166 207.577 176.115 207.62C181.306 207.707 186.497 207.662 191.859 207.662V189.089C192.529 189.545 192.95 189.784 193.332 190.094C200.363 195.635 207.395 201.174 214.43 206.713C215.021 207.175 215.82 207.613 216.553 207.62C226.213 207.676 235.869 207.658 245.529 207.651C245.755 207.651 245.977 207.603 246.446 207.551V189.027C247.308 189.618 247.815 189.923 248.274 190.288C255.078 195.653 261.871 201.03 268.653 206.418C269.656 207.27 270.938 207.723 272.253 207.69C294.632 207.646 317.014 207.635 339.398 207.658H341.639V244.619H62.5547ZM159.798 216.602C159.735 215.424 159.673 214.243 159.614 213.065H151.49V239.261H159.735C159.735 238.416 159.735 237.728 159.735 237.047C159.808 233.416 159.735 229.775 160.01 226.165C160.357 221.592 164.527 219.299 168.377 221.415C167.682 225.643 167.449 229.889 169.662 233.826C171.973 237.937 175.67 239.799 180.434 240.171V233.781C177.081 232.238 175.997 230.546 176.56 227.652H193.898C194.628 218.934 189.43 212.085 182.352 212.363V218.176C184.329 218.871 185.806 219.969 186.112 222.269H176.521C176.907 219.927 178.391 218.795 180.309 218.194V212.207C175.552 212.342 172.081 214.451 169.228 218.204V212.69C165.204 212.349 162.161 213.541 159.798 216.602ZM312.587 212.37C307.976 211.908 303.206 215.112 301.305 219.788C300.19 222.544 300.075 225.407 300.28 228.295C300.746 234.973 305.839 239.869 312.577 240.109V233.673C309.495 232.37 308.355 230.591 308.817 227.669H326.153C327.136 219.163 321.267 211.519 314.575 212.45V218.135C316.531 218.854 318.105 219.896 318.397 222.238H308.835C309.21 219.868 310.812 218.847 312.598 218.138L312.587 212.37ZM204.138 203.398L195.91 197.144V239.309H204.079C204.079 234.824 204.027 230.456 204.1 226.105C204.149 223.169 204.663 220.407 208.013 219.438V212.679L204.138 215.987V203.398ZM149.374 239.355V213.072H141.076C141.003 213.788 140.944 214.389 140.861 215.219C139.328 213.909 137.952 212.711 135.937 212.582V220.077C139.314 220.602 141.149 222.582 141.271 225.907C141.423 229.566 139.582 231.748 136.006 232.322V240.355L140.913 237.138C140.975 237.871 141.038 238.59 141.104 239.365L149.374 239.355ZM235.8 212.162C230.65 212.631 226.592 214.594 224.257 219.028C221.501 224.274 221.665 229.632 225.021 234.584C227.53 238.281 231.307 239.9 235.793 240.171V232.179C233.083 231.352 231.55 229.622 231.384 226.804C231.189 223.461 232.589 221.147 235.793 220.146L235.8 212.162ZM237.826 240.063C245.185 240.3 251.231 233.913 251.158 226.123C251.085 218.333 244.938 211.922 237.892 212.401V220.258C240.81 221.112 242.148 223.155 242.245 225.932C242.357 229.083 240.922 231.335 237.826 232.186V240.063ZM112.292 239.368C113.369 238.062 113.47 236.908 112.879 235.435C110.54 229.611 108.362 223.725 106.103 217.863C105.471 216.213 104.811 214.573 104.189 212.999H99.3865C97.9156 216.689 96.4516 220.377 94.9945 224.062C94.8414 224.371 94.7938 224.721 94.859 225.06C95.9014 227.881 96.989 230.682 98.2329 233.927C99.4804 230.755 100.53 228.069 101.77 224.941C103.792 230.129 105.592 234.775 107.392 239.375L112.292 239.368ZM133.936 240.185V232.019C129.394 229.782 128.935 223.072 133.936 220.247V212.387C130.308 211.842 126.399 213.777 124.179 217.488C120.794 223.155 120.77 229.01 124.123 234.681C126.236 238.26 129.495 240.23 133.939 240.199L133.936 240.185ZM264.386 240.115V232.836C261.999 231.821 261.287 230.807 261.259 228.024C261.21 223.652 261.259 219.274 261.238 214.9C261.238 214.288 261.183 213.673 261.155 213.061H252.868C252.868 219.076 252.52 225.018 252.961 230.894C253.427 237.03 257.805 240.303 264.386 240.115ZM269.713 213.013V215.032C269.713 219.118 269.713 223.208 269.713 227.294C269.713 229.775 269.317 232.065 266.409 232.836V240.112C274.195 240.161 277.955 235.942 278.018 229.886C278.073 224.646 278.077 219.41 278.087 214.173C278.052 213.781 277.982 213.393 277.879 213.013H269.713ZM209.993 219.573C211.751 221.105 212.019 221.554 212.318 223.861C212.415 224.776 212.454 225.696 212.433 226.616C212.433 230.807 212.433 234.997 212.433 239.285H220.685C220.685 233.031 220.775 226.946 220.622 220.852C220.584 219.309 219.966 217.683 219.257 216.269C218.419 214.637 217.017 213.365 215.313 212.687C213.608 212.009 211.716 211.972 209.986 212.582L209.993 219.573ZM79.2333 213.027C83.1909 221.905 87.0896 230.643 90.9534 239.316H96.0126C97.2114 237.555 97.3121 235.939 96.4643 234.042C95.0362 230.841 93.8896 227.52 92.6143 224.253C91.1526 220.515 89.6875 216.772 88.2188 213.027H79.2333ZM289.283 229.215L289.748 229.306C289.957 230.223 290.624 231.446 290.266 231.981C289.772 232.718 288.528 233.003 287.545 233.34C287.166 233.472 286.621 233.291 286.204 233.124C284.553 232.471 282.92 231.769 281.086 231.001L278.229 237.134C283.077 240.741 290.294 241.22 294.79 238.378C298.084 236.293 299.627 232.36 298.758 228.246C298.146 225.355 295.78 223.381 292.045 222.752L289.283 229.215ZM290.255 222.388C289.873 222.158 289.616 222.085 289.501 221.918C289.088 221.303 288.393 220.633 288.435 220.028C288.469 219.531 289.328 218.909 289.946 218.68C290.657 218.463 291.413 218.433 292.139 218.593C293.254 218.805 294.331 219.201 295.537 219.552C296.43 217.665 297.309 215.813 298.272 213.777C293.8 211.932 289.474 211.414 285.068 213.298C283.889 213.782 282.842 214.538 282.011 215.504C281.18 216.471 280.589 217.619 280.286 218.857C278.772 224.396 282.18 229.014 287.583 228.639C288.452 226.62 289.328 224.57 290.255 222.388ZM114.328 234.323H114.762L124.255 213.041H115.467C113.946 216.884 112.434 220.685 110.95 224.483C110.829 224.8 110.818 225.149 110.919 225.473C112.034 228.434 113.188 231.373 114.328 234.323ZM182.335 240.126C188.686 240.126 193.346 235.352 193.485 231.269C191.126 231.269 188.766 231.252 186.407 231.29C186.025 231.328 185.663 231.477 185.365 231.717C184.374 232.45 183.419 233.232 182.338 234.087L182.335 240.126ZM318.421 231.318L314.599 234.052V240.105C320.159 240.3 325.888 235.73 325.659 231.318H318.421Z"/>
<path d="M312.934 176.296L306.892 181.626C305.154 177.964 302.586 175.372 298.698 174.329C296.281 173.67 293.712 173.839 291.401 174.809C286.669 176.737 283.562 181.633 284.038 186.428C284.584 191.96 288.337 196.112 293.747 197.168C298.524 198.103 303.57 195.646 306.085 191.004H296.169V184.326H315.147C317.396 190.462 311.002 200.799 303.021 203.92C298.242 205.733 292.945 205.615 288.253 203.59C283.56 201.565 279.839 197.793 277.88 193.072C275.92 188.352 275.875 183.054 277.755 178.301C279.634 173.548 283.29 169.713 287.947 167.609C297.256 163.624 309.025 167.651 312.934 176.296Z"/>
<path d="M208.011 188.019V166.726H216.145V204.493L189.178 183.127V204.225H180.957V166.584L208.011 188.019Z"/>
<path d="M167.064 187.998V166.726H175.208V204.475L148.22 183.103V204.225H140.01V166.566C149.054 173.728 157.838 180.688 167.064 187.998Z"/>
<path d="M262.691 188.016V166.743H270.739V204.441L243.737 183.036V204.232H235.658V166.604L262.691 188.016Z"/>
<path d="M111.567 166.733V168.888C111.567 175.806 111.567 182.724 111.567 189.642C111.567 192.846 113.325 195.368 116.22 196.466C119.114 197.564 122.127 196.814 124.274 194.493C125.432 193.263 126.057 191.626 126.011 189.937C126.011 182.731 126.046 175.528 126.077 168.321C126.077 167.866 126.13 167.407 126.171 166.772H134.163C134.198 167.467 134.26 168.068 134.26 168.686C134.26 175.66 134.281 182.637 134.26 189.611C134.239 197.53 128.235 204.298 120.66 204.976C112.203 205.733 105.076 200.514 103.565 192.443C103.453 191.819 103.396 191.186 103.395 190.552C103.395 182.998 103.395 175.447 103.395 167.897C103.395 167.55 103.45 167.202 103.492 166.733H111.567Z"/>
<path d="M321.983 195.098C324.485 196.231 326.604 197.349 328.839 198.152C329.553 198.41 330.325 198.471 331.071 198.326C331.817 198.182 332.511 197.838 333.078 197.332C334.968 195.744 335.079 193.058 333.161 191.467C332.021 190.518 330.67 189.816 329.374 189.069C327.327 187.888 325.159 186.898 323.203 185.595C319.033 182.815 317.643 178.944 318.901 174.371C320.162 169.854 324.235 166.432 328.769 166.161C333.477 165.876 337.647 167.106 341.09 170.768L336.886 176.043C334.766 175.177 332.907 174.093 330.906 173.676C328.154 173.103 325.895 175.066 326.288 177.551C326.547 178.701 327.212 179.72 328.161 180.421C329.686 181.522 331.49 182.235 333.168 183.124C334.339 183.746 335.541 184.319 336.643 185.028C341.052 187.839 342.8 191.894 341.664 196.516C341.07 198.851 339.774 200.947 337.95 202.521C336.126 204.096 333.862 205.071 331.465 205.317C326.451 205.758 320.729 203.621 317.914 200.192L321.983 195.098Z"/>
<path d="M221.844 166.705H229.79V204.232H221.844V166.705Z"/>
</svg>
