<svg viewBox="0 0 400 400" xmlns="http://www.w3.org/2000/svg">
<path d="M200 300C180.223 299.997 160.891 294.13 144.449 283.141C128.006 272.151 115.192 256.533 107.625 238.261C100.058 219.989 98.0789 199.884 101.938 180.487C105.797 161.091 115.321 143.274 129.305 129.289C148.059 110.536 173.494 100 200.016 100C226.537 100 251.973 110.536 270.727 129.289C289.48 148.043 300.016 173.478 300.016 200C300.016 226.522 289.48 251.957 270.727 270.711C261.46 280.028 250.438 287.414 238.298 292.441C226.157 297.469 213.14 300.038 200 300ZM200 103.804C180.974 103.803 162.375 109.445 146.555 120.014C130.735 130.584 118.405 145.608 111.125 163.186C103.844 180.764 101.939 200.106 105.651 218.766C109.364 237.426 118.526 254.567 131.981 268.019C140.913 276.952 151.517 284.037 163.188 288.872C174.859 293.706 187.368 296.194 200 296.194C212.632 296.194 225.141 293.706 236.812 288.872C248.483 284.037 259.087 276.952 268.019 268.019C276.952 259.087 284.037 248.483 288.871 236.812C293.706 225.141 296.194 212.632 296.194 200C296.194 187.368 293.706 174.859 288.871 163.188C284.037 151.518 276.952 140.913 268.019 131.981C259.108 123.02 248.508 115.915 236.832 111.078C225.157 106.242 212.638 103.769 200 103.804Z"/>
<path d="M193.958 299.217C193.822 299.112 193.689 298.922 193.549 298.916C192.865 298.857 192.177 298.857 191.492 298.916C190.795 299.005 190.202 298.697 189.561 298.577C188.972 298.469 188.309 298.849 187.77 298.288C187.669 298.18 187.368 298.266 187.155 298.263C186.546 298.302 185.937 298.205 185.37 297.977C184.851 297.73 184.125 298.193 183.614 297.629C182.696 297.674 181.777 297.567 180.894 297.312C179.249 296.938 177.569 296.678 175.955 296.215C175.004 295.939 173.98 295.961 173.124 295.403C171.45 295.368 170.065 294.281 168.426 294.135C167.953 293.555 167.158 293.986 166.6 293.542C166.121 293.165 165.449 293.035 164.863 292.788C164.276 292.541 163.595 292.471 163.056 292.189C161.987 291.593 160.87 291.088 159.717 290.68C158.212 290.198 157.013 289.063 155.441 288.755C154.052 287.522 152.271 286.977 150.686 286.023C149.395 285.233 148.115 284.381 146.761 283.677C146.276 283.423 145.87 283.043 145.401 282.726C143.096 281.318 140.963 279.67 138.775 278.081C137.694 277.292 136.788 276.268 135.751 275.418C133.42 273.523 131.197 271.499 129.093 269.354C127.753 267.972 126.412 266.583 125.182 265.106C124.104 263.806 122.981 262.544 121.932 261.222C120.937 259.973 120.116 258.585 119.136 257.32C118.238 256.182 117.41 254.991 116.657 253.753C115.871 252.444 115.053 251.148 114.248 249.851C113.208 248.171 112.441 246.364 111.417 244.668C110.538 243.222 110.003 241.564 109.315 240.001C109.258 239.865 109.197 239.732 109.134 239.599C107.622 236.422 106.369 233.128 105.39 229.749C104.959 228.294 104.338 226.896 104.204 225.311C104.094 224.02 103.542 222.752 103.079 221.506C102.863 220.933 103.057 220.356 102.743 219.737C102.353 218.973 102.531 217.943 102.34 217.056C102.131 216.082 102.21 215.052 101.763 214.126C101.732 214.03 101.718 213.929 101.722 213.828C101.618 212.56 101.633 211.248 101.373 210.002C101.056 208.512 101.329 206.981 101.028 205.545C100.711 203.982 100.844 202.451 100.784 200.91C100.724 199.369 100.587 197.816 100.822 196.323C101.069 194.769 100.923 193.216 101.139 191.697C101.263 190.841 101.234 189.954 101.456 189.139C101.678 188.324 101.538 187.481 101.773 186.739C102.008 185.997 101.843 185.176 102.09 184.495C102.337 183.813 102.134 183.008 102.407 182.412C102.889 181.35 102.54 180.224 102.943 179.147C103.298 178.196 103.415 177.099 103.704 176.122C103.992 175.146 103.948 174.043 104.582 173.168C104.743 171.424 105.533 169.867 106.065 168.235C106.598 166.602 107.178 164.893 107.758 163.232C107.931 162.722 108.154 162.231 108.424 161.764C108.944 160.82 109.358 159.822 109.66 158.788C109.719 158.653 109.789 158.524 109.87 158.401C110.76 156.768 111.372 154.983 112.358 153.414C113.674 151.325 114.777 149.115 116.102 147.026C117.215 145.267 118.454 143.59 119.539 141.811C120.303 140.562 121.466 139.564 122.284 138.324C123.39 136.673 124.934 135.392 125.996 133.715C126.184 133.474 126.397 133.253 126.63 133.055C128.012 131.673 129.376 130.272 130.783 128.915C132.321 127.435 133.817 125.891 135.485 124.566C137.967 122.591 140.363 120.511 143.045 118.771C144.504 117.82 145.918 116.77 147.373 115.8C148.035 115.356 148.666 114.849 149.357 114.465C150.426 113.866 151.529 113.334 152.619 112.776C153.795 112.167 154.838 111.34 156.107 110.855C158.326 109.996 160.386 108.727 162.694 108.001C163.693 107.684 164.631 107.098 165.668 106.775C166.647 106.473 167.57 106.036 168.559 105.725C170.195 105.205 171.859 104.774 173.492 104.242C175.292 103.658 177.16 103.386 178.979 102.929C180.117 102.644 181.338 102.612 182.41 102.045C182.617 101.986 182.836 101.986 183.044 102.045C183.719 102.124 184.337 101.915 184.977 101.728C185.618 101.541 186.328 101.94 186.905 101.411C186.93 101.385 187.006 101.411 187.06 101.411C188.388 101.306 189.739 101.306 191.042 101.068C192.887 100.716 194.789 101.011 196.606 100.694C198.276 100.403 199.912 100.517 201.557 100.469C202.41 100.447 203.263 100.701 204.122 100.751C204.981 100.802 205.977 100.564 206.801 100.812C207.99 101.167 209.156 100.983 210.329 101.09C210.922 101.144 211.505 101.316 212.101 101.392C212.697 101.468 213.331 101.239 213.883 101.709C214.007 101.813 214.292 101.709 214.517 101.728C216.711 101.906 218.884 102.296 221.003 102.891C222.005 103.151 223.029 103.367 224.04 103.573C225.308 103.833 226.522 104.207 227.756 104.578C229.217 105.002 230.698 105.373 232.137 105.846C233.849 106.426 235.535 107.082 237.209 107.748C238.344 108.192 239.45 108.699 240.579 109.174C241.708 109.65 242.659 110.462 243.927 110.633C245.252 111.688 246.885 112.192 248.295 113.096C248.501 113.226 248.73 113.327 248.929 113.445C251.875 115.08 254.726 116.879 257.47 118.834C258.912 119.852 260.323 120.904 261.705 122.036C263.173 123.244 264.558 124.537 266.042 125.729C268.543 127.749 270.664 130.142 272.924 132.386C274.517 134.001 276.015 135.706 277.41 137.494C279.926 140.678 282.28 143.986 284.464 147.407C285.504 149.02 286.366 150.745 287.453 152.349C287.637 152.622 287.647 153.005 287.77 153.3C288.033 153.877 288.322 154.445 288.62 155.009C288.848 155.443 289.13 155.852 289.346 156.277C289.864 157.334 290.366 158.39 290.852 159.447C291.07 159.935 291.169 160.49 291.429 160.95C292.291 162.449 292.757 164.098 293.331 165.705C293.847 167.182 294.516 168.612 294.881 170.143C295.303 171.915 295.997 173.602 296.374 175.399C296.707 176.984 296.945 178.595 297.55 180.132C297.867 180.906 297.791 181.825 297.921 182.669C298 183.208 298.146 183.74 298.238 184.282C298.33 184.824 298.067 185.427 298.555 185.899C298.609 185.95 298.555 186.105 298.555 186.216C298.657 187.544 298.593 188.917 298.917 190.191C299.284 191.643 298.936 193.108 299.234 194.503C299.766 197.102 299.322 199.711 299.551 202.302C299.633 203.306 299.17 204.204 299.205 205.183C299.24 206.163 299.383 207.127 299.164 208.036C299.006 208.886 298.912 209.747 298.882 210.611C298.802 211.463 298.672 212.329 298.527 213.166C298.279 214.608 298.244 216.085 297.893 217.499C297.62 218.647 297.465 219.823 297.113 220.967C296.781 222.001 296.541 223.062 296.393 224.138C296.225 225.545 295.721 226.832 295.375 228.173C295.03 229.514 294.583 230.798 294.107 232.085C293.454 233.876 292.906 235.715 292.155 237.456C291.752 238.407 291.289 239.31 290.921 240.277C290.554 241.244 289.97 242.103 289.558 243.038C288.444 245.492 287.189 247.879 285.798 250.187C284.6 252.175 283.37 254.166 282.058 256.093C281.126 257.463 280.14 258.797 279.122 260.106C277.198 262.589 275.169 264.973 273.01 267.268C271.84 268.514 270.756 269.871 269.469 270.99C268.052 272.22 266.79 273.624 265.348 274.794C263.648 276.176 262.009 277.647 260.256 278.947C257.866 280.732 255.396 282.409 252.87 284.019C250.651 285.427 248.289 286.555 246.098 288.007C245.407 288.464 244.634 289.025 243.683 289.053C243.385 289.066 243.103 289.193 242.896 289.408C242.161 290.359 240.89 290.236 240.018 290.921C239.733 291.146 239.241 291.085 238.902 291.266C236.562 292.534 234.007 293.229 231.519 294.103C230.133 294.589 228.688 294.921 227.334 295.479C226.621 295.774 225.879 295.72 225.159 295.958C224.379 296.218 223.558 296.437 222.747 296.643C221.885 296.865 221.025 297.109 220.154 297.277C219.282 297.445 218.413 297.381 217.602 297.629C216.115 298.082 214.492 297.816 213.071 298.548C212.967 298.574 212.858 298.574 212.754 298.548C210.884 298.434 209.058 299.103 207.181 298.865C206.956 298.84 206.626 298.751 206.62 299.182L193.958 299.217ZM165.427 233.147C165.427 233.959 165.405 234.802 165.427 235.645C165.437 236.304 165.33 236.959 165.11 237.579C164.067 240.803 160.906 242.873 158.164 242.785C157.636 242.758 157.107 242.758 156.579 242.785C155.726 242.806 154.888 242.562 154.179 242.087C153.135 241.419 152.199 240.596 151.402 239.646C150.849 238.956 150.449 238.156 150.229 237.3C149.956 236.349 149.912 235.306 149.785 234.219H145.772C145.772 234.986 145.829 235.623 145.772 236.248C145.575 238.045 146.406 239.599 147.173 241.051C147.861 242.329 148.816 243.445 149.972 244.322C152.353 246.155 154.873 247.362 157.971 247.242C159.712 247.138 161.419 246.715 163.008 245.996C164.764 245.261 166.305 243.926 168.045 241.374C169.313 239.519 169.611 237.529 169.852 235.462C169.939 234.441 169.857 233.412 169.608 232.418C169.374 231.463 169.055 230.531 168.657 229.632C168.061 228.154 166.613 227.387 165.912 226.018C165.776 225.751 165.335 225.653 165.062 225.441C164.918 225.284 164.794 225.11 164.691 224.924C165.177 224.615 165.637 224.269 166.067 223.887C166.701 223.228 167.446 222.575 167.827 221.77C168.305 220.752 169.263 219.966 169.326 218.752C169.909 218.26 169.168 217.382 169.856 216.9C169.932 216.849 169.856 216.599 169.856 216.44C169.947 214.946 169.832 213.446 169.513 211.983C169.345 211.069 169.023 210.191 168.562 209.384C167.869 208.196 167.027 207.101 166.058 206.125C163.953 204.083 161.156 202.91 158.224 202.84C157.202 202.809 156.18 202.902 155.181 203.116C153.6 203.482 152.098 204.126 150.743 205.018C150.005 205.483 149.335 206.048 148.752 206.695C148.216 207.272 147.896 208.046 147.373 208.642C146.85 209.238 146.805 210.106 146.396 210.775C145.607 212.075 145.889 213.606 145.445 214.979C145.414 215.074 145.395 215.233 145.445 215.296C145.952 215.825 145.696 216.475 145.762 217.075C145.801 217.469 145.893 217.856 146.035 218.225C147.021 220.936 147.519 221.884 149.205 223.561C149.722 224.071 150.204 224.692 150.828 224.997C152.011 225.571 153.063 226.449 154.43 226.623C154.661 226.655 154.877 226.921 155.092 226.915C156.332 226.877 157.508 227.463 158.766 227.263C158.979 227.229 159.223 227.441 159.461 227.473C160.615 227.625 161.385 228.452 162.314 229.026C162.935 229.431 163.473 229.951 163.899 230.557C164.527 231.372 164.786 232.355 165.427 233.147ZM250.768 197.442L254.255 194.75C253.304 193.511 252.404 192.309 251.488 191.111C250.463 189.758 249.422 188.397 248.365 187.028C247.284 185.626 246.216 184.212 245.106 182.833C244.702 182.4 244.43 181.862 244.32 181.28L254.296 176.42C253.916 175.035 253.184 173.922 252.578 172.755H251.408C250.98 173.577 250.083 173.577 249.367 173.894C246.777 175.041 244.345 176.515 241.685 177.542C240.525 177.989 239.425 178.706 238.287 179.28C236.892 179.98 235.485 180.656 233.941 181.413V152.825H229.502V197.102H233.259C233.963 196.874 233.893 196.434 233.893 196.006C233.893 193.366 233.893 190.724 233.893 188.08V186.317L240.008 183.429L250.768 197.442ZM196.241 197.096C197.037 196.779 196.808 196.189 196.808 195.689C196.808 188.403 196.808 181.118 196.808 173.833V173.199L196.333 172.724C195.154 172.724 193.943 172.724 192.735 172.724C192.599 172.746 192.467 172.783 192.338 172.832V175.393C191.893 175.187 191.459 174.958 191.039 174.705C189.596 173.713 186.661 172.749 185.047 172.714C183.779 172.683 182.574 172.987 181.341 173.317C178.333 174.128 177.971 174.559 176.155 176.1C174.817 177.235 174.145 178.839 173.235 180.275C172.655 181.194 172.896 182.323 172.398 183.255C172.249 186.235 172.658 189.072 174.341 191.637C175.521 193.431 177.163 194.718 178.935 195.815C179.461 196.132 180.203 196.288 180.869 196.465C181.542 196.688 182.241 196.821 182.948 196.861C183.624 196.861 184.312 197.236 185.031 197.125C185.469 197.055 185.89 196.877 186.328 196.808C188.103 196.619 189.797 195.963 191.235 194.905C191.613 194.623 191.907 194.481 192.383 194.722V196.69L192.811 197.118L196.241 197.096ZM227.442 217.056H246.187C246.301 216.25 246.409 215.508 246.523 214.7C245.889 214.085 246.552 213.163 246.187 212.411C245.845 211.707 245.854 210.896 245.36 210.211C244.913 209.577 244.795 208.734 244.355 208.106C243.832 207.444 243.242 206.838 242.592 206.299C241.997 205.733 241.361 205.212 240.69 204.739C240.045 204.292 239.351 203.918 238.623 203.623C237.864 203.374 237.083 203.198 236.29 203.097C235.493 202.952 234.687 202.867 233.877 202.844C233.056 202.812 232.273 203.094 231.481 203.215C229.932 203.504 228.471 204.144 227.207 205.085C225.854 206.05 224.704 207.273 223.825 208.683C222.924 210.102 222.371 211.714 222.211 213.388C221.723 218.517 223.695 223.716 229.689 226.262C233.884 228.043 239.2 227.451 243.21 223.111C242.576 221.842 241.508 220.942 240.167 220.178C238.981 221.693 237.266 222.347 235.554 222.762C233.75 223.199 231.947 222.638 229.877 221.494C229.401 221.018 228.497 220.197 227.705 219.275C227.334 218.85 227.179 218.235 226.906 217.658L227.442 217.056ZM218.752 217.106C218.53 215.252 218.974 213.537 218.404 211.847C218.032 210.732 217.555 209.655 216.98 208.629C216.235 207.31 215.11 206.258 213.956 205.307C213.138 204.632 212.089 204.238 211.147 203.722C210.126 203.145 208.893 203.405 207.866 202.856C202.261 202.419 197.233 205.361 195.284 210.823C193.201 216.643 195.414 222.483 200.403 225.358C201.205 225.821 202.049 226.217 202.882 226.626C203.716 227.035 204.785 226.68 205.574 227.01C206.595 227.438 207.432 226.946 208.345 226.969C209.299 226.973 210.24 226.746 211.087 226.306C211.895 225.947 212.674 225.523 213.414 225.038C214.15 224.477 214.858 223.879 215.535 223.247L212.571 220.283H212.174C209.134 223.437 206.325 223.275 202.692 221.839C201.034 221.186 199.373 218.606 199.459 217.103L218.752 217.106ZM131.772 192.724C132.023 188.92 131.455 185.262 132.016 182.501C133.497 179.036 135.618 177.574 138.426 177.184C141.315 176.782 143.676 177.92 145.401 179.806L148.606 176.601C148 176.116 147.309 175.52 146.577 174.981C144.548 173.491 142.313 172.61 139.745 172.721C138.902 172.759 137.983 172.515 137.209 172.768C135.307 173.402 133.348 173.97 131.791 175.39C131.157 175.957 130.59 176.547 130.016 177.165C128.327 178.97 127.388 181.35 127.391 183.823C127.302 194.544 127.353 205.269 127.353 215.99V217.487C128.887 217.22 130.355 217.709 131.791 217.135V197.673L132.321 197.077H140.325V192.724H131.772ZM225.66 196.662C225.66 194.544 225.705 192.43 225.66 190.321C225.616 188.213 225.955 186.159 225.343 184.117C225.54 182.757 224.96 181.559 224.541 180.332C224.398 179.762 224.166 179.219 223.853 178.722C223.099 177.745 222.243 176.842 221.409 175.929C219.596 173.944 217.142 173.174 214.65 172.778C212.158 172.381 209.651 173.041 207.4 174.318C206.883 174.61 206.411 174.978 205.942 175.298C204.991 174.664 205.371 173.963 205.723 173.304L205.317 172.806H201.297V197.106H205.026C205.828 196.56 205.688 195.866 205.688 195.203C205.688 190.927 205.688 186.644 205.688 182.342C206.094 181.746 206.554 181.153 206.924 180.51C208.662 177.514 212.117 176.899 214.701 177.159C215.037 177.812 215.725 177.355 216.242 177.666C217.671 178.528 218.936 179.153 219.957 180.979C220.15 181.324 220.493 181.613 220.566 181.99C220.784 182.88 220.905 183.791 220.927 184.707C220.876 188.708 220.905 192.715 220.905 196.655C221.079 196.83 221.19 197.036 221.304 197.039C222.607 197.061 223.913 197.039 225.264 197.039L225.66 196.662ZM273.847 226.778V225.694C273.847 224.109 273.879 222.524 273.847 220.939C273.815 219.354 273.92 217.769 273.59 216.149C273.33 214.881 273.536 213.518 273.536 212.316C273.374 212.028 273.227 211.732 273.096 211.428C272.855 210.794 272.725 210.091 272.398 209.501C271.679 208.262 270.787 207.133 269.748 206.147C268.616 205.018 267.259 204.308 265.88 203.595C265.481 203.389 262.466 202.913 261.914 202.831C260.757 202.653 259.622 202.97 258.576 203.24C257.53 203.509 256.357 203.715 255.469 204.536C255 204.968 254.296 205.142 253.532 205.513V202.891H249.503C249.297 206.905 249.376 225.948 249.598 227.254H253.402C253.742 226.693 253.908 226.045 253.878 225.39C253.856 221.535 253.878 217.677 253.878 213.822C253.854 213.462 253.885 213.101 253.97 212.75C254.794 210.354 256.294 208.54 258.725 207.678C260.36 207.059 262.16 207.032 263.813 207.602C265.322 208.141 266.844 208.705 267.564 210.344C269.003 211.565 269.12 213.197 269.104 214.938C269.066 218.894 269.104 222.863 269.104 226.728L269.513 227.187H273.444L273.847 226.778ZM177.474 227.229V214.89C177.543 213.448 177.979 212.047 178.742 210.82C179.423 209.604 180.458 208.624 181.709 208.011C183.186 207.3 184.845 207.056 186.464 207.314C187.811 207.567 189.216 207.856 190.183 209.038C190.583 209.482 191.007 209.906 191.451 210.306L194.412 206.854C193.647 206.161 192.846 205.511 192.012 204.904C191.154 204.335 190.234 203.866 189.27 203.506C188.324 203.208 187.355 202.99 186.372 202.853C184.917 202.596 183.519 203.259 182.07 203.17C180.574 203.887 179.014 204.473 177.499 205.583V202.923H173.061V226.842L173.495 227.238L177.474 227.229ZM151.161 172.755V195.216C151.136 195.585 151.141 195.955 151.177 196.323C151.249 196.595 151.355 196.857 151.494 197.102H155.108C155.72 196.785 155.587 196.272 155.587 195.815C155.587 191.96 155.587 188.109 155.587 184.257C155.592 183.221 155.832 182.199 156.29 181.27C156.748 180.341 157.412 179.528 158.231 178.893C159.087 178.186 160.085 177.308 161.426 177.482C162.602 176.848 163.886 177.137 165.088 177.229C165.942 177.278 166.746 177.651 167.335 178.272C167.627 178.589 168.074 178.785 168.42 179.074C168.765 179.362 169.168 179.758 169.586 180.151C170.29 178.791 171.52 178.059 172.373 176.962C170.372 174.318 167.51 173.196 164.447 172.784C161.277 172.356 158.338 173.418 155.59 175.472V172.755H151.161ZM262.434 195.391C262.434 194.04 262.659 192.636 261.6 191.475L260.183 190.762C259.603 190.8 258.83 190.825 258.059 190.911C257.715 190.923 257.383 191.042 257.108 191.25C256.638 191.77 256.198 192.316 255.79 192.886V194.985C256.281 196.069 257.147 196.939 258.227 197.438C260.066 197.616 261.537 197.096 262.428 195.391H262.434Z"/>
<path d="M150.21 212.814C151.193 210.072 152.93 208.445 155.39 207.605C156.582 207.196 158.995 207.2 159.765 207.469C161.984 208.252 163.772 209.492 164.818 211.73C165.627 213.454 165.402 215.217 165.386 216.995C164.118 220.987 160.313 223.168 156.842 222.784C155.942 222.686 155.076 222.232 154.214 221.896C153.352 221.56 152.496 221.091 152.052 220.311C151.608 219.531 150.673 218.983 150.511 217.95C150.378 217.075 149.969 216.228 149.931 215.36C149.887 214.415 150.131 213.457 150.21 212.814Z"/>
<path d="M184.536 177.076C185.495 177.165 186.448 177.311 187.39 177.514C187.887 177.65 188.284 178.148 188.743 178.43C191.013 179.904 191.707 181.188 192.069 183.677C192.123 184.06 192.421 184.463 192.351 184.805C192.018 186.438 191.986 188.127 190.709 189.507C189.105 191.241 188.686 191.678 186.537 192.382C184.999 192.909 183.317 192.823 181.842 192.141C180.96 191.719 180.022 191.355 179.258 190.771C178.215 189.969 177.673 188.752 177.163 187.557C177.077 187.351 176.716 185.138 176.719 185.056C176.727 183.102 177.397 181.208 178.621 179.685C179.315 178.813 180.298 178.278 181.3 177.783C182.306 177.292 183.416 177.049 184.536 177.076Z"/>
<path d="M232.534 207.421C233.655 207.199 234.81 207.209 235.926 207.451C237.043 207.693 238.098 208.162 239.027 208.829C240.241 209.697 241.388 210.816 241.54 212.592H226.91C227.167 211.268 227.895 210.082 228.958 209.253C230.007 208.458 231.114 207.687 232.534 207.421Z"/>
<path d="M199.41 212.617C199.505 210.056 203.091 207.485 205.678 207.282C207.799 207.07 209.922 207.675 211.612 208.974C212.757 209.859 213.695 211.007 214.002 212.617H199.41Z"/>
<path d="M261.426 192.814C261.562 193.362 261.784 193.844 261.772 194.323C261.772 194.735 261.483 195.141 261.328 195.553H260.694C260.628 195.48 260.576 195.396 260.538 195.306C260.45 194.966 260.394 194.619 260.37 194.269C260.37 193.952 260.538 193.654 260.516 193.353C260.462 193.026 260.37 192.707 260.244 192.402H258.024V195.762L258.529 195.917C258.576 195.48 258.614 195.096 258.662 194.649H259.464L259.987 195.797L260.909 195.946C259.705 196.742 258.573 196.65 257.467 196.114L256.728 194.618C256.506 193.264 256.937 192.081 258.582 191.447C260.069 191.435 260.069 191.435 261.426 192.814Z"/>
<path d="M258.797 193.127L259.529 192.994V194.132C259.228 193.72 259.047 193.476 258.797 193.127Z"/>
</svg>
